<?xml version="1.0" encoding="UTF-8"?>
<svg width="60px" height="60px" viewBox="0 0 60 60" version="1.1" xmlns="http://www.w3.org/2000/svg" xmlns:xlink="http://www.w3.org/1999/xlink">
    <!-- Generator: Sketch 60 (88103) - https://sketch.com -->
    <title>baguette</title>
    <desc>Created with Sketch.</desc>
    <g id="Page-1" stroke="none" stroke-width="1" fill="none" fill-rule="evenodd">
        <g id="quote_menu" transform="translate(-836.000000, -584.000000)" fill="#212021" fill-rule="nonzero">
            <g id="buttons" transform="translate(161.000000, 364.000000)">
                <g id="button_french" transform="translate(580.000000, 190.000000)">
                    <g id="baguette" transform="translate(95.000000, 30.000000)">
                        <path d="M58.2003676,1.35198805 C57.3538602,0.510700389 56.1516544,0.102596031 54.7150735,0.116809781 C50.9710478,0.200632296 45.5565258,3.40208533 41.2192095,8.0900414 C40.4462316,8.47671455 38.2049633,9.64402973 37.1456801,10.6950693 C36.8855699,10.9531554 36.6461398,11.224465 36.4163602,11.5012464 C36.4094669,11.509454 36.4030331,11.5176618 36.3970588,11.5267814 C35.1369485,13.0566026 34.3432905,14.8504377 34.1098346,16.7322775 C31.8593751,17.0076909 29.7274816,18.0564507 28.0261948,19.7444978 C27.7683824,20.00076 27.5298713,20.2697896 27.3023896,20.5447471 C27.2734375,20.5803138 27.245864,20.6158804 27.2169118,20.6514469 C25.9931066,22.1639409 25.2196692,23.9295051 24.9903493,25.781706 C22.9659927,26.0283925 21.0431986,26.9061588 19.4397978,28.3051131 C19.4016544,28.3338399 19.3561581,28.3479754 19.3221507,28.3826301 C19.2536765,28.4510275 19.195772,28.5212488 19.129136,28.5901021 C19.0560661,28.6594115 18.9788602,28.7223371 18.9067095,28.7930143 C17.2068014,30.4796936 16.1475184,32.5963644 15.870864,34.8302225 C13.6194853,35.1056359 11.4875919,36.1548516 9.78768376,37.8415309 C9.67141541,37.9578064 9.57490812,38.07545 9.46783082,38.1926374 C9.43795953,38.2158925 9.40165435,38.2272921 9.37408094,38.2546511 C8.13878682,39.47942 7.37775741,40.7333719 7.07444847,41.9991793 C2.70036765,46.5544443 -2.35248165,54.3863995 1.19852941,57.9111442 C2.48621318,59.1883512 4.65625,59.8832685 7.21920953,59.8832685 C7.89108459,59.8832685 8.59145224,59.8353904 9.308364,59.7373541 C12.8952206,59.2499088 16.3584559,57.5759971 18.8092831,55.1446984 L54.8056066,19.4285019 C57.2706801,16.9821559 59.0675552,13.4514835 59.7306986,9.74115397 C60.3855699,6.08873416 59.8129595,2.95294261 58.2003676,1.35198805 Z M57.7068014,9.38275167 C57.1139706,12.6913606 55.527114,15.8257843 53.3520221,17.9844054 L17.3556986,53.7001459 C15.2164522,55.8232004 12.1824448,57.2864482 9.03033082,57.7150717 C6.29044118,58.0862415 3.79136024,57.5974283 2.65303306,56.4670477 C0.964614,54.791312 3.03033082,49.7499696 7.20496329,44.8996839 C7.70588235,46.3916586 8.87316176,47.8093081 10.7081801,49.1266415 C10.8901654,49.2570525 11.1011029,49.3195221 11.3097426,49.3195221 C11.6295955,49.3195221 11.9420955,49.1726958 12.1447611,48.8968263 C12.4770221,48.4408438 12.3745405,47.8029244 11.9136029,47.4723371 C10.0776654,46.1550036 9.09145224,44.8089433 8.98345588,43.4729147 C8.96783082,43.281402 8.97840071,43.0862415 8.99862129,42.891537 C9.21783082,42.6079158 9.40900729,42.3014956 9.53952212,41.9503891 L9.54090071,41.9494772 C9.94806988,40.8514714 10.441636,40.079037 11.2408088,39.2851715 C12.6213235,37.9154001 14.4126838,37.0513132 16.2362132,36.850225 C16.6557905,38.1607186 17.6769301,39.7302104 20.0721507,41.0311284 C20.2288602,41.1168531 20.3984375,41.1565236 20.5647978,41.1565236 C20.929228,41.1565236 21.2807905,40.964555 21.4678308,40.626216 C21.741728,40.1323869 21.558364,39.5108827 21.0606618,39.2413972 C19.2679228,38.2669625 18.2550552,37.0595209 18.0523896,35.6523589 C17.8115809,33.9820951 18.7302389,31.9561648 20.5597426,30.0560859 C21.8432905,28.8582198 23.445772,28.0743859 25.0932905,27.8345392 C25.383272,29.9430022 26.4866728,31.7113023 28.2362132,32.8307393 C28.4090073,32.9401751 28.6015625,32.9930691 28.7927389,32.9930691 C29.1300552,32.9930691 29.4613971,32.8289154 29.6585478,32.525687 C29.9659927,32.0510092 29.8281249,31.4203855 29.3511029,31.1144212 C27.7095588,30.0665734 27.2219669,28.5093933 27.1006434,27.3899562 C26.8993566,25.5245318 27.5675552,23.4803624 28.8653493,21.8712001 C28.8717831,21.8629925 28.8777574,21.8547847 28.8841912,21.8465771 C29.0703125,21.6181298 29.2679228,21.3988023 29.4784007,21.1895064 C30.8258272,19.8525656 32.5638787,18.9925827 34.3400735,18.7645914 C34.6681986,20.834296 35.7725184,22.5629255 37.4963235,23.6508998 C37.6681986,23.7580557 37.8593751,23.8100377 38.0477941,23.8100377 C38.3869485,23.8100377 38.7201287,23.6426921 38.9168199,23.3376398 C39.2219669,22.86205 39.0799633,22.2314263 38.6011029,21.9281979 C37.3102022,21.1129013 36.5018382,19.7782405 36.3239889,18.1667984 C36.0882353,16.0391841 36.9388787,13.7861746 38.597886,12.1400778 C39.1695772,11.5737476 40.4048713,10.8286722 41.5114889,10.2418227 C41.4908088,10.5714981 41.4949448,10.8806542 41.5280331,11.1510518 C41.7366728,12.8696498 42.8391544,14.3716562 44.7159927,15.4993009 C44.8828125,15.599617 45.0657169,15.6474951 45.2477022,15.6474951 C45.5951287,15.6474951 45.9356618,15.4719419 46.1277574,15.15549 C46.4223346,14.6726045 46.2670036,14.0460846 45.7803308,13.7542558 C44.8630515,13.203429 43.7357536,12.2622811 43.5703125,10.9071012 C43.4181986,9.65634117 44.1070772,8.23048389 45.5657169,6.78365148 C45.5749081,6.77453183 45.5767464,6.76222039 45.5859375,6.75310062 C48.8451287,4.00489424 52.3244485,2.21516288 54.7587316,2.16090105 C54.7950367,2.15998903 54.8308824,2.15998903 54.8658088,2.15998903 C55.6842831,2.15998903 56.3147978,2.37430086 56.7426471,2.79882047 C57.8497242,3.89089856 58.2270221,6.47677529 57.7068014,9.38275167 Z" id="Shape"></path>
                    </g>
                </g>
            </g>
        </g>
    </g>
</svg>