<?xml version="1.0" encoding="UTF-8"?>
<svg width="60px" height="60px" viewBox="0 0 60 60" version="1.1" xmlns="http://www.w3.org/2000/svg" xmlns:xlink="http://www.w3.org/1999/xlink">
    <!-- Generator: Sketch 60 (88103) - https://sketch.com -->
    <title>bbq</title>
    <desc>Created with Sketch.</desc>
    <g id="Page-1" stroke="none" stroke-width="1" fill="none" fill-rule="evenodd">
        <g id="quote_menu" transform="translate(-546.000000, -584.000000)" fill="#212021" fill-rule="nonzero">
            <g id="buttons" transform="translate(161.000000, 364.000000)">
                <g id="button_bbq" transform="translate(290.000000, 190.000000)">
                    <g id="bbq" transform="translate(95.000000, 30.000000)">
                        <path d="M21.4660223,12.0932006 C20.407799,12.7423096 18.9581088,13.6312866 18.9581088,15.4421998 C18.9581088,16.0894775 19.5369747,16.6140748 20.2512123,16.6140748 C20.9654498,16.6140748 21.5443157,16.0894775 21.5443157,15.4421998 C21.5443157,14.9263001 21.9408338,14.631958 22.9152075,14.0345764 C23.9739359,13.3854675 25.4236261,12.4964905 25.4236261,10.6851197 C25.4236261,8.87374875 23.9739359,7.98522949 22.9152075,7.33612055 C21.9408338,6.73873898 21.5443157,6.44439703 21.5443157,5.92849734 C21.5443157,5.41259766 21.9408338,5.11825559 22.9152075,4.52087402 C23.9739359,3.87176508 25.4236261,2.98324582 25.4236261,1.171875 C25.4236261,0.525054961 24.8442551,0 24.1305226,0 C23.4162851,0 22.8374192,0.525054961 22.8374192,1.171875 C22.8374192,1.68777469 22.4403959,1.98211664 21.4660223,2.57949832 C20.407799,3.22860715 18.9581088,4.11712641 18.9581088,5.92849734 C18.9581088,7.73986816 20.4072939,8.62838742 21.4660223,9.27749637 C22.4403959,9.87487793 22.8374192,10.16922 22.8374192,10.6855774 C22.8374192,11.2014771 22.4403959,11.4958191 21.4660223,12.0932006 Z" id="Path"></path>
                        <path d="M30.3864156,12.0932006 C29.3281924,12.7423096 27.8785022,13.6308288 27.8785022,15.4421998 C27.8785022,16.0894775 28.4573679,16.6140748 29.1716056,16.6140748 C29.8858433,16.6140748 30.4647091,16.0894775 30.4647091,15.4421998 C30.4647091,14.9263001 30.8612271,14.631958 31.8356007,14.0345764 C32.8943291,13.3854675 34.3440194,12.4964905 34.3440194,10.6851197 C34.3440194,8.87374875 32.8943291,7.98522949 31.8356007,7.33612055 C30.8612271,6.73873898 30.464204,6.44439703 30.464204,5.92849734 C30.464204,5.41259766 30.8612271,5.11825559 31.8356007,4.52087402 C32.8943291,3.87176508 34.3440194,2.98278809 34.3440194,1.171875 C34.3440194,0.524597109 33.7646484,0 33.0509159,0 C32.3366783,0 31.7578125,0.524597109 31.7578125,1.171875 C31.7578125,1.68731695 31.3607894,1.98211664 30.3864156,2.57949832 C29.3276872,3.22860715 27.8779971,4.11712641 27.8779971,5.92849734 C27.8779971,7.73941043 29.3276872,8.62838742 30.3864156,9.27703852 C31.3607894,9.87487793 31.7578125,10.16922 31.7578125,10.6851197 C31.7578125,11.2014771 31.3612945,11.4958191 30.3864156,12.0932006 Z" id="Path"></path>
                        <path d="M39.306809,12.0932006 C38.2485856,12.7423096 36.7988955,13.6312866 36.7988955,15.4421998 C36.7988955,16.0894775 37.3777614,16.6140748 38.0919989,16.6140748 C38.8062365,16.6140748 39.3851024,16.0894775 39.3851024,15.4421998 C39.3851024,14.9263001 39.7821256,14.631958 40.7564992,14.0345764 C41.8147226,13.3854675 43.2644127,12.4964905 43.2644127,10.6851197 C43.2644127,8.87374875 41.8147226,7.98522949 40.7564992,7.33612055 C39.7821256,6.73873898 39.3851024,6.44439703 39.3851024,5.92849734 C39.3851024,5.41259766 39.7821256,5.11825559 40.7564992,4.52087402 C41.8147226,3.87176508 43.2644127,2.98324582 43.2644127,1.171875 C43.2644127,0.525054961 42.6850417,0 41.9713093,0 C41.2570717,0 40.6782058,0.525054961 40.6782058,1.171875 C40.6782058,1.68777469 40.2811826,1.98211664 39.306809,2.57949832 C38.2485856,3.22860715 36.7988955,4.11712641 36.7988955,5.92849734 C36.7988955,7.73986816 38.2485856,8.62838742 39.306809,9.27749637 C40.2811826,9.87487793 40.6782058,10.16922 40.6782058,10.6855774 C40.6782058,11.2014771 40.2811826,11.4958191 39.306809,12.0932006 L39.306809,12.0932006 Z" id="Path"></path>
                        <path d="M58.6311287,26.8881225 L53.9006937,26.8881225 C54.0497037,26.0545349 54.1466864,25.2058411 54.1881062,24.3438721 C55.6777007,23.8723755 56.7495622,22.5869752 56.7495622,21.0781861 C56.7495622,19.1711426 55.0372104,17.6193237 52.9323815,17.6193237 L6.99185069,17.6193237 C4.88702185,17.6193237 3.17517517,19.1711426 3.17517517,21.0781861 C3.17517517,22.5869752 4.24653155,23.8723755 5.73612608,24.3438721 C5.77805095,25.2058411 5.87503371,26.0545349 6.02353849,26.8876648 L1.29310345,26.8876648 C0.578865776,26.8876648 0,27.4127197 0,28.0595398 C0,28.7068177 0.578865776,29.2314148 1.29310345,29.2314148 L6.58927125,29.2314148 C8.37082435,35.0537109 12.7355536,39.9119568 18.4903691,42.723999 L15.4308661,47.9278564 C15.4288456,47.9310608 15.4273303,47.9338073 15.4253097,47.9370117 L9.71090379,57.65625 L7.74346707,57.65625 C7.02922953,57.65625 6.45036362,58.181305 6.45036362,58.828125 C6.45036362,59.4754029 7.02922953,60 7.74346707,60 L13.2305697,60 C13.9448074,60 14.5236732,59.4754029 14.5236732,58.828125 C14.5236732,58.181305 13.9448074,57.65625 13.2305697,57.65625 L12.6410964,57.65625 L17.3417295,49.662323 L42.890625,49.662323 L47.5907529,57.65625 L46.6936624,57.65625 C45.97993,57.65625 45.400559,58.181305 45.400559,58.828125 C45.400559,59.4754029 45.97993,60 46.6936624,60 L52.1807651,60 C52.8950028,60 53.4738685,59.4754029 53.4738685,58.828125 C53.4738685,58.181305 52.8950028,57.65625 52.1807651,57.65625 L50.5214507,57.65625 L44.8060345,47.936554 C44.8045191,47.9338073 44.8030037,47.9310608 44.8014884,47.9283142 L41.671774,42.6058959 C47.3088969,39.7769166 51.5781587,34.9731445 53.3349609,29.2318725 L58.6311287,29.2318725 C59.3448613,29.2318725 59.9242322,28.7068177 59.9242322,28.0599975 C59.9242322,27.4127197 59.3453664,26.8881225 58.6311287,26.8881225 Z M18.7196929,47.318573 L20.8320985,43.7251282 C23.6521753,44.7674561 26.7339036,45.3433228 29.9621161,45.3433228 C33.2868063,45.3433228 36.4569303,44.7335815 39.3446929,43.6312866 L41.5126616,47.318573 L18.7196929,47.318573 Z M29.9621161,42.9995728 C18.4499597,42.9995728 9.00575832,34.8207093 8.33496091,24.5375061 L51.5892713,24.5375061 C50.9184738,34.8207093 41.4747777,42.9995728 29.9621161,42.9995728 Z M52.9323815,22.1937561 L6.99185069,22.1937561 C6.31347659,22.1937561 5.76138207,21.6934205 5.76138207,21.0781861 C5.76138207,20.4634095 6.31347659,19.9630737 6.99185069,19.9630737 L52.9323815,19.9630737 C53.6112608,19.9630737 54.1633553,20.4634095 54.1633553,21.0781861 C54.1633553,21.6934205 53.6112608,22.1937561 52.9323815,22.1937561 Z" id="Shape"></path>
                        <path d="M29.9621161,40.9373474 C36.6781721,40.9373474 42.8239494,37.8479004 46.4027141,32.6733398 C46.7820582,32.1249389 46.5992053,31.4016724 45.9935682,31.0578919 C45.3884361,30.7141113 44.5903488,30.8802796 44.21151,31.4286804 C41.1085668,35.9147644 35.7820919,38.5935974 29.9621161,38.5935974 C29.2478785,38.5935974 28.6690126,39.1181946 28.6690126,39.7654724 C28.6690126,40.4122924 29.2478785,40.9373474 29.9621161,40.9373474 Z" id="Path"></path>
                        <path d="M46.1946053,28.2133484 C46.4052398,28.6706543 46.9229863,28.9659118 47.4695245,28.9343262 C47.9877762,28.9041138 48.4428879,28.5868835 48.6115976,28.1419372 C48.79243,27.6654053 48.6020003,27.1156311 48.1514346,26.8199157 C47.7352169,26.5461731 47.1654432,26.5214538 46.7239695,26.7604065 C46.1814723,27.0542907 45.9516433,27.6841736 46.1946053,28.2133484 Z" id="Path"></path>
                    </g>
                </g>
            </g>
        </g>
    </g>
</svg>