<svg xmlns="http://www.w3.org/2000/svg" width="50" height="50" viewBox="0 0 50 50"><g fill="#C6C4C4"><path d="M44.14 3.906h-2.343V0H37.89v3.906H12.109V0H8.203v3.906H5.86A5.866 5.866 0 0 0 0 9.766V44.14C0 47.37 2.629 50 5.86 50h38.28A5.867 5.867 0 0 0 50 44.14V9.767a5.867 5.867 0 0 0-5.86-5.86zm1.954 40.235a1.955 1.955 0 0 1-1.953 1.953H5.859a1.955 1.955 0 0 1-1.953-1.953V18.359h42.188v25.782zm0-29.688H3.906V9.766c0-1.077.876-1.954 1.953-1.954h2.344v3.907h3.906V7.813h25.782v3.906h3.906V7.813h2.344c1.077 0 1.953.876 1.953 1.953v4.687z"/><path d="M7.42 22.46h3.91v5H7.42zm7.81 0h3.91v5h-3.91zm7.82 0h3.91v5h-3.91zm7.81 0h3.91v5h-3.91zm7.81 0h3.91v5h-3.91zM7.42 30.27h3.91v5H7.42zm7.81 0h3.91v5h-3.91zm7.82 0h3.91v5h-3.91zm7.81 0h3.91v5h-3.91zM7.42 38.09h3.91v5H7.42zm7.81 0h3.91v5h-3.91zm7.82 0h3.91v5h-3.91zm7.81 0h3.91v5h-3.91zm7.81-7.82h3.91v5h-3.91z"/></g></svg>