<svg xmlns="http://www.w3.org/2000/svg" width="50" height="50" viewBox="0 0 50 50"><path fill="#C6C4C4" d="M44.118 10.028c2.066 0 3.747 1.835 3.747 4.09 0 2.256-1.681 4.092-3.747 4.092-2.065 0-3.746-1.836-3.746-4.091 0-2.256 1.68-4.091 3.746-4.091zm0 2.829c-.637 0-1.155.566-1.155 1.262 0 .695.518 1.261 1.155 1.261.638 0 1.156-.566 1.156-1.261 0-.696-.518-1.262-1.156-1.262zm5.87 17.67v1.696c0 2.21-1.647 4.008-3.67 4.008h-1.08v7.626c0 3.354-2.497 6.082-5.568 6.082H10.403c-3.07 0-5.568-2.728-5.568-6.082v-7.626h-1.08c-2.023 0-3.67-1.798-3.67-4.008v-1.696c0-2.21 1.647-4.008 3.67-4.008h1.08v-4.18c0-.781.58-1.415 1.295-1.415h37.813c.716 0 1.296.634 1.296 1.415v4.18h1.079c2.023 0 3.67 1.798 3.67 4.008zM4.835 29.348h-1.08c-.595 0-1.079.53-1.079 1.179v1.696c0 .65.484 1.179 1.08 1.179h1.079v-4.054zm37.813-5.594H7.426v20.103c0 1.794 1.335 3.253 2.977 3.253H39.67c1.642 0 2.978-1.46 2.978-3.253V23.754zm4.749 6.773c0-.65-.484-1.179-1.079-1.179h-1.08v4.054h1.08c.595 0 1.079-.53 1.079-1.179v-1.696zM40.705 3.198c.331 0 .663-.138.915-.414l.175-.19a1.508 1.508 0 0 0 0-2 1.22 1.22 0 0 0-1.831-.001l-.175.19a1.508 1.508 0 0 0 0 2c.253.277.584.415.916.415zm-10.737 14.93c0 .78.58 1.414 1.296 1.414.715 0 1.295-.633 1.295-1.414 0-1.118.833-2.027 1.856-2.027 1.023 0 1.855.91 1.855 2.027 0 .78.58 1.414 1.296 1.414.715 0 1.295-.633 1.295-1.414 0-2.678-1.995-4.856-4.446-4.856-2.452 0-4.447 2.178-4.447 4.856zM5.775 16.01c-.165-.76.266-1.522.962-1.702l14.072-3.633-.248-1.147c-.466-2.151.758-4.314 2.727-4.823l1.511-.39c1.969-.508 3.95.828 4.416 2.978l.249 1.147 14.071-3.633c.696-.18 1.395.29 1.559 1.05.165.761-.266 1.523-.963 1.703L7.333 17.061c-.1.026-.2.039-.299.039-.587 0-1.118-.439-1.26-1.09zm17.307-7.133l.248 1.147 3.612-.933-.248-1.147c-.117-.541-.561-.907-1.05-.907a.997.997 0 0 0-.248.031l-1.512.39c-.58.15-.939.786-.802 1.419z"/></svg>