<svg xmlns="http://www.w3.org/2000/svg" width="50" height="50" viewBox="0 0 50 50"><path fill="#C6C4C4" d="M13.794 3.118C12.283 1.108 10.244 0 8.05 0 5.858 0 3.819 1.108 2.308 3.118.871 5.03.08 7.554.08 10.226c0 2.671.791 5.196 2.228 7.108.84 1.118 1.845 1.956 2.947 2.48L3.57 45.122a4.494 4.494 0 0 0 1.202 3.36 4.512 4.512 0 0 0 3.28 1.42 4.51 4.51 0 0 0 3.28-1.419 4.494 4.494 0 0 0 1.201-3.361l-1.686-25.308c1.103-.524 2.107-1.362 2.948-2.48 1.436-1.912 2.228-4.437 2.228-7.108 0-2.672-.791-5.196-2.228-7.108zM9.656 46.919c-.42.448-.99.695-1.605.695a2.18 2.18 0 0 1-1.605-.695 2.171 2.171 0 0 1-.589-1.645l1.656-24.848c.178.015.357.026.538.026.18 0 .36-.01.537-.026l1.656 24.848a2.17 2.17 0 0 1-.588 1.645zM8.05 18.162a4.14 4.14 0 0 1-1.296-.21c-2.508-.822-4.382-3.973-4.382-7.726 0-4.376 2.547-7.937 5.678-7.937 3.13 0 5.677 3.56 5.677 7.937 0 4.376-2.547 7.936-5.677 7.936zm41.87 11.655V1.289l-.01.004A1.148 1.148 0 0 0 48.17.17c-4.678 2.887-7.471 7.887-7.472 13.375v14.992a2.433 2.433 0 0 0 2.36 2.426v15.499a3.432 3.432 0 0 0 6.862 0V29.817zm-6.788-1.14a.14.14 0 0 1-.14-.14V13.55c0-3.96 1.7-7.622 4.634-10.15v25.278h-4.494zm4.495 17.785a1.138 1.138 0 0 1-2.276 0V30.967h2.276v15.495zM32.5 0c-.633 0-1.147.513-1.147 1.145v13.002h-2.922V1.145a1.146 1.146 0 0 0-2.293 0v13.002h-2.922V1.145a1.146 1.146 0 0 0-2.294 0v16.567a3.39 3.39 0 0 0 3.39 3.384h.204l-1.609 24.137a4.386 4.386 0 0 0 1.174 3.282 4.406 4.406 0 0 0 3.203 1.388c1.21 0 2.378-.506 3.204-1.388a4.386 4.386 0 0 0 1.173-3.281l-1.609-24.138h.205a3.39 3.39 0 0 0 3.39-3.384V1.145C33.647.513 33.133 0 32.5 0zm-3.687 46.951c-.4.427-.943.663-1.529.663a2.074 2.074 0 0 1-1.528-.663 2.065 2.065 0 0 1-.56-1.565l1.619-24.29h.939l1.619 24.29a2.064 2.064 0 0 1-.56 1.565zm2.54-29.239c0 .604-.492 1.095-1.096 1.095h-5.945a1.097 1.097 0 0 1-1.096-1.095v-1.276h8.137v1.276z"/></svg>