<svg xmlns="http://www.w3.org/2000/svg" xmlns:xlink="http://www.w3.org/1999/xlink" width="34" height="26" viewBox="0 0 34 26"><defs><path id="a" d="M36.035 15.755a.392.392 0 0 1 .632.306v13.314c0 1.725-1.4 3.125-3.125 3.125H6.458a3.126 3.126 0 0 1-3.125-3.125V16.068a.39.39 0 0 1 .632-.306c1.458 1.133 3.392 2.571 10.032 7.396C15.371 24.16 17.69 26.27 20 26.257c2.324.019 4.688-2.136 6.01-3.1 6.64-4.824 8.567-6.269 10.025-7.402zM20 24.167c1.51.026 3.685-1.901 4.779-2.696 8.639-6.27 9.297-6.816 11.289-8.379.377-.293.599-.748.599-1.23v-1.237c0-1.725-1.4-3.125-3.125-3.125H6.458a3.126 3.126 0 0 0-3.125 3.125v1.237c0 .482.222.931.6 1.23 1.991 1.556 2.649 2.11 11.288 8.38 1.094.794 3.269 2.72 4.779 2.695z"/></defs><g fill="none" fill-rule="evenodd" transform="translate(-3 -7)"><mask id="b" fill="#fff"><use xlink:href="#a"/></mask><g fill="#CACACA" mask="url(#b)"><path d="M0 0h40v40H0z"/></g></g></svg>