<svg xmlns="http://www.w3.org/2000/svg" xmlns:xlink="http://www.w3.org/1999/xlink" width="31" height="23" viewBox="0 0 31 23"><defs><path id="a" d="M31.53 13.786a.343.343 0 0 1 .553.268v11.65a2.735 2.735 0 0 1-2.734 2.734H5.651a2.735 2.735 0 0 1-2.734-2.735V14.06a.34.34 0 0 1 .552-.267c1.276.99 2.968 2.25 8.779 6.47 1.202.878 3.23 2.724 5.252 2.712 2.034.018 4.102-1.868 5.258-2.711 5.81-4.221 7.497-5.486 8.773-6.477zm-14.03 7.36c1.322.023 3.224-1.664 4.181-2.359 7.56-5.485 8.135-5.964 9.878-7.331.33-.256.524-.655.524-1.077V9.297a2.735 2.735 0 0 0-2.734-2.735H5.651a2.735 2.735 0 0 0-2.734 2.735v1.082c0 .422.193.815.524 1.077 1.743 1.361 2.318 1.846 9.878 7.331.957.695 2.86 2.382 4.181 2.359z"/></defs><g fill="none" fill-rule="evenodd" transform="translate(-2 -6)"><mask id="b" fill="#fff"><use xlink:href="#a"/></mask><g fill="#FFF" mask="url(#b)"><path d="M0 0h35v35H0z"/></g></g></svg>