<svg xmlns="http://www.w3.org/2000/svg" width="50" height="50" viewBox="0 0 50 50"><g fill="#C6C4C4"><path d="M25 0C11.181 0 0 11.182 0 25c0 13.819 11.182 25 25 25 13.819 0 25-11.182 25-25C50 11.181 38.818 0 25 0zm0 46.094C13.34 46.094 3.906 36.659 3.906 25 3.906 13.34 13.341 3.906 25 3.906c11.66 0 21.094 9.435 21.094 21.094 0 11.66-9.435 21.094-21.094 21.094z"/><path d="M25 12.586a1.953 1.953 0 0 0-1.953 1.953v12.577a1.953 1.953 0 1 0 3.906 0V14.54A1.953 1.953 0 0 0 25 12.586z"/><circle cx="25" cy="34.1" r="2.64"/></g></svg>