<?xml version="1.0" encoding="UTF-8"?>
<svg width="100px" height="100px" viewBox="0 0 100 100" version="1.1" xmlns="http://www.w3.org/2000/svg" xmlns:xlink="http://www.w3.org/1999/xlink">
    <!-- Generator: Sketch 60 (88103) - https://sketch.com -->
    <title>food</title>
    <desc>Created with Sketch.</desc>
    <g id="Page-1" stroke="none" stroke-width="1" fill="none" fill-rule="evenodd">
        <g id="quote_type_service" transform="translate(-445.000000, -432.000000)" fill="#212021" fill-rule="nonzero">
            <g id="button_unique_service" transform="translate(370.000000, 364.000000)">
                <g id="food" transform="translate(75.000000, 68.000000)">
                    <path d="M30.5235482,33.0398546 C30.8479265,33.3985624 31.273578,33.5787584 31.6999909,33.5787584 C32.1256424,33.5787584 32.5512937,33.3985624 32.8756721,33.0398546 C33.5259517,32.3207548 33.5259517,31.1579015 32.8756721,30.4388017 C31.187534,28.5703211 31.187534,25.531409 32.8756721,23.6629287 C34.3231915,22.0622159 35.1211928,19.9360721 35.1211928,17.6735181 C35.1211928,15.4109644 34.3247145,13.2839784 32.8756721,11.6841078 C32.2253924,10.964166 31.1738278,10.964166 30.5235482,11.6841078 C29.8732685,12.4032074 29.8732685,13.5660609 30.5235482,14.2843186 C31.3421085,15.1895086 31.7951723,16.3927797 31.7951723,17.6726762 C31.7951723,18.9534146 31.3436315,20.1558437 30.5235482,21.0610337 C27.5378964,24.3626614 27.5378964,29.7382267 30.5235482,33.0398546 Z" id="Path"></path>
                    <path d="M67.1189111,33.0398546 C67.4432896,33.3985624 67.8689411,33.5787584 68.2945924,33.5787584 C68.7210052,33.5787584 69.1466567,33.3985624 69.4710352,33.0398546 C70.1213147,32.3207548 70.1213147,31.1579015 69.4710352,30.4388017 C67.7828969,28.5703211 67.7828969,25.531409 69.4710352,23.6629287 C70.9177932,22.0622159 71.7165559,19.9360721 71.7165559,17.6735181 C71.7165559,15.4109644 70.9200774,13.2839784 69.4710352,11.6841078 C68.8207554,10.964166 67.7691909,10.964166 67.1189111,11.6841078 C66.4686316,12.4032074 66.4686316,13.5660609 67.1189111,14.2843186 C67.9374716,15.1895086 68.3897739,16.3927797 68.3897739,17.6726762 C68.3897739,18.9534146 67.9389946,20.1558437 67.1189111,21.0610337 C64.1332595,24.3626614 64.1332595,29.7382267 67.1189111,33.0398546 L67.1189111,33.0398546 Z" id="Path"></path>
                    <path d="M48.8212297,22.0032734 C49.1456081,22.3619811 49.572021,22.5421772 49.9976723,22.5421772 C50.4233238,22.5421772 50.8489753,22.3619811 51.1733536,22.0032734 C51.8243947,21.2841735 51.8243947,20.1213202 51.1733536,19.4022204 C49.4852155,17.5337401 49.4852155,14.494828 51.1733536,12.6255052 C52.620873,11.0256348 53.4188742,8.89864883 53.4188742,6.63609489 C53.4188742,4.37438316 52.622396,2.24739716 51.1733536,0.647526531 C50.523074,-0.0724153045 49.4715092,-0.0724153045 48.8219911,0.647526531 C48.1709501,1.36662638 48.1709501,2.52863768 48.8219911,3.24773732 C49.6397902,4.15292733 50.0928537,5.35619839 50.0928537,6.63609489 C50.0928537,7.91599139 49.6420744,9.11926267 48.8219911,10.0244525 C45.8355781,13.3260802 45.8355781,18.7016455 48.8212297,22.0032734 L48.8212297,22.0032734 Z" id="Path"></path>
                    <path d="M42.1592898,47.3965883 C42.2803607,47.3965883 42.4037157,47.3822737 42.5270708,47.3528024 C44.9187904,46.7566401 47.3919851,46.4543487 49.8811703,46.4543487 L49.9024909,46.4543487 C50.8208016,46.4543487 51.5655012,45.6325204 51.5655012,44.6170237 C51.5655012,43.5998427 50.8223244,42.7763303 49.9024909,42.7763303 C49.8956379,42.7763303 49.8872619,42.7763303 49.8788859,42.7763303 C47.1460362,42.7763303 44.4261311,43.108935 41.7953159,43.7640401 C40.898326,43.9863379 40.3363746,44.9706793 40.5373979,45.961757 C40.7140546,46.8172667 41.3985996,47.3965883 42.1592898,47.3965883 Z" id="Path"></path>
                    <path d="M16.3361824,77.6947699 C16.4382168,77.7166628 16.537967,77.7259252 16.6354328,77.7259252 C17.4242966,77.7259252 18.1248321,77.1036597 18.2710308,76.2169946 C19.9995258,65.7361579 25.7111742,56.4097542 33.5510797,51.2741694 C34.340705,50.7580007 34.6026443,49.6279867 34.135113,48.7539522 C33.6660588,47.8807597 32.6464751,47.5919409 31.8560884,48.1089519 C23.1991454,53.7792301 16.8988949,64.0402951 14.9990732,75.5551533 C14.8330768,76.5563357 15.4315777,77.5120477 16.3361824,77.6947699 Z" id="Path"></path>
                    <path d="M92.5255047,75.1930774 C89.5116793,55.6190812 75.7134152,40.0666548 58.1474887,36.2993804 C58.1764237,36.0055094 58.219065,35.7091124 58.219065,35.4169254 C58.219065,30.3453357 54.4887139,26.2193533 49.9024909,26.2193533 C45.316268,26.2193533 41.5851552,30.3453357 41.5851552,35.4169254 C41.5851552,35.7091124 41.6270351,36.0055094 41.6567318,36.2993804 C24.0908053,40.0666548 10.2933026,55.6190812 7.27871573,75.1930774 C3.80268911,77.3689015 0,80.5711689 0,84.1641413 C0,93.5174902 25.8025484,99.7990875 49.9024909,99.7990875 C74.001672,99.7990875 99.8049818,93.5174902 99.8049818,84.1641413 C99.8049818,80.5711689 96.0022927,77.3689015 92.5255047,75.1930774 Z M44.9225976,35.7343736 C44.9157446,35.6274348 44.9119373,35.521338 44.9119373,35.4177676 C44.9119373,32.3754871 47.1513664,29.8990559 49.9024909,29.8990559 C52.6536154,29.8990559 54.8930445,32.3754871 54.8930445,35.4177676 C54.8930445,35.5230222 54.8899989,35.6274348 54.8831457,35.7343736 C54.8047163,35.7251111 54.7262867,35.721743 54.6501416,35.7124805 C54.0782914,35.6425914 53.5018726,35.5929113 52.9231694,35.5482832 C52.7107244,35.5322847 52.4990407,35.5078654 52.2865959,35.4952348 C51.497732,35.4472387 50.7042994,35.4194516 49.9047753,35.4194516 C49.1044897,35.4194516 48.3110572,35.4472387 47.5221932,35.4952348 C47.3097483,35.5078654 47.0980647,35.5322847 46.8856199,35.5482832 C46.3069166,35.5929113 45.7312591,35.6442756 45.1586475,35.7124805 C45.0786951,35.721743 45.0002655,35.7234269 44.9225976,35.7343736 L44.9225976,35.7343736 Z M43.9121513,39.594272 C44.8053339,39.4469154 45.703847,39.3399766 46.6054057,39.2591411 C46.7904383,39.2423003 46.9747096,39.2279858 47.1589808,39.213671 C48.9857032,39.077261 50.8208016,39.077261 52.6467624,39.213671 C52.8317952,39.2279858 53.0160664,39.2423003 53.2010992,39.2591411 C54.1026579,39.3399766 55.0011707,39.4469154 55.893592,39.594272 C73.2234686,42.4908798 86.9280741,57.7528035 89.414975,76.9647236 C89.4911202,77.5549916 89.5527977,78.1469438 89.6076223,78.739738 C89.6258971,78.9435109 89.6510249,79.1455998 89.667777,79.3502149 C89.7325003,80.1644649 89.7804718,80.9795569 89.8040767,81.7946488 C63.6718199,88.4922124 36.1354463,88.4922124 10.0031894,81.7946488 C10.0283172,80.9795569 10.0747659,80.1644649 10.1394893,79.3502149 C10.1562411,79.1455998 10.1798462,78.9435109 10.1988824,78.739738 C10.2537069,78.1452596 10.3153846,77.5524655 10.3922912,76.9647236 C12.8784306,57.7528035 26.5830363,42.4891957 43.9121513,39.594272 Z M49.9024909,96.1202272 C21.4645586,96.1202272 3.32678192,88.2673884 3.32678192,84.1641413 C3.32678192,83.4593563 4.11488435,81.9074817 6.76016725,79.8823824 C6.75331404,79.986795 6.75635984,80.0895234 6.74950683,80.1947782 C6.69315951,81.2026967 6.65356383,82.2181934 6.65356383,83.2446367 L6.65356383,84.6937829 L7.92899528,85.0339657 C21.6594902,88.6766186 35.7813714,90.5013132 49.9017295,90.5013132 C64.0228491,90.5013132 78.1454916,88.6783026 91.875225,85.0339657 L93.1506564,84.6937829 L93.1506564,83.2446367 C93.1506564,82.2181934 93.1110609,81.2043808 93.0539522,80.1947782 C93.0478606,80.0895234 93.0509062,79.986795 93.0440532,79.8823824 C95.6893361,81.9074817 96.4774385,83.4593563 96.4774385,84.1641413 C96.4774385,88.2673884 78.3404232,96.1202272 49.9024909,96.1202272 Z" id="Shape"></path>
                </g>
            </g>
        </g>
    </g>
</svg>