<?xml version="1.0" encoding="UTF-8"?>
<svg width="60px" height="60px" viewBox="0 0 60 60" version="1.1" xmlns="http://www.w3.org/2000/svg" xmlns:xlink="http://www.w3.org/1999/xlink">
    <!-- Generator: Sketch 60 (88103) - https://sketch.com -->
    <title>gluten-free</title>
    <desc>Created with Sketch.</desc>
    <g id="Page-1" stroke="none" stroke-width="1" fill="none" fill-rule="evenodd">
        <g id="quote_allergies" transform="translate(-464.000000, -392.000000)" fill="#212021" fill-rule="nonzero">
            <g id="button_gluten_free" transform="translate(394.000000, 362.000000)">
                <g id="gluten-free" transform="translate(70.000000, 30.000000)">
                    <path d="M59.4830859,56.9874609 L40.0195312,37.5237891 C41.7008203,37.1444531 43.5133594,36.3441797 45.4339453,35.1296484 C46.8171094,34.2550781 47.6429297,32.75625 47.6428125,31.1201953 C47.6428125,30.5725781 47.5483594,30.04125 47.3732812,29.5426172 C49.2673828,29.255625 51.3410156,28.4066016 53.5592578,27.0041016 C54.9424219,26.1295312 55.7682422,24.6308203 55.7682422,22.9947656 C55.7682422,21.3587109 54.9424219,19.86 53.5592578,18.9851953 C52.5446484,18.3438281 51.560625,17.8190625 50.6097656,17.4094922 C51.2218359,17.0218359 51.7924219,16.5813281 52.2942187,16.0796484 C53.8901953,14.4837891 55.0660547,12.0472266 55.7893359,8.83757812 C56.1489844,7.24113281 55.6730859,5.59734375 54.5163281,4.44046875 C53.3594531,3.28371094 51.7158984,2.80757812 50.1192188,3.16746094 C46.9096875,3.890625 44.473125,5.06660156 42.8772656,6.66246094 C42.3760547,7.16367187 41.9360156,7.73355469 41.5487109,8.34492187 C41.1394922,7.39582031 40.6157812,6.41390625 39.9757031,5.40128906 C39.10125,4.018125 37.6024219,3.19242187 35.96625,3.19242187 C34.3300781,3.19242187 32.8313672,4.01824219 31.9567969,5.40140625 C30.5542969,7.61976562 29.7052734,9.69339844 29.4182812,11.5873828 C28.9196484,11.4124219 28.3883203,11.3179687 27.8405859,11.3179687 C26.2045312,11.3179687 24.7058203,12.1437891 23.8311328,13.5269531 C22.6168359,15.4476562 21.8164453,17.2600781 21.4371094,18.9413672 L3.01253906,0.516796875 C2.32347656,-0.172265625 1.20609375,-0.172265625 0.516914062,0.516796875 C-0.172265625,1.20585937 -0.172265625,2.32324219 0.516914062,3.01242187 L17.5064063,20.0019141 C16.7712891,20.3819531 16.1368359,20.9535937 15.6765234,21.6816797 C13.9183594,24.4625391 13.0269141,27.016875 13.0269141,29.2739062 C13.0269141,33.133125 15.7267969,37.1518359 17.2975781,39.1634766 L4.08574219,52.3756641 C3.3965625,53.0647266 3.3965625,54.1821094 4.08574219,54.8712891 C4.43027344,55.2158203 4.88203125,55.3882031 5.33355469,55.3882031 C5.78507813,55.3882031 6.23683594,55.2158203 6.58136719,54.8712891 L19.7928516,41.6598047 C21.8029687,43.23 25.8247266,45.9339844 29.686875,45.9339844 C31.9439063,45.9339844 34.4982422,45.0425391 37.2792187,43.284375 C38.0071875,42.8240625 38.5788281,42.1898438 38.9588672,41.4546094 L56.9873437,59.4832031 C57.3319922,59.8277344 57.78375,60 58.2353906,60 C58.6870312,60 59.1386719,59.8276172 59.4832031,59.4830859 C60.1722656,58.7940234 60.1722656,57.6765234 59.4830859,56.9874609 Z M45.3728906,9.15820312 C46.4735156,8.05757813 48.3830859,7.1765625 50.895,6.61066406 C50.9935547,6.58839844 51.0866016,6.57878906 51.1740234,6.57878906 C51.6091406,6.57878906 51.9022266,6.81796875 52.0207031,6.93632813 C52.1628516,7.07859375 52.4790234,7.4728125 52.3463672,8.06191406 C51.7803516,10.5739453 50.8994531,12.4833984 49.7988281,13.5840234 C48.0989062,15.2839453 44.8270312,16.1148047 42.4910156,16.4660156 C42.8423437,14.1295312 43.6730859,10.858125 45.3728906,9.15820312 Z M45.9671484,19.8651562 C47.5236328,19.8651562 49.4968359,20.5925391 51.6732422,21.9684375 C52.1838281,22.2914063 52.2390234,22.7939062 52.2390234,22.9948828 C52.2390234,23.1958594 52.1838281,23.6982422 51.6733594,24.0209766 C49.4968359,25.3969922 47.52375,26.124375 45.9671484,26.124375 C43.5630469,26.124375 40.6619531,24.3982031 38.761875,22.9947656 C40.6625391,21.5909766 43.5633984,19.8651562 45.9671484,19.8651562 Z M34.9399219,7.28777344 C35.2627734,6.7771875 35.7652734,6.72199219 35.9661328,6.72199219 C36.1669922,6.72199219 36.6694922,6.7771875 36.9923437,7.28765625 C38.3683594,9.46429687 39.0957422,11.4372656 39.0957422,12.9938672 C39.0957422,15.3979688 37.3696875,18.2990625 35.96625,20.1991406 C34.5623438,18.2984766 32.8366406,15.3976172 32.8366406,12.9938672 C32.8366406,11.4372656 33.5639062,9.46417969 34.9399219,7.28777344 Z M26.814375,15.4133203 C27.1372266,14.9027344 27.6396094,14.8475391 27.8405859,14.8475391 C28.0415625,14.8475391 28.5439453,14.9027344 28.8667969,15.4132031 C30.2429297,17.5897266 30.9701953,19.5626953 30.9701953,21.1194141 C30.9701953,22.8564844 30.0689063,24.8527734 29.0395312,26.5437891 L24.8448047,22.3490625 C24.7592578,21.9302344 24.7110938,21.5178516 24.7110938,21.1194141 C24.7110938,19.5628125 25.4383594,17.5896094 26.814375,15.4133203 Z M19.6862109,36.4794141 C18.2823047,34.57875 16.5566016,31.6778906 16.5566016,29.2741406 C16.5564844,27.7174219 17.28375,25.7443359 18.6598828,23.5680469 C18.9827344,23.0574609 19.4852344,23.0022656 19.6860938,23.0022656 C19.8870703,23.0022656 20.3895703,23.0574609 20.7123047,23.5679297 C22.0884375,25.7444531 22.8157031,27.7174219 22.8157031,29.2741406 C22.8157031,31.6782422 21.0895312,34.5793359 19.6862109,36.4794141 Z M35.3932031,40.3011328 C33.2166797,41.6771484 31.2435937,42.4045313 29.6869922,42.4045313 C27.2828906,42.4045313 24.3817969,40.6784766 22.4817187,39.2749219 C24.3823828,37.8710156 27.2832422,36.1453125 29.6869922,36.1453125 C31.2434766,36.1453125 33.2166797,36.8726953 35.3932031,38.2487109 C35.9036719,38.5714453 35.9588672,39.0739453 35.9588672,39.2748047 C35.9588672,39.4760156 35.9036719,39.9783984 35.3932031,40.3011328 Z M37.8417188,34.2500391 C37.4432813,34.2500391 37.0310156,34.2017578 36.6119531,34.1163281 L32.4172266,29.9216016 C34.1082422,28.8919922 36.1046484,27.9909375 37.8416016,27.9909375 C39.3982031,27.9909375 41.3714063,28.7183203 43.5478125,30.0943359 C44.0582813,30.4170703 44.1134766,30.9195703 44.1134766,31.1204297 C44.1134766,31.3214062 44.0582813,31.8237891 43.5478125,32.1466406 C41.3714063,33.5225391 39.3983203,34.2500391 37.8417188,34.2500391 Z" id="Shape"></path>
                </g>
            </g>
        </g>
    </g>
</svg>