<svg xmlns="http://www.w3.org/2000/svg" xmlns:xlink="http://www.w3.org/1999/xlink" width="31" height="31" viewBox="0 0 31 31"><defs><path id="a" d="M17.507 9.639a7.842 7.842 0 0 0-7.855 7.854 7.842 7.842 0 0 0 7.855 7.855 7.842 7.842 0 0 0 7.854-7.855 7.842 7.842 0 0 0-7.854-7.854zm0 12.96a5.116 5.116 0 0 1-5.107-5.106 5.111 5.111 0 0 1 5.107-5.106 5.111 5.111 0 0 1 5.106 5.106 5.116 5.116 0 0 1-5.106 5.107zM27.515 9.318c0 1.019-.82 1.832-1.832 1.832a1.832 1.832 0 1 1 1.832-1.832zm5.202 1.86c-.116-2.454-.677-4.628-2.475-6.42-1.79-1.79-3.965-2.35-6.419-2.474-2.53-.143-10.11-.143-12.64 0-2.447.116-4.62.677-6.418 2.468S2.413 8.716 2.29 11.17c-.144 2.53-.144 10.11 0 12.64.116 2.454.677 4.628 2.475 6.419 1.797 1.79 3.964 2.351 6.419 2.474 2.529.144 10.11.144 12.64 0 2.453-.116 4.627-.677 6.418-2.474 1.791-1.791 2.352-3.965 2.475-6.42.143-2.529.143-10.103 0-12.632zm-3.268 15.346a5.17 5.17 0 0 1-2.912 2.913c-2.016.8-6.802.615-9.03.615-2.229 0-7.02.178-9.03-.615a5.17 5.17 0 0 1-2.913-2.913c-.8-2.016-.615-6.801-.615-9.03 0-2.228-.178-7.02.615-9.03A5.17 5.17 0 0 1 8.477 5.55c2.016-.8 6.801-.615 9.03-.615 2.228 0 7.02-.178 9.03.615a5.17 5.17 0 0 1 2.912 2.912c.8 2.016.615 6.802.615 9.03 0 2.229.185 7.02-.615 9.03z"/></defs><g fill="none" fill-rule="evenodd" transform="translate(-2 -2)"><mask id="b" fill="#fff"><use xlink:href="#a"/></mask><g fill="#FFF" mask="url(#b)"><path d="M0 0h35v35H0z"/></g></g></svg>