<svg xmlns="http://www.w3.org/2000/svg" xmlns:xlink="http://www.w3.org/1999/xlink" width="31" height="31" viewBox="0 0 31 31"><defs><path id="a" d="M2.187 2.187v30.626h30.626V2.187H2.187zM27.631 9.44l-1.64 1.573a.482.482 0 0 0-.185.458v11.573a.47.47 0 0 0 .184.458l1.607 1.572v.349H19.53v-.335l1.661-1.613c.164-.164.164-.212.164-.458v-9.359l-4.62 11.73h-.623l-5.38-11.73v7.862a1.08 1.08 0 0 0 .301.902l2.16 2.618v.349H7.055v-.349l2.16-2.618c.232-.24.335-.574.28-.902v-9.092a.78.78 0 0 0-.26-.67L7.315 9.44v-.348h5.967l4.608 10.117 4.053-10.11h5.688v.341z"/></defs><g fill="none" fill-rule="evenodd" transform="translate(-2 -2)"><mask id="b" fill="#fff"><use xlink:href="#a"/></mask><g fill="#FFF" mask="url(#b)"><path d="M0 0h35v35H0z"/></g></g></svg>