<?xml version="1.0" encoding="UTF-8"?>
<svg width="65px" height="66px" viewBox="0 0 65 66" version="1.1" xmlns="http://www.w3.org/2000/svg" xmlns:xlink="http://www.w3.org/1999/xlink">
    <!-- Generator: Sketch 60 (88103) - https://sketch.com -->
    <title>milk-bottle</title>
    <desc>Created with Sketch.</desc>
    <g id="Page-1" stroke="none" stroke-width="1" fill="none" fill-rule="evenodd">
        <g id="quote_allergies" transform="translate(-1157.000000, -388.000000)">
            <g id="button_dairy" transform="translate(1090.000000, 362.000000)">
                <g id="milk-bottle" transform="translate(69.000000, 28.000000)">
                    <path d="M58.2035514,20.8690638 L45.4785047,9.38914894 L45.4785047,6.74468085 L46.1794393,6.74468085 C47.3407477,6.74468085 48.282243,6.31612766 48.282243,5.78723404 L48.282243,1.95744681 C48.282243,1.42855319 47.3407477,1 46.1794393,1 L15.8205607,1 C14.6592523,1 13.717757,1.42855319 13.717757,1.95744681 L13.717757,5.78723404 C13.717757,6.31612766 14.6592523,6.74468085 15.8205607,6.74468085 L16.5214953,6.74468085 L16.5214953,9.38914894 L3.7964486,20.8690638 C2.25327103,22.2611915 1.04429907,24.5733617 1.04429907,26.1328511 L1.04429907,57.4893617 C1.04429907,59.4250638 4.50299065,61 8.75457944,61 L53.2451402,61 C57.496729,61 60.9554206,59.4250638 60.9554206,57.4893617 L60.9554206,26.1328511 C60.9554206,24.573234 59.746729,22.2611915 58.2035514,20.8690638 Z M17.9233645,2.91489362 L44.0763551,2.91489362 L44.0763551,4.82978723 L17.9233645,4.82978723 L17.9233645,2.91489362 Z M20.5016822,10.048383 C20.65,9.91459574 20.7271028,9.76689362 20.7271028,9.61702128 L20.7271028,6.74468085 L41.2726168,6.74468085 L41.2726168,9.61702128 C41.2726168,9.76689362 41.3497196,9.91459574 41.4980374,10.048383 L49.5007477,17.2679149 C47.9836449,17.4918298 46.9201869,17.8529787 45.9997196,18.1662553 C44.7514953,18.591234 43.8495327,18.8981277 41.8386916,18.8981277 C39.8278505,18.8981277 38.9258879,18.591234 37.6776636,18.1662553 C36.2208411,17.6704255 34.4076636,17.0531915 30.9983178,17.0531915 C27.5892523,17.0531915 25.7763551,17.6704255 24.3195327,18.166383 C23.0715888,18.591234 22.1699065,18.8981277 20.1593458,18.8981277 C18.148785,18.8981277 17.2471028,18.591234 15.9991589,18.166383 C15.078972,17.8531064 14.015514,17.4919574 12.4986916,17.2680426 L20.5016822,10.048383 L20.5016822,10.048383 Z M56.7498131,57.4893617 C56.7498131,58.3693191 55.177757,59.0851064 53.2451402,59.0851064 L8.75485981,59.0851064 C6.82224299,59.0851064 5.25018692,58.3693191 5.25018692,57.4893617 L5.25018692,26.1328511 C5.25018692,24.8723404 6.30383178,22.8569787 7.55121495,21.7316596 L10.5613084,19.0162128 C11.7683178,19.1179574 12.5236449,19.3739149 13.4814019,19.6998298 C14.9379439,20.1957872 16.7511215,20.8130213 20.1599065,20.8130213 C23.5686916,20.8130213 25.3818692,20.1957872 26.8384112,19.6998298 C28.0863551,19.2749787 28.9880374,18.9680851 30.9985981,18.9680851 C33.0094393,18.9680851 33.9114019,19.2749787 35.1596262,19.6999574 C36.6164486,20.1959149 38.4296262,20.8130213 41.8386916,20.8130213 C45.2480374,20.8130213 47.0609346,20.1957872 48.5180374,19.6999574 C49.4757944,19.3739149 50.2314019,19.1179574 51.4386916,19.0162128 L54.448785,21.7317872 C55.6958879,22.8568511 56.7498131,24.8723404 56.7498131,26.1328511 L56.7498131,57.4893617 L56.7498131,57.4893617 Z" id="Shape" fill="#000000" fill-rule="nonzero"></path>
                    <path d="M11.5585981,51.4255319 C10.3972897,51.4255319 9.45579439,51.8540851 9.45579439,52.3829787 L9.45579439,56.212766 C9.45579439,56.7416596 10.3972897,57.1702128 11.5585981,57.1702128 C12.7199065,57.1702128 13.6614019,56.7416596 13.6614019,56.212766 L13.6614019,52.3829787 C13.6614019,51.8540851 12.7199065,51.4255319 11.5585981,51.4255319 Z" id="Path" fill="#000000" fill-rule="nonzero"></path>
                    <path d="M14.1304673,22.1713191 C13.0936449,21.9331064 11.8291589,22.1225532 11.3057009,22.5945106 C10.3720561,23.4368085 9.45579439,25.1893191 9.45579439,26.1328511 L9.45579439,48.5531915 C9.45579439,49.0820851 10.3972897,49.5106383 11.5585981,49.5106383 C12.7199065,49.5106383 13.6614019,49.0820851 13.6614019,48.5531915 L13.6614019,26.1328511 C13.6614019,25.4854894 14.4195327,24.0352766 15.0601869,23.4574894 C15.5833645,22.9854043 15.1670093,22.4095319 14.1304673,22.1713191 Z" id="Path" fill="#000000" fill-rule="nonzero"></path>
                    <path d="M27.035514,10.5744681 L34.9642056,10.5744681 C36.125514,10.5744681 37.0670093,10.1459149 37.0670093,9.61702128 C37.0670093,9.08812766 36.125514,8.65957447 34.9642056,8.65957447 L27.035514,8.65957447 C25.8742056,8.65957447 24.9327103,9.08812766 24.9327103,9.61702128 C24.9327103,10.1459149 25.8742056,10.5744681 27.035514,10.5744681 Z" id="Path" fill="#000000" fill-rule="nonzero"></path>
                    <line x1="1" y1="1" x2="60.5" y2="61.5" id="Line" stroke="#212021" stroke-width="3" stroke-linecap="square"></line>
                </g>
            </g>
        </g>
    </g>
</svg>