<?xml version="1.0" encoding="UTF-8"?>
<svg width="209px" height="130px" viewBox="0 0 209 130" version="1.1" xmlns="http://www.w3.org/2000/svg" xmlns:xlink="http://www.w3.org/1999/xlink">
    <!-- Generator: Sketch 60 (88103) - https://sketch.com -->
    <title>food</title>
    <desc>Created with Sketch.</desc>
    <g id="Page-1" stroke="none" stroke-width="1" fill="none" fill-rule="evenodd">
        <g id="quote_type_service" transform="translate(-841.000000, -394.000000)" fill="#212021" fill-rule="nonzero">
            <g id="button_multiple_service" transform="translate(820.000000, 364.000000)">
                <g id="food" transform="translate(21.000000, 30.000000)">
                    <g transform="translate(129.000000, 50.000000)">
                        <path d="M24.4188386,26.4318837 C24.6783412,26.7188499 25.0188624,26.8630067 25.3599927,26.8630067 C25.7005139,26.8630067 26.0410349,26.7188499 26.3005377,26.4318837 C26.8207613,25.8566038 26.8207613,24.9263212 26.3005377,24.3510413 C24.9500272,22.8562569 24.9500272,20.4251272 26.3005377,18.930343 C27.4585532,17.6497727 28.0969542,15.9488577 28.0969542,14.1388145 C28.0969542,12.3287715 27.4597716,10.6271827 26.3005377,9.34728623 C25.7803139,8.77133276 24.9390622,8.77133276 24.4188386,9.34728623 C23.8986148,9.92256594 23.8986148,10.8528487 24.4188386,11.4274549 C25.0736868,12.1516069 25.4361378,13.1142237 25.4361378,14.1381409 C25.4361378,15.1627317 25.0749052,16.124675 24.4188386,16.848827 C22.0303172,19.4901291 22.0303172,23.7905814 24.4188386,26.4318837 Z" id="Path"></path>
                        <path d="M53.6951289,26.4318837 C53.9546317,26.7188499 54.2951529,26.8630067 54.6356739,26.8630067 C54.9768042,26.8630067 55.3173254,26.7188499 55.5768282,26.4318837 C56.0970518,25.8566038 56.0970518,24.9263212 55.5768282,24.3510413 C54.2263175,22.8562569 54.2263175,20.4251272 55.5768282,18.930343 C56.7342346,17.6497727 57.3732447,15.9488577 57.3732447,14.1388145 C57.3732447,12.3287715 56.7360619,10.6271827 55.5768282,9.34728623 C55.0566044,8.77133276 54.2153527,8.77133276 53.6951289,9.34728623 C53.1749052,9.92256594 53.1749052,10.8528487 53.6951289,11.4274549 C54.3499773,12.1516069 54.7118192,13.1142237 54.7118192,14.1381409 C54.7118192,15.1627317 54.3511957,16.124675 53.6951289,16.848827 C51.3066076,19.4901291 51.3066076,23.7905814 53.6951289,26.4318837 L53.6951289,26.4318837 Z" id="Path"></path>
                        <path d="M39.0569837,17.6026187 C39.3164865,17.8895849 39.6576168,18.0337417 39.9981379,18.0337417 C40.338659,18.0337417 40.6791802,17.8895849 40.9386829,17.6026187 C41.4595158,17.0273388 41.4595158,16.0970562 40.9386829,15.5217763 C39.5881724,14.0269921 39.5881724,11.5958624 40.9386829,10.1004042 C42.0966984,8.82050786 42.7350994,7.11891906 42.7350994,5.30887591 C42.7350994,3.49950653 42.0979168,1.79791773 40.9386829,0.518021225 C40.4184592,-0.0579322436 39.5772074,-0.0579322436 39.0575929,0.518021225 C38.5367601,1.09330111 38.5367601,2.02291014 39.0575929,2.59818985 C39.7118321,3.32234186 40.074283,4.28495871 40.074283,5.30887591 C40.074283,6.33279312 39.7136595,7.29541014 39.0575929,8.01956198 C36.6684625,10.6608641 36.6684625,14.9613164 39.0569837,17.6026187 L39.0569837,17.6026187 Z" id="Path"></path>
                        <path d="M33.7274319,37.9172706 C33.8242885,37.9172706 33.9229726,37.905819 34.0216566,37.8822419 C35.9350323,37.405312 37.9135881,37.1634789 39.9049362,37.1634789 L39.9219927,37.1634789 C40.6566413,37.1634789 41.2524009,36.5060163 41.2524009,35.6936189 C41.2524009,34.8798742 40.6578595,34.2210642 39.9219927,34.2210642 C39.9165103,34.2210642 39.9098095,34.2210642 39.9031087,34.2210642 C37.716829,34.2210642 35.5409049,34.487148 33.4362527,35.011232 C32.7186608,35.1890703 32.2690997,35.9765434 32.4299183,36.7694056 C32.5712437,37.4538134 33.1188797,37.9172706 33.7274319,37.9172706 Z" id="Path"></path>
                        <path d="M13.0689459,62.1558159 C13.1505734,62.1733302 13.2303736,62.1807402 13.3083462,62.1807402 C13.9394373,62.1807402 14.4998657,61.6829278 14.6168246,60.9735957 C15.9996206,52.5889263 20.5689394,45.1278033 26.8408638,41.0193355 C27.472564,40.6064006 27.6821155,39.7023894 27.3080904,39.0031618 C26.932847,38.3046078 26.11718,38.0735527 25.4848707,38.4871615 C18.5593163,43.023384 13.5191159,51.2322361 11.9992585,60.4441226 C11.8664615,61.2450685 12.3452621,62.0096381 13.0689459,62.1558159 Z" id="Path"></path>
                        <path d="M74.0204038,60.1544619 C71.6093434,44.495265 60.5707321,32.0533238 46.5179909,29.0395043 C46.541139,28.8044076 46.575252,28.5672899 46.575252,28.3335403 C46.575252,24.2762686 43.5909711,20.9754827 39.9219927,20.9754827 C36.2530144,20.9754827 33.2681242,24.2762686 33.2681242,28.3335403 C33.2681242,28.5672899 33.3016281,28.8044076 33.3253854,29.0395043 C19.2726442,32.0533238 8.23464207,44.495265 5.82297258,60.1544619 C3.04215129,61.8951212 0,64.4569351 0,67.3313131 C0,74.8139922 20.6420387,79.83927 39.9219927,79.83927 C59.2013376,79.83927 79.8439855,74.8139922 79.8439855,67.3313131 C79.8439855,64.4569351 76.8018342,61.8951212 74.0204038,60.1544619 Z M35.9380781,28.5874989 C35.9325956,28.5019478 35.9295499,28.4170704 35.9295499,28.3342141 C35.9295499,25.9003897 37.7210931,23.9192447 39.9219927,23.9192447 C42.1228924,23.9192447 43.9144356,25.9003897 43.9144356,28.3342141 C43.9144356,28.4184178 43.9119991,28.5019478 43.9065165,28.5874989 C43.843773,28.5800889 43.7810294,28.5773944 43.7201133,28.5699844 C43.2626331,28.5140731 42.8014981,28.4743291 42.3385355,28.4386266 C42.1685795,28.4258277 41.9992326,28.4062923 41.8292767,28.3961879 C41.1981856,28.357791 40.5634395,28.3355613 39.9238203,28.3355613 C39.2835917,28.3355613 38.6488458,28.357791 38.0177545,28.3961879 C37.8477987,28.4062923 37.6784518,28.4258277 37.5084959,28.4386266 C37.0455333,28.4743291 36.5850072,28.5154204 36.126918,28.5699844 C36.0629561,28.5773944 36.0002124,28.5787416 35.9380781,28.5874989 L35.9380781,28.5874989 Z M35.129721,31.6754176 C35.8442671,31.5575323 36.5630776,31.4719813 37.2843245,31.4073129 C37.4323506,31.3938403 37.5797677,31.3823886 37.7271847,31.3709368 C39.1885626,31.2618088 40.6566413,31.2618088 42.1174099,31.3709368 C42.2654362,31.3823886 42.4128531,31.3938403 42.5608793,31.4073129 C43.2821263,31.4719813 44.0009366,31.5575323 44.7148736,31.6754176 C58.5787749,33.9927039 69.5424593,46.2022428 71.53198,61.5717789 C71.5928962,62.0439933 71.6422382,62.5175551 71.6860978,62.9917904 C71.7007177,63.1548087 71.72082,63.3164798 71.7342216,63.4801719 C71.7860002,64.1315719 71.8243774,64.7836455 71.8432613,65.4357191 C50.937456,70.7937699 28.908357,70.7937699 8.00255151,65.4357191 C8.0226538,64.7836455 8.05981275,64.1315719 8.11159142,63.4801719 C8.12499289,63.3164798 8.14387693,63.1548087 8.15910592,62.9917904 C8.20296553,62.5162077 8.25230771,62.0419724 8.31383296,61.5717789 C10.3027445,46.2022428 21.266429,33.9913565 35.129721,31.6754176 Z M39.9219927,76.8961817 C17.1716469,76.8961817 2.66142553,70.6139107 2.66142553,67.3313131 C2.66142553,66.767485 3.29190748,65.5259854 5.4081338,63.9059059 C5.40265123,63.989436 5.40508788,64.0716187 5.39960546,64.1558226 C5.35452761,64.9621573 5.32285107,65.7745547 5.32285107,66.5957094 L5.32285107,67.7550263 L6.34319623,68.0271725 C17.3275922,70.9412949 28.6250971,72.4010506 39.9213836,72.4010506 C51.2182793,72.4010506 62.5163933,70.942642 73.50018,68.0271725 L74.5205251,67.7550263 L74.5205251,66.5957094 C74.5205251,65.7745547 74.4888487,64.9635047 74.4431618,64.1558226 C74.4382885,64.0716187 74.440725,63.989436 74.4352426,63.9059059 C76.5514689,65.5259854 77.1819508,66.767485 77.1819508,67.3313131 C77.1819508,70.6139107 62.6723386,76.8961817 39.9219927,76.8961817 Z" id="Shape"></path>
                    </g>
                    <g transform="translate(0.000000, 50.000000)">
                        <path d="M24.4188386,26.4318837 C24.6783412,26.7188499 25.0188624,26.8630067 25.3599927,26.8630067 C25.7005139,26.8630067 26.0410349,26.7188499 26.3005377,26.4318837 C26.8207613,25.8566038 26.8207613,24.9263212 26.3005377,24.3510413 C24.9500272,22.8562569 24.9500272,20.4251272 26.3005377,18.930343 C27.4585532,17.6497727 28.0969542,15.9488577 28.0969542,14.1388145 C28.0969542,12.3287715 27.4597716,10.6271827 26.3005377,9.34728623 C25.7803139,8.77133276 24.9390622,8.77133276 24.4188386,9.34728623 C23.8986148,9.92256594 23.8986148,10.8528487 24.4188386,11.4274549 C25.0736868,12.1516069 25.4361378,13.1142237 25.4361378,14.1381409 C25.4361378,15.1627317 25.0749052,16.124675 24.4188386,16.848827 C22.0303172,19.4901291 22.0303172,23.7905814 24.4188386,26.4318837 Z" id="Path"></path>
                        <path d="M53.6951289,26.4318837 C53.9546317,26.7188499 54.2951529,26.8630067 54.6356739,26.8630067 C54.9768042,26.8630067 55.3173254,26.7188499 55.5768282,26.4318837 C56.0970518,25.8566038 56.0970518,24.9263212 55.5768282,24.3510413 C54.2263175,22.8562569 54.2263175,20.4251272 55.5768282,18.930343 C56.7342346,17.6497727 57.3732447,15.9488577 57.3732447,14.1388145 C57.3732447,12.3287715 56.7360619,10.6271827 55.5768282,9.34728623 C55.0566044,8.77133276 54.2153527,8.77133276 53.6951289,9.34728623 C53.1749052,9.92256594 53.1749052,10.8528487 53.6951289,11.4274549 C54.3499773,12.1516069 54.7118192,13.1142237 54.7118192,14.1381409 C54.7118192,15.1627317 54.3511957,16.124675 53.6951289,16.848827 C51.3066076,19.4901291 51.3066076,23.7905814 53.6951289,26.4318837 L53.6951289,26.4318837 Z" id="Path"></path>
                        <path d="M39.0569837,17.6026187 C39.3164865,17.8895849 39.6576168,18.0337417 39.9981379,18.0337417 C40.338659,18.0337417 40.6791802,17.8895849 40.9386829,17.6026187 C41.4595158,17.0273388 41.4595158,16.0970562 40.9386829,15.5217763 C39.5881724,14.0269921 39.5881724,11.5958624 40.9386829,10.1004042 C42.0966984,8.82050786 42.7350994,7.11891906 42.7350994,5.30887591 C42.7350994,3.49950653 42.0979168,1.79791773 40.9386829,0.518021225 C40.4184592,-0.0579322436 39.5772074,-0.0579322436 39.0575929,0.518021225 C38.5367601,1.09330111 38.5367601,2.02291014 39.0575929,2.59818985 C39.7118321,3.32234186 40.074283,4.28495871 40.074283,5.30887591 C40.074283,6.33279312 39.7136595,7.29541014 39.0575929,8.01956198 C36.6684625,10.6608641 36.6684625,14.9613164 39.0569837,17.6026187 L39.0569837,17.6026187 Z" id="Path"></path>
                        <path d="M33.7274319,37.9172706 C33.8242885,37.9172706 33.9229726,37.905819 34.0216566,37.8822419 C35.9350323,37.405312 37.9135881,37.1634789 39.9049362,37.1634789 L39.9219927,37.1634789 C40.6566413,37.1634789 41.2524009,36.5060163 41.2524009,35.6936189 C41.2524009,34.8798742 40.6578595,34.2210642 39.9219927,34.2210642 C39.9165103,34.2210642 39.9098095,34.2210642 39.9031087,34.2210642 C37.716829,34.2210642 35.5409049,34.487148 33.4362527,35.011232 C32.7186608,35.1890703 32.2690997,35.9765434 32.4299183,36.7694056 C32.5712437,37.4538134 33.1188797,37.9172706 33.7274319,37.9172706 Z" id="Path"></path>
                        <path d="M13.0689459,62.1558159 C13.1505734,62.1733302 13.2303736,62.1807402 13.3083462,62.1807402 C13.9394373,62.1807402 14.4998657,61.6829278 14.6168246,60.9735957 C15.9996206,52.5889263 20.5689394,45.1278033 26.8408638,41.0193355 C27.472564,40.6064006 27.6821155,39.7023894 27.3080904,39.0031618 C26.932847,38.3046078 26.11718,38.0735527 25.4848707,38.4871615 C18.5593163,43.023384 13.5191159,51.2322361 11.9992585,60.4441226 C11.8664615,61.2450685 12.3452621,62.0096381 13.0689459,62.1558159 Z" id="Path"></path>
                        <path d="M74.0204038,60.1544619 C71.6093434,44.495265 60.5707321,32.0533238 46.5179909,29.0395043 C46.541139,28.8044076 46.575252,28.5672899 46.575252,28.3335403 C46.575252,24.2762686 43.5909711,20.9754827 39.9219927,20.9754827 C36.2530144,20.9754827 33.2681242,24.2762686 33.2681242,28.3335403 C33.2681242,28.5672899 33.3016281,28.8044076 33.3253854,29.0395043 C19.2726442,32.0533238 8.23464207,44.495265 5.82297258,60.1544619 C3.04215129,61.8951212 0,64.4569351 0,67.3313131 C0,74.8139922 20.6420387,79.83927 39.9219927,79.83927 C59.2013376,79.83927 79.8439855,74.8139922 79.8439855,67.3313131 C79.8439855,64.4569351 76.8018342,61.8951212 74.0204038,60.1544619 Z M35.9380781,28.5874989 C35.9325956,28.5019478 35.9295499,28.4170704 35.9295499,28.3342141 C35.9295499,25.9003897 37.7210931,23.9192447 39.9219927,23.9192447 C42.1228924,23.9192447 43.9144356,25.9003897 43.9144356,28.3342141 C43.9144356,28.4184178 43.9119991,28.5019478 43.9065165,28.5874989 C43.843773,28.5800889 43.7810294,28.5773944 43.7201133,28.5699844 C43.2626331,28.5140731 42.8014981,28.4743291 42.3385355,28.4386266 C42.1685795,28.4258277 41.9992326,28.4062923 41.8292767,28.3961879 C41.1981856,28.357791 40.5634395,28.3355613 39.9238203,28.3355613 C39.2835917,28.3355613 38.6488458,28.357791 38.0177545,28.3961879 C37.8477987,28.4062923 37.6784518,28.4258277 37.5084959,28.4386266 C37.0455333,28.4743291 36.5850072,28.5154204 36.126918,28.5699844 C36.0629561,28.5773944 36.0002124,28.5787416 35.9380781,28.5874989 L35.9380781,28.5874989 Z M35.129721,31.6754176 C35.8442671,31.5575323 36.5630776,31.4719813 37.2843245,31.4073129 C37.4323506,31.3938403 37.5797677,31.3823886 37.7271847,31.3709368 C39.1885626,31.2618088 40.6566413,31.2618088 42.1174099,31.3709368 C42.2654362,31.3823886 42.4128531,31.3938403 42.5608793,31.4073129 C43.2821263,31.4719813 44.0009366,31.5575323 44.7148736,31.6754176 C58.5787749,33.9927039 69.5424593,46.2022428 71.53198,61.5717789 C71.5928962,62.0439933 71.6422382,62.5175551 71.6860978,62.9917904 C71.7007177,63.1548087 71.72082,63.3164798 71.7342216,63.4801719 C71.7860002,64.1315719 71.8243774,64.7836455 71.8432613,65.4357191 C50.937456,70.7937699 28.908357,70.7937699 8.00255151,65.4357191 C8.0226538,64.7836455 8.05981275,64.1315719 8.11159142,63.4801719 C8.12499289,63.3164798 8.14387693,63.1548087 8.15910592,62.9917904 C8.20296553,62.5162077 8.25230771,62.0419724 8.31383296,61.5717789 C10.3027445,46.2022428 21.266429,33.9913565 35.129721,31.6754176 Z M39.9219927,76.8961817 C17.1716469,76.8961817 2.66142553,70.6139107 2.66142553,67.3313131 C2.66142553,66.767485 3.29190748,65.5259854 5.4081338,63.9059059 C5.40265123,63.989436 5.40508788,64.0716187 5.39960546,64.1558226 C5.35452761,64.9621573 5.32285107,65.7745547 5.32285107,66.5957094 L5.32285107,67.7550263 L6.34319623,68.0271725 C17.3275922,70.9412949 28.6250971,72.4010506 39.9213836,72.4010506 C51.2182793,72.4010506 62.5163933,70.942642 73.50018,68.0271725 L74.5205251,67.7550263 L74.5205251,66.5957094 C74.5205251,65.7745547 74.4888487,64.9635047 74.4431618,64.1558226 C74.4382885,64.0716187 74.440725,63.989436 74.4352426,63.9059059 C76.5514689,65.5259854 77.1819508,66.767485 77.1819508,67.3313131 C77.1819508,70.6139107 62.6723386,76.8961817 39.9219927,76.8961817 Z" id="Shape"></path>
                    </g>
                    <g transform="translate(65.000000, 0.000000)">
                        <path d="M24.4188386,26.4318837 C24.6783412,26.7188499 25.0188624,26.8630067 25.3599927,26.8630067 C25.7005139,26.8630067 26.0410349,26.7188499 26.3005377,26.4318837 C26.8207613,25.8566038 26.8207613,24.9263212 26.3005377,24.3510413 C24.9500272,22.8562569 24.9500272,20.4251272 26.3005377,18.930343 C27.4585532,17.6497727 28.0969542,15.9488577 28.0969542,14.1388145 C28.0969542,12.3287715 27.4597716,10.6271827 26.3005377,9.34728623 C25.7803139,8.77133276 24.9390622,8.77133276 24.4188386,9.34728623 C23.8986148,9.92256594 23.8986148,10.8528487 24.4188386,11.4274549 C25.0736868,12.1516069 25.4361378,13.1142237 25.4361378,14.1381409 C25.4361378,15.1627317 25.0749052,16.124675 24.4188386,16.848827 C22.0303172,19.4901291 22.0303172,23.7905814 24.4188386,26.4318837 Z" id="Path"></path>
                        <path d="M53.6951289,26.4318837 C53.9546317,26.7188499 54.2951529,26.8630067 54.6356739,26.8630067 C54.9768042,26.8630067 55.3173254,26.7188499 55.5768282,26.4318837 C56.0970518,25.8566038 56.0970518,24.9263212 55.5768282,24.3510413 C54.2263175,22.8562569 54.2263175,20.4251272 55.5768282,18.930343 C56.7342346,17.6497727 57.3732447,15.9488577 57.3732447,14.1388145 C57.3732447,12.3287715 56.7360619,10.6271827 55.5768282,9.34728623 C55.0566044,8.77133276 54.2153527,8.77133276 53.6951289,9.34728623 C53.1749052,9.92256594 53.1749052,10.8528487 53.6951289,11.4274549 C54.3499773,12.1516069 54.7118192,13.1142237 54.7118192,14.1381409 C54.7118192,15.1627317 54.3511957,16.124675 53.6951289,16.848827 C51.3066076,19.4901291 51.3066076,23.7905814 53.6951289,26.4318837 L53.6951289,26.4318837 Z" id="Path"></path>
                        <path d="M39.0569837,17.6026187 C39.3164865,17.8895849 39.6576168,18.0337417 39.9981379,18.0337417 C40.338659,18.0337417 40.6791802,17.8895849 40.9386829,17.6026187 C41.4595158,17.0273388 41.4595158,16.0970562 40.9386829,15.5217763 C39.5881724,14.0269921 39.5881724,11.5958624 40.9386829,10.1004042 C42.0966984,8.82050786 42.7350994,7.11891906 42.7350994,5.30887591 C42.7350994,3.49950653 42.0979168,1.79791773 40.9386829,0.518021225 C40.4184592,-0.0579322436 39.5772074,-0.0579322436 39.0575929,0.518021225 C38.5367601,1.09330111 38.5367601,2.02291014 39.0575929,2.59818985 C39.7118321,3.32234186 40.074283,4.28495871 40.074283,5.30887591 C40.074283,6.33279312 39.7136595,7.29541014 39.0575929,8.01956198 C36.6684625,10.6608641 36.6684625,14.9613164 39.0569837,17.6026187 L39.0569837,17.6026187 Z" id="Path"></path>
                        <path d="M33.7274319,37.9172706 C33.8242885,37.9172706 33.9229726,37.905819 34.0216566,37.8822419 C35.9350323,37.405312 37.9135881,37.1634789 39.9049362,37.1634789 L39.9219927,37.1634789 C40.6566413,37.1634789 41.2524009,36.5060163 41.2524009,35.6936189 C41.2524009,34.8798742 40.6578595,34.2210642 39.9219927,34.2210642 C39.9165103,34.2210642 39.9098095,34.2210642 39.9031087,34.2210642 C37.716829,34.2210642 35.5409049,34.487148 33.4362527,35.011232 C32.7186608,35.1890703 32.2690997,35.9765434 32.4299183,36.7694056 C32.5712437,37.4538134 33.1188797,37.9172706 33.7274319,37.9172706 Z" id="Path"></path>
                        <path d="M13.0689459,62.1558159 C13.1505734,62.1733302 13.2303736,62.1807402 13.3083462,62.1807402 C13.9394373,62.1807402 14.4998657,61.6829278 14.6168246,60.9735957 C15.9996206,52.5889263 20.5689394,45.1278033 26.8408638,41.0193355 C27.472564,40.6064006 27.6821155,39.7023894 27.3080904,39.0031618 C26.932847,38.3046078 26.11718,38.0735527 25.4848707,38.4871615 C18.5593163,43.023384 13.5191159,51.2322361 11.9992585,60.4441226 C11.8664615,61.2450685 12.3452621,62.0096381 13.0689459,62.1558159 Z" id="Path"></path>
                        <path d="M74.0204038,60.1544619 C71.6093434,44.495265 60.5707321,32.0533238 46.5179909,29.0395043 C46.541139,28.8044076 46.575252,28.5672899 46.575252,28.3335403 C46.575252,24.2762686 43.5909711,20.9754827 39.9219927,20.9754827 C36.2530144,20.9754827 33.2681242,24.2762686 33.2681242,28.3335403 C33.2681242,28.5672899 33.3016281,28.8044076 33.3253854,29.0395043 C19.2726442,32.0533238 8.23464207,44.495265 5.82297258,60.1544619 C3.04215129,61.8951212 0,64.4569351 0,67.3313131 C0,74.8139922 20.6420387,79.83927 39.9219927,79.83927 C59.2013376,79.83927 79.8439855,74.8139922 79.8439855,67.3313131 C79.8439855,64.4569351 76.8018342,61.8951212 74.0204038,60.1544619 Z M35.9380781,28.5874989 C35.9325956,28.5019478 35.9295499,28.4170704 35.9295499,28.3342141 C35.9295499,25.9003897 37.7210931,23.9192447 39.9219927,23.9192447 C42.1228924,23.9192447 43.9144356,25.9003897 43.9144356,28.3342141 C43.9144356,28.4184178 43.9119991,28.5019478 43.9065165,28.5874989 C43.843773,28.5800889 43.7810294,28.5773944 43.7201133,28.5699844 C43.2626331,28.5140731 42.8014981,28.4743291 42.3385355,28.4386266 C42.1685795,28.4258277 41.9992326,28.4062923 41.8292767,28.3961879 C41.1981856,28.357791 40.5634395,28.3355613 39.9238203,28.3355613 C39.2835917,28.3355613 38.6488458,28.357791 38.0177545,28.3961879 C37.8477987,28.4062923 37.6784518,28.4258277 37.5084959,28.4386266 C37.0455333,28.4743291 36.5850072,28.5154204 36.126918,28.5699844 C36.0629561,28.5773944 36.0002124,28.5787416 35.9380781,28.5874989 L35.9380781,28.5874989 Z M35.129721,31.6754176 C35.8442671,31.5575323 36.5630776,31.4719813 37.2843245,31.4073129 C37.4323506,31.3938403 37.5797677,31.3823886 37.7271847,31.3709368 C39.1885626,31.2618088 40.6566413,31.2618088 42.1174099,31.3709368 C42.2654362,31.3823886 42.4128531,31.3938403 42.5608793,31.4073129 C43.2821263,31.4719813 44.0009366,31.5575323 44.7148736,31.6754176 C58.5787749,33.9927039 69.5424593,46.2022428 71.53198,61.5717789 C71.5928962,62.0439933 71.6422382,62.5175551 71.6860978,62.9917904 C71.7007177,63.1548087 71.72082,63.3164798 71.7342216,63.4801719 C71.7860002,64.1315719 71.8243774,64.7836455 71.8432613,65.4357191 C50.937456,70.7937699 28.908357,70.7937699 8.00255151,65.4357191 C8.0226538,64.7836455 8.05981275,64.1315719 8.11159142,63.4801719 C8.12499289,63.3164798 8.14387693,63.1548087 8.15910592,62.9917904 C8.20296553,62.5162077 8.25230771,62.0419724 8.31383296,61.5717789 C10.3027445,46.2022428 21.266429,33.9913565 35.129721,31.6754176 Z M39.9219927,76.8961817 C17.1716469,76.8961817 2.66142553,70.6139107 2.66142553,67.3313131 C2.66142553,66.767485 3.29190748,65.5259854 5.4081338,63.9059059 C5.40265123,63.989436 5.40508788,64.0716187 5.39960546,64.1558226 C5.35452761,64.9621573 5.32285107,65.7745547 5.32285107,66.5957094 L5.32285107,67.7550263 L6.34319623,68.0271725 C17.3275922,70.9412949 28.6250971,72.4010506 39.9213836,72.4010506 C51.2182793,72.4010506 62.5163933,70.942642 73.50018,68.0271725 L74.5205251,67.7550263 L74.5205251,66.5957094 C74.5205251,65.7745547 74.4888487,64.9635047 74.4431618,64.1558226 C74.4382885,64.0716187 74.440725,63.989436 74.4352426,63.9059059 C76.5514689,65.5259854 77.1819508,66.767485 77.1819508,67.3313131 C77.1819508,70.6139107 62.6723386,76.8961817 39.9219927,76.8961817 Z" id="Shape"></path>
                    </g>
                </g>
            </g>
        </g>
    </g>
</svg>