<?xml version="1.0" encoding="UTF-8"?>
<svg width="60px" height="60px" viewBox="0 0 60 60" version="1.1" xmlns="http://www.w3.org/2000/svg" xmlns:xlink="http://www.w3.org/1999/xlink">
    <!-- Generator: Sketch 60 (88103) - https://sketch.com -->
    <title>noodles</title>
    <desc>Created with Sketch.</desc>
    <g id="Page-1" stroke="none" stroke-width="1" fill="none" fill-rule="evenodd">
        <g id="quote_menu" transform="translate(-836.000000, -394.000000)" fill="#212021" fill-rule="nonzero">
            <g id="buttons" transform="translate(161.000000, 364.000000)">
                <g id="button_chinese" transform="translate(580.000000, 0.000000)">
                    <g id="noodles" transform="translate(95.000000, 30.000000)">
                        <path d="M59.9821472,15.7128906 L59.71344,13.7486049 C59.6461487,13.2556733 59.3925476,12.8199405 58.9993287,12.5227864 C58.6065674,12.2251674 58.1231689,12.1023995 57.6383972,12.1781994 L26.182251,17.0656621 C26.292572,16.0835193 26.5690613,15.483631 26.9215393,14.7233073 C26.9810486,14.594959 27.0423889,14.4568452 27.104187,14.3098958 L55.9538269,5.50688238 C56.4230346,5.36365333 56.8075561,5.04231774 57.0373535,4.60239952 C57.2662354,4.16248143 57.311554,3.65838917 57.164154,3.18359381 L56.5773011,1.29231774 C56.4299011,0.817522381 56.1085511,0.431082619 55.6723022,0.204148095 C55.2360534,-0.0232514286 54.7393799,-0.0618489286 54.2738343,0.0944010714 L45.6761169,2.97898071 C45.2160645,3.13337048 44.9661255,3.63746286 45.118103,4.10528274 C45.2700806,4.57263762 45.7658386,4.82654393 46.2268066,4.67215405 L54.824524,1.7875744 C54.8309326,1.78524929 54.8497009,1.77920381 54.8721314,1.79129464 C54.8954773,1.80292036 54.9009704,1.82198667 54.9028015,1.82803202 L55.4901123,3.7197731 C55.4919434,3.72581845 55.4978943,3.74488464 55.4855346,3.76813619 C55.4736328,3.79138762 55.4548645,3.79696798 55.4489135,3.7988281 L27.8041077,12.234003 C27.8160095,12.1888951 27.8260804,12.1428571 27.8375244,12.0977493 C27.8475952,12.0563617 27.857666,12.015439 27.867279,11.9740513 C27.8846741,11.9005767 27.9016113,11.8271019 27.9180908,11.7531621 C27.9281616,11.7066593 27.9382324,11.6601562 27.9483033,11.6131882 C27.9629517,11.5434338 27.9771423,11.4736793 27.9904174,11.4039249 C28.0014037,11.3490513 28.0119323,11.2937129 28.0220032,11.2379093 C28.0334473,11.1746652 28.0448913,11.1118862 28.0558777,11.0486421 C28.066864,10.984003 28.0773926,10.9184338 28.0874634,10.8528645 C28.0924987,10.8193824 28.0989075,10.7859002 28.1039428,10.7528832 L42.3175049,5.98400298 C42.7775573,5.8296131 43.0274964,5.32505583 42.8755188,4.85770095 C42.7235413,4.38988095 42.2273255,4.13597476 41.7668152,4.29036452 L28.0142212,8.90485488 C27.9185486,8.73651417 27.7922058,8.5849144 27.637024,8.46028643 C27.2332764,8.13709071 26.7008972,8.04129464 26.2129212,8.20545012 L24.7673034,8.69047619 C24.1822815,8.88625369 23.7730407,9.41545762 23.7245179,10.0385975 C23.7158203,10.1488095 23.704834,10.2534412 23.6924743,10.3548177 L21.7593384,11.0035343 C21.6819763,10.8668155 21.5849304,10.7407924 21.4672852,10.6315105 C21.060791,10.2534412 20.4830932,10.1278832 19.9594116,10.3036644 L18.3503723,10.843564 C17.9154968,10.9891183 17.5712585,11.3230096 17.4055481,11.7578125 C17.2975159,12.0405506 17.1711731,12.3163132 17.0471191,12.5841704 L14.9826049,13.2770648 C14.9317932,13.187314 14.8722839,13.1017486 14.8027038,13.0222285 C14.397583,12.5576637 13.7608337,12.3832775 13.1808471,12.57766 L11.4134216,13.1705729 C10.9648132,13.3212426 10.6164551,13.6648995 10.4576111,14.1131882 C10.3683471,14.3633743 10.2914428,14.6172805 10.2218627,14.8739769 L8.24752805,15.5366443 C8.16513059,15.391555 8.05801395,15.2585565 7.92892453,15.1432292 C7.51831055,14.7777157 6.96350098,14.6637835 6.4453125,14.8377046 L4.99694824,15.3236607 C4.42657477,15.515253 4.01824945,16.0323661 3.95645145,16.64109 C3.94500727,16.7545573 3.93493652,16.8698846 3.92578125,16.9866071 L1.99035645,17.6362537 C1.05148312,17.9510788 0.529632539,18.9867001 0.82672125,19.9446614 L0.9635925,20.3850446 C1.12243652,20.8975074 1.48635867,21.2899926 1.93496707,21.5015811 C1.7234802,21.8531436 1.62506109,22.2777157 1.68457031,22.7143787 L1.74728391,23.171968 C1.87316895,24.0904018 2.65686035,24.7637649 3.54858398,24.7637649 C3.62274164,24.7637649 3.69735715,24.7591145 3.77288812,24.749814 L5.5599975,24.5224144 C5.78338617,25.1371838 5.92346191,25.8151971 5.92346191,26.8870907 C5.92346191,28.5407367 5.59158328,29.2578125 5.1315307,30.2506511 C4.84863281,30.8617001 4.5359802,31.5383185 4.29382324,32.4111793 L1.38565066,32.4111793 C0.99472043,32.4111793 0.620269805,32.5799851 0.35797125,32.8738839 C0.0961303125,33.1682477 -0.0320435156,33.5635231 0.00686646094,33.9587983 C0.538330078,39.3633743 2.86285406,49.3373326 12.4456787,55.640346 L12.4456787,57.1661086 C12.4456787,58.6672248 13.6482239,59.8888579 15.1263428,59.8888579 L38.0076599,59.8888579 C39.485321,59.8888579 40.6878662,58.6672248 40.6878662,57.1661086 L40.6878662,55.6338356 C50.2619934,49.3308221 52.5860596,39.361049 53.1175232,33.9583333 C53.156433,33.5635231 53.0282592,33.1682477 52.7659607,32.8738839 C52.5041198,32.5799851 52.1296692,32.4111793 51.7391967,32.4111793 L26.8821716,32.4111793 C26.8954467,32.3823475 26.9078064,32.3549107 26.9215393,32.3251488 C27.4763489,31.1263021 28.167572,29.6344867 28.167572,26.8870907 C28.167572,24.390346 27.5967408,22.9306176 27.0762634,21.7852493 L58.4083557,17.7990142 C58.8945007,17.7371652 59.3266296,17.485584 59.6246338,17.0903088 C59.9230957,16.6954986 60.0498962,16.2062871 59.9821472,15.7128906 L59.9821472,15.7128906 Z M2.63763422,19.8488654 L2.5012207,19.4084821 C2.49114984,19.375465 2.50900266,19.3405879 2.54058844,19.3298921 L3.90563965,18.8718379 C3.90792844,18.9174107 3.91113281,18.9611236 3.91387945,19.0062314 C3.91571039,19.0336681 3.91708371,19.0611049 3.91891477,19.0885417 C3.92349246,19.1536458 3.92807004,19.218285 3.9335632,19.282924 C3.9335632,19.2866443 3.93402094,19.2898995 3.93447879,19.2936198 C3.94042969,19.3666295 3.94592285,19.4401042 3.95324707,19.5121838 L2.71453852,19.890253 C2.68203738,19.9000186 2.64816281,19.8814174 2.63763422,19.8488654 Z M3.55499273,22.9803757 C3.5215759,22.984096 3.49044797,22.9603795 3.48587039,22.9264323 L3.42361453,22.468843 C3.4185791,22.4348958 3.44192508,22.4032738 3.4753418,22.3981585 L4.57534793,22.2274926 C4.57901004,22.2377232 4.58312988,22.2474888 4.58724973,22.2581845 C4.61883539,22.34282 4.65133664,22.4251302 4.68383789,22.5060454 C4.68933105,22.5195312 4.69436648,22.5334821 4.70031738,22.546968 C4.73648074,22.6371838 4.77355957,22.7250744 4.8106384,22.8111049 C4.81155398,22.8138951 4.81292719,22.8171502 4.81430051,22.8199405 L3.55499273,22.9803757 Z M23.9350891,14.8888579 C23.9355469,14.8874629 23.9360046,14.8860677 23.9364623,14.8846726 C24.0275573,14.6112351 24.1278076,14.3563988 24.23172,14.1127232 C24.23172,14.1122582 24.2321777,14.1117931 24.2321777,14.1108631 C24.3360901,13.8676525 24.4436646,13.6356026 24.5494079,13.4072731 C24.5603943,13.3830915 24.5718384,13.358445 24.5828248,13.3342633 C24.599762,13.2975261 24.617157,13.2603237 24.6340943,13.2231213 C24.6469116,13.1956845 24.6592712,13.1682477 24.6720886,13.140346 C24.7036744,13.0705915 24.7357178,13.000372 24.7668457,12.9292225 C24.7709655,12.9199219 24.7750854,12.9101562 24.7796631,12.9003906 C24.8075866,12.8362165 24.8355103,12.7706474 24.8634339,12.7046131 C24.8716736,12.6855469 24.8794556,12.6660156 24.8876953,12.6464844 C24.9179077,12.5730096 24.9476624,12.4986049 24.9769593,12.42234 C24.9838256,12.4051339 24.9897766,12.3874629 24.9966431,12.3702567 C25.019989,12.3079427 25.0428772,12.2446987 25.0653076,12.1805245 C25.0735474,12.155878 25.0822448,12.1312314 25.0909424,12.1061198 C25.1165771,12.03032 25.1412963,11.953125 25.1651002,11.8736049 C25.1737976,11.8452381 25.1820374,11.8159412 25.1902771,11.7866443 C25.2076721,11.7261905 25.2246094,11.6643415 25.2410889,11.6020275 C25.2488708,11.5713356 25.2571106,11.5406436 25.2648926,11.5094867 C25.2854919,11.4253162 25.3051758,11.3388207 25.3234863,11.25 C25.326233,11.2369792 25.3294372,11.2253535 25.3321839,11.2118676 C25.3335572,11.2062871 25.3335572,11.2007069 25.3349304,11.1946614 C25.388031,10.9309895 25.4310608,10.6473214 25.4608154,10.3357514 L26.4294434,10.0106957 C26.4152527,10.1353237 26.4001465,10.2599517 26.3822937,10.3841145 C26.3795471,10.404576 26.3763428,10.4241071 26.3735962,10.4441035 C26.3575745,10.5524554 26.3406373,10.6598773 26.3218689,10.7677642 C26.3168334,10.7979911 26.3117981,10.828218 26.306305,10.8579799 C26.2838745,10.9821429 26.2605286,11.1063058 26.2348938,11.2295387 C26.2335205,11.236049 26.2316895,11.2425595 26.2303161,11.24907 C26.2060547,11.3639323 26.1799622,11.4778645 26.1524964,11.5917969 C26.1437988,11.6276042 26.1351013,11.6629464 26.1264037,11.6987537 C26.0984802,11.810826 26.0696412,11.9224331 26.038971,12.0335751 C26.0353089,12.046596 26.0316468,12.0600819 26.0279846,12.0731026 C25.9954834,12.1875 25.9616088,12.3014323 25.9263611,12.4153645 C25.9194947,12.437686 25.9121705,12.4609375 25.905304,12.4832589 C25.8668518,12.6046317 25.8265686,12.7250744 25.7849121,12.8450521 C25.7821655,12.8534226 25.7794189,12.8613281 25.7762146,12.8692336 C25.7313538,12.9971168 25.6846618,13.124535 25.6352234,13.2505581 C25.6347656,13.2519531 25.6347656,13.2528832 25.6343079,13.2542783 C25.5317688,13.5179501 25.4296875,13.7555804 25.3330993,13.9639137 C24.8400879,15.0283668 24.3745423,16.0337612 24.3745423,18.0854725 C24.3745423,18.0952381 24.375,18.1036086 24.375,18.1129093 L24.375,18.1143043 C24.375,18.217541 24.3768311,18.3179874 24.3795776,18.4165737 C24.3809509,18.4812129 24.3841553,18.5430618 24.3864441,18.6058407 C24.3882751,18.6425781 24.3896484,18.6797805 24.3914795,18.7160529 C24.3951416,18.7881324 24.3997193,18.8588169 24.4047546,18.9285714 C24.4061279,18.9448475 24.4075012,18.9611236 24.4084167,18.9773995 C24.4587708,19.6289062 24.5640564,20.1609002 24.7018432,20.6277902 C24.7032165,20.6333705 24.7050476,20.638951 24.7068786,20.6445312 C24.7544861,20.8049665 24.8057556,20.9584263 24.8602295,21.1058407 C24.8611451,21.107701 24.8620605,21.1100261 24.8625183,21.1118862 C25.0053405,21.498326 25.1673889,21.8503535 25.3330993,22.2084263 C25.8636475,23.3537946 26.4120483,24.5386905 26.4120483,26.8870907 C26.4120483,29.2359561 25.8636475,30.4203869 25.3330993,31.5662202 C25.2076721,31.8377976 25.0790405,32.1144904 24.960022,32.4111793 L23.9630127,32.4111793 C24.1401673,31.8936012 24.3470764,31.4471726 24.5494079,31.0095796 C25.0424194,29.9451264 25.5079651,28.9392671 25.5079651,26.8870907 C25.5079651,24.8353795 25.0424194,23.8295201 24.5494079,22.7646019 C24.3159485,22.2609748 24.0792846,21.7489769 23.8874817,21.1346726 C23.887024,21.1328125 23.8865661,21.1314174 23.8861084,21.1300224 C23.6393737,20.3371465 23.505249,19.4763764 23.4768677,18.4979538 C23.4768677,18.4970238 23.4764099,18.4956287 23.4764099,18.4942336 C23.4727478,18.3621652 23.4709159,18.2263764 23.4709159,18.0859375 C23.470459,16.6861979 23.6654662,15.6998698 23.9350891,14.8888579 Z M20.9788513,32.3251488 C21.5336609,31.1263021 22.2244263,29.6344867 22.2244263,26.8870907 C22.2244263,24.8804874 21.8559265,23.5439918 21.4411927,22.5018601 L22.4597168,22.3725819 C22.6245117,22.797154 22.7984619,23.1733631 22.9605103,23.5239955 C23.4205628,24.516369 23.7524414,25.233445 23.7524414,26.8870907 C23.7524414,28.5407367 23.4205628,29.2578125 22.9605103,30.2506511 C22.6776123,30.8617001 22.3649597,31.5383185 22.1232605,32.4111793 L20.9394837,32.4111793 C20.9527588,32.3818824 20.9651184,32.3544457 20.9788513,32.3251488 L20.9788513,32.3251488 Z M20.6877136,20.8003162 C20.6817627,20.7859002 20.6753541,20.7714844 20.669403,20.7566035 C20.6529236,20.7166108 20.6364441,20.6761533 20.6204224,20.6352307 C20.605774,20.5984933 20.5915833,20.561756 20.5778503,20.5250186 C20.5545045,20.4631696 20.5316162,20.4003906 20.5101013,20.3366815 C20.5046081,20.3213356 20.4995728,20.3055245 20.4945374,20.2901786 C20.4414368,20.1283482 20.3929138,19.9590774 20.3517151,19.7758557 L21.7868041,19.5531064 C21.7881775,19.5638021 21.7900085,19.5740327 21.7909241,19.5847285 C21.8087768,19.7530692 21.8293762,19.9158296 21.8527221,20.0730096 C21.855011,20.0897507 21.8572998,20.1064918 21.8600463,20.1232329 C21.8852234,20.2883185 21.913147,20.4473586 21.9438171,20.6008185 C21.946106,20.6138393 21.947937,20.6273251 21.9502259,20.639881 L20.6877136,20.8003162 Z M21.7172241,12.8957404 L23.0534362,12.4474517 C23.0484009,12.4576823 23.0438232,12.4674479 23.0392455,12.4776786 C23.0195618,12.5213914 22.9994202,12.5651042 22.9788209,12.6088169 C22.9728698,12.6218379 22.9669189,12.6348586 22.9605103,12.6483445 C22.833252,12.922712 22.6991272,13.2133557 22.567749,13.530506 C22.5645446,13.5374814 22.5617981,13.5444569 22.5585937,13.5518974 C22.5187683,13.6495536 22.4784851,13.749535 22.4391175,13.8523065 C22.4363708,13.859747 22.4336243,13.8667225 22.4308777,13.874163 L21.194458,14.2513021 C21.3743591,13.8490513 21.5565491,13.4077381 21.7172241,12.8957404 Z M20.3567505,16.3690476 L21.8833923,15.9030879 C21.7927552,16.4490327 21.7332458,17.062407 21.7185974,17.7594867 L20.1878357,17.9971168 C20.1933288,17.3270089 20.2537536,16.811756 20.3567505,16.3690476 Z M17.6055908,16.655041 C17.6060486,16.6527157 17.6065064,16.6508557 17.6069641,16.6489955 C17.7127076,15.7510231 17.9145813,15.0604538 18.1452942,14.4647507 C18.1480407,14.4577752 18.1503295,14.4512649 18.1530762,14.4442894 C18.1919861,14.3447731 18.2318115,14.2475819 18.271637,14.1527157 C18.2785034,14.1369048 18.2849121,14.1215588 18.2917786,14.1057477 C18.3050537,14.0741257 18.3187866,14.0429688 18.3320618,14.0118118 C18.3389283,13.9969308 18.3453369,13.9811198 18.3522034,13.9662388 C18.3709717,13.9229911 18.3901978,13.8802083 18.4089661,13.8378906 C18.4135437,13.828125 18.4181214,13.8183594 18.4226989,13.8085938 C18.4387207,13.7727864 18.4547425,13.7369792 18.4707642,13.7016369 C18.5160827,13.6030506 18.5609436,13.5049293 18.6062623,13.4072731 C18.7326049,13.1347656 18.8745117,12.8287761 19.003601,12.5023251 L20.1077271,12.1316964 C19.9072266,12.8362165 19.6453857,13.4123883 19.4082642,13.9243862 C19.4023132,13.937872 19.3959046,13.9508929 19.3899537,13.9643787 C19.3817139,13.9811198 19.3743896,13.9978608 19.3666077,14.0150669 C19.3478393,14.0545945 19.3295287,14.094587 19.3112182,14.1350446 C19.2956543,14.1685268 19.2800904,14.2024739 19.2645264,14.2364212 C19.25354,14.2606026 19.2425537,14.2847843 19.2315674,14.3094308 C19.210968,14.3545387 19.1908264,14.4001117 19.1706848,14.4456845 C19.1661071,14.4554501 19.1615296,14.4656808 19.1574096,14.4759114 C18.7600709,15.3776042 18.4313965,16.3625371 18.4313965,18.0854725 C18.4313965,18.4584263 18.4469604,18.7955729 18.4753418,19.1062129 L18.4753418,19.1117931 C18.4757995,19.1141183 18.4757995,19.1164435 18.4762573,19.1183036 C18.4803772,19.1624814 18.4854127,19.203869 18.4899902,19.2466518 C18.4950257,19.2950149 18.5000611,19.343843 18.5055541,19.390811 C18.5133362,19.452195 18.5215759,19.5117188 18.5302734,19.5707775 C18.5330201,19.5917038 18.5362243,19.6130952 18.5394287,19.6340215 C18.6419678,20.3101749 18.8095092,20.8477493 19.0058899,21.3374256 C19.0127564,21.3541667 19.019165,21.3713727 19.0260315,21.3876488 C19.0342712,21.4085751 19.0429687,21.4285714 19.0516663,21.4490327 C19.0718079,21.498791 19.0924072,21.547619 19.1134643,21.5959821 C19.1175843,21.6052827 19.1212464,21.6145833 19.1253662,21.6238839 C19.2041016,21.8057106 19.2837525,21.9782367 19.3611145,22.1456474 C19.3611145,22.1461124 19.3615723,22.1465774 19.3615723,22.1465774 C19.3711853,22.1670387 19.3803405,22.1875 19.3899537,22.2074963 C19.9205017,23.3533296 20.4689026,24.5377605 20.4689026,26.8866257 C20.4689026,29.2359561 19.9205017,30.4203869 19.3899537,31.5657552 C19.2640686,31.8373326 19.1358948,32.1140252 19.0164185,32.4107143 L18.0194092,32.4107143 C18.1970215,31.8931362 18.4034729,31.4467076 18.6058044,31.0091145 C19.0988159,29.9446614 19.5648193,28.9392671 19.5648193,26.8866257 C19.5648193,24.8344494 19.0992737,23.829055 18.6062623,22.7641369 C18.4606934,22.4502418 18.3137512,22.1326264 18.1773376,21.7894345 C18.1773376,21.7889695 18.1773376,21.7885045 18.1768799,21.7880394 C17.8587341,20.9877232 17.677002,20.23484 17.587738,19.3475632 C17.5872803,19.3447731 17.5868225,19.3419829 17.5863647,19.3391927 C17.5483704,18.9601935 17.5273132,18.5453869 17.5273132,18.0854725 C17.5273132,17.5534785 17.5556946,17.0810082 17.6055908,16.655041 L17.6055908,16.655041 Z M17.0178223,23.5239955 C17.477417,24.516369 17.8092956,25.233445 17.8092956,26.8870907 C17.8092956,28.5407367 17.477417,29.2578125 17.0178223,30.2506511 C16.7349244,30.8617001 16.4218139,31.5387835 16.1801147,32.4111793 L14.9963379,32.4111793 C15.009613,32.3818824 15.0224304,32.3544457 15.0357056,32.3251488 C15.5909729,31.1263021 16.2817383,29.6340215 16.2817383,26.8870907 C16.2817383,25.3152902 16.055603,24.155041 15.7580566,23.2249814 L16.8191529,23.0901227 C16.8859863,23.2393974 16.9528198,23.3840215 17.0178223,23.5239955 L17.0178223,23.5239955 Z M14.8539734,21.0514323 C14.8530579,21.0500371 14.8526002,21.0486421 14.8516846,21.047247 C14.7935486,20.9165737 14.7381592,20.7872954 14.6859741,20.656157 L15.9718323,20.4566593 C15.9745788,20.4715402 15.9782409,20.4859561 15.9809876,20.5013021 C16.0057068,20.6324405 16.0322571,20.7603237 16.0601807,20.8840215 C16.0665893,20.9119233 16.0734558,20.9398251 16.0798645,20.9681919 C16.1100769,21.0970052 16.1416627,21.2216332 16.1750794,21.342541 C16.1778259,21.3527715 16.1801147,21.3634673 16.1828613,21.3736979 L15.0663757,21.515532 C15.056305,21.4932106 15.0457764,21.4708892 15.0357056,21.4490327 C15.0338745,21.4453125 15.0325012,21.4415923 15.0306702,21.437872 C14.9697877,21.3062686 14.9102783,21.1779204 14.8539734,21.0514323 Z M14.8136902,15.2120536 L16.197052,14.7479538 C16.1636353,14.8642113 16.1325073,14.986049 16.1022949,15.109747 C16.1000061,15.1185826 16.0977173,15.1274181 16.0954284,15.1362537 C16.055603,15.3008743 16.0185241,15.4720052 15.9846497,15.6510417 C15.9828186,15.6612724 15.9809876,15.671968 15.9786987,15.6821987 C15.9681702,15.7389323 15.9576416,15.7942708 15.9475709,15.8523995 L14.4273376,16.3160343 C14.523468,15.9202939 14.6543884,15.5752418 14.8136902,15.2120536 Z M15.7754517,17.7669271 C15.7736205,17.8715588 15.7722473,17.9771205 15.7722473,18.0859375 C15.7722473,18.2914807 15.7763672,18.4895833 15.7836914,18.6816406 L14.2771911,18.9155506 C14.2593384,18.7072173 14.2492676,18.4798177 14.2460632,18.2333519 L15.7754517,17.7669271 Z M13.4532165,13.9513579 L13.4683228,13.9587983 C13.4660339,13.9625186 13.4632874,13.9667038 13.4609986,13.970424 L13.4477234,13.9643787 C13.4490967,13.9597285 13.4509277,13.9555431 13.4532165,13.9513579 Z M11.5878295,17.7845982 C11.5892029,17.7246094 11.5914916,17.6669457 11.5933228,17.6088169 C11.594696,17.5730096 11.5956116,17.5362724 11.5969849,17.50093 C11.6001892,17.4307106 11.6038513,17.3628162 11.6079712,17.2953869 C11.6093445,17.2735305 11.61026,17.251674 11.6116334,17.2302827 C11.6162109,17.1586681 11.6217041,17.0889137 11.6271973,17.0205543 C11.6285706,17.0038132 11.6299439,16.9875371 11.6313171,16.9712612 C11.6377259,16.9005767 11.6441345,16.8317523 11.6514587,16.7643229 C11.652832,16.7513021 11.6542054,16.7378162 11.6560364,16.7247954 C11.6770935,16.5341332 11.7022705,16.3564918 11.7297363,16.1895462 C11.7366028,16.1490886 11.7430114,16.108631 11.7503357,16.0686383 C11.7562866,16.0360863 11.7622376,16.0044643 11.7681885,15.9728423 C11.7800904,15.9114583 11.7919922,15.8505394 11.8052673,15.7896205 C11.8876648,15.4013207 11.9824219,15.0846355 12.0698548,14.828404 L13.2298279,14.439174 C12.8256225,15.3510975 12.4882507,16.3392857 12.4882507,18.0859375 C12.4882507,19.8381696 12.8279114,20.827288 13.2339478,21.7420014 C13.2344055,21.7429315 13.2348633,21.7438617 13.235321,21.7447917 C13.2696533,21.8210565 13.3035279,21.8973214 13.3383178,21.9731213 C13.3396911,21.9754464 13.3406067,21.9782367 13.3419799,21.9805618 C13.3763122,22.0563617 13.41156,22.1321614 13.4468079,22.2079613 C13.45047,22.2158668 13.4536744,22.2233073 13.4573365,22.2307477 C13.4994506,22.3218936 13.5420227,22.4144345 13.5850525,22.5083705 C13.5868835,22.5125558 13.5887146,22.5167411 13.5905456,22.5209263 C13.638153,22.6255581 13.6857605,22.7320499 13.7329102,22.8408668 L13.7333679,22.8408668 C14.1577148,23.8211495 14.5257568,24.9637276 14.5257568,26.8870907 C14.5257568,29.2354911 13.9768982,30.4203869 13.4468079,31.5662202 C13.3209229,31.8373326 13.192749,32.1144904 13.0732727,32.4107143 L12.0762634,32.4107143 C12.2538757,31.8931362 12.4603271,31.4467076 12.6631165,31.0091145 C13.1561279,29.9446614 13.6216736,28.9388021 13.6216736,26.8870907 C13.6216736,24.8353795 13.1561279,23.8295201 12.6626587,22.7646019 C12.6168823,22.6650856 12.5706482,22.5651042 12.5248718,22.4646577 C12.5248718,22.4646577 12.5248718,22.4641927 12.5244141,22.4641927 C12.4909973,22.390718 12.4571228,22.3158482 12.4232483,22.2386533 C12.4223327,22.2363281 12.4214173,22.234003 12.4205017,22.2321429 C12.1765137,21.6806176 11.9224548,21.0239955 11.7626953,20.1743862 C11.7617798,20.171131 11.7608643,20.1678757 11.7599487,20.1646205 C11.6638184,19.6489025 11.600647,19.0601749 11.5873718,18.3654204 C11.5873718,18.3649554 11.5873718,18.3644904 11.5873718,18.3640252 C11.5855407,18.2728795 11.5841674,18.1803386 11.5841674,18.0854725 C11.5846253,17.984096 11.5855407,17.8836495 11.5878295,17.7845982 Z M11.2037659,23.8044085 C11.5951537,24.6633185 11.8666077,25.3934152 11.8666077,26.8870907 C11.8666077,28.5407367 11.5342712,29.2578125 11.0746765,30.2506511 C10.7917786,30.8617001 10.479126,31.5383185 10.236969,32.4111793 L9.05319211,32.4111793 C9.06692508,32.3823475 9.07928461,32.3549107 9.09301758,32.3251488 C9.64782715,31.1263021 10.3385925,29.6344867 10.3385925,26.8870907 C10.3385925,25.7017299 10.2099609,24.750279 10.0190735,23.9550781 L11.2037659,23.8044085 Z M10.2328491,21.3481213 C10.2355957,21.3583519 10.2388001,21.3676525 10.2415466,21.3774181 C10.2745056,21.4955357 10.3083802,21.6099331 10.3436279,21.7210751 C10.3477478,21.733166 10.3518677,21.7452567 10.3555298,21.7573475 C10.3926087,21.8726749 10.430603,21.984747 10.469513,22.093564 C10.4704284,22.095424 10.471344,22.0982143 10.4718018,22.1000744 L9.44366461,22.2312129 C9.44320676,22.2302827 9.44274902,22.2293526 9.44274902,22.2288876 C9.33654785,21.9777715 9.22897336,21.7433965 9.12551883,21.5201823 L10.2328491,21.3481213 Z M9.90600586,19.594959 L9.65835574,19.6330915 L9.90234375,19.5586868 C9.90325922,19.5707775 9.90463254,19.5828683 9.90600586,19.594959 Z M8.30657953,17.7557664 C8.30703738,17.7413505 8.30703738,17.7269345 8.30749512,17.7129836 C8.31115723,17.6088169 8.31665039,17.5074405 8.32351687,17.4083892 C8.32397461,17.4018787 8.32443234,17.3953683 8.32489008,17.3888579 L9.87762445,16.8680245 C9.87533566,16.8917411 9.8744202,16.9163876 9.87258914,16.9401042 C9.8684693,16.9968379 9.86480719,17.0540364 9.86114508,17.1112351 C9.85427859,17.2181919 9.84832758,17.3265439 9.84375,17.435826 C9.84100336,17.4939546 9.83871457,17.5525483 9.83734125,17.6111421 C9.83596805,17.6469494 9.83413699,17.6818267 9.83322141,17.7180989 L8.30245969,18.1849888 C8.30200195,18.1515067 8.30108648,18.1198846 8.30108648,18.0859375 C8.30108648,17.9724702 8.30337527,17.8631882 8.30657953,17.7557664 Z M5.78933719,20.0065105 C5.78887945,20.0032552 5.78887945,20.000465 5.7884216,19.9972098 C5.73898312,19.7042411 5.70281977,19.4015067 5.67810059,19.0852864 C5.67810059,19.0801712 5.67764285,19.0745907 5.677185,19.0694755 C5.67214969,19.0034412 5.66757199,18.9364769 5.66390988,18.8695126 C5.66253656,18.8453311 5.66116336,18.8211495 5.65979004,18.796503 C5.65750125,18.7462798 5.65475461,18.6951264 5.65292355,18.6439732 C5.65155023,18.6160714 5.65063477,18.5881696 5.6497193,18.5598029 C5.64788812,18.5077195 5.64651492,18.4547061 5.64559934,18.4016927 C5.6451416,18.3761161 5.64422602,18.3505394 5.64376828,18.3249629 C5.64239508,18.2459077 5.64147949,18.1663876 5.64147949,18.0859375 C5.64147949,18.0087426 5.64285281,17.9324776 5.64422602,17.8562129 C5.6451416,17.8004093 5.64651492,17.7450707 5.64788812,17.6901971 C5.65521234,17.4432664 5.66848758,17.201916 5.68908691,16.9694011 L6.63665766,16.6517857 C6.62612918,16.7261905 6.61788937,16.8029204 6.60964969,16.8796502 C6.60690305,16.9047619 6.60324094,16.9294085 6.60049441,16.9549851 C6.59133914,17.0438058 6.58401492,17.1354167 6.57760617,17.2270275 C6.57531738,17.2577195 6.57211301,17.2874814 6.57028195,17.3181733 C6.56433105,17.4083892 6.56021121,17.50093 6.5565491,17.5944011 C6.55517578,17.6278832 6.55288699,17.6604352 6.55197141,17.6948475 C6.54785156,17.8222656 6.54602051,17.9524739 6.54602051,18.0859375 C6.54602051,18.2119606 6.54785156,18.3351935 6.55105594,18.4561012 C6.59912109,20.1046317 6.96853641,21.0370164 7.38372797,21.9461495 C7.38784793,21.9549851 7.39196777,21.9642857 7.39608762,21.9735863 C7.43225098,22.0517113 7.46795648,22.1298363 7.50457758,22.2084263 C7.50640875,22.2121465 7.50823969,22.2158668 7.51007086,22.2200521 C7.55447391,22.3158482 7.59933469,22.4125744 7.64373773,22.5111607 C7.64465332,22.5125558 7.64556891,22.514416 7.64602664,22.5162761 C7.78747559,22.826916 7.92800906,23.1505767 8.05480957,23.5053943 C8.05480957,23.5058594 8.0552673,23.5058594 8.0552673,23.5063244 C8.35739133,24.3522136 8.58352664,25.3794643 8.58352664,26.8870907 C8.58352664,29.2359561 8.0351257,30.4203869 7.50457758,31.5662202 C7.37869266,31.8377976 7.25051883,32.1144904 7.13104242,32.4111793 L6.1340332,32.4111793 C6.31164551,31.8936012 6.51809695,31.4471726 6.72088617,31.0095796 C7.21344,29.9451264 7.67944336,28.9392671 7.67944336,26.8870907 C7.67944336,24.8386346 7.21527094,23.8327752 6.72317508,22.7701823 C6.72225949,22.7683221 6.72180176,22.766462 6.72088617,22.7646019 C6.69616699,22.7120536 6.67190555,22.6590402 6.64764398,22.6060268 C6.63894656,22.5878906 6.63070676,22.5692894 6.62200922,22.5506882 C6.59637445,22.4948846 6.57073969,22.4381511 6.54464719,22.3809524 C6.53915402,22.3688617 6.53366086,22.3567708 6.5281677,22.34468 C6.50070187,22.2837612 6.47369391,22.2219121 6.44622797,22.1591332 C6.44302371,22.1516927 6.4393616,22.1437871 6.43615723,22.1358817 C6.40731809,22.0693824 6.37847906,22.0019531 6.35009766,21.9331287 C6.34872434,21.9298736 6.34780887,21.9270833 6.34643555,21.9238281 C6.22604367,21.6322545 6.11206055,21.3220796 6.01226812,20.9798177 C6.01181027,20.9774926 6.0108948,20.9756324 6.01043695,20.9733073 C5.9243775,20.6784785 5.84930414,20.359468 5.78933719,20.0065105 Z M51.3276673,34.1945685 C50.7481384,39.3819755 48.4332275,48.4760975 39.6162415,54.2131696 L21.6526794,54.2131696 C21.1679077,54.2131696 20.7751465,54.6126302 20.7751465,55.1050967 C20.7751465,55.5975632 21.1679077,55.9965588 21.6526794,55.9965588 L38.9323425,55.9965588 L38.9323425,57.1656436 C38.9323425,57.6841518 38.5176087,58.1054688 38.0076599,58.1054688 L15.1263428,58.1054688 C14.616394,58.1054688 14.2012024,57.6841518 14.2012024,57.1656436 L14.2012024,55.9965588 L17.568512,55.9965588 C18.0532837,55.9965588 18.4465027,55.5975632 18.4465027,55.1050967 C18.4465027,54.6126302 18.0532837,54.2131696 17.568512,54.2131696 L13.5081482,54.2131696 C4.69116211,48.4751674 2.37670898,39.3819755 1.79718023,34.1945685 L51.3276673,34.1945685 Z M58.2316589,16.0053943 C58.2156373,16.0263207 58.1964111,16.0286458 58.1900025,16.029576 L26.3722229,20.077195 C26.2779236,19.7474888 26.2010193,19.360119 26.1607361,18.8732329 L57.904358,13.9406621 C57.9107666,13.9397321 57.9299927,13.9369419 57.9505921,13.952753 C57.9711914,13.9680989 57.973938,13.9876302 57.9748535,13.9941406 L58.2435608,15.9588914 C58.2443423,15.9649368 58.2472229,15.9849331 58.2316589,16.0053943 Z" id="Shape"></path>
                    </g>
                </g>
            </g>
        </g>
    </g>
</svg>