<?xml version="1.0" encoding="UTF-8"?>
<svg width="60px" height="60px" viewBox="0 0 60 60" version="1.1" xmlns="http://www.w3.org/2000/svg" xmlns:xlink="http://www.w3.org/1999/xlink">
    <!-- Generator: Sketch 60 (88103) - https://sketch.com -->
    <title>nut-free</title>
    <desc>Created with Sketch.</desc>
    <g id="Page-1" stroke="none" stroke-width="1" fill="none" fill-rule="evenodd">
        <g id="quote_allergies" transform="translate(-696.000000, -392.000000)" fill-rule="nonzero">
            <g id="button_nut_free" transform="translate(626.000000, 362.000000)">
                <g id="nut-free" transform="translate(70.000000, 30.000000)">
                    <path d="M25.4938992,9.29650363 C26.2263178,8.91095583 28.440081,8.11590576 30.0020092,7.58782343 C31.562091,8.1141715 33.7721618,8.90727053 34.4990416,9.29281832 C39.8218911,12.1163029 48.7501425,18.7938563 48.7501425,31.7855272 L48.753835,32.2898718 C48.7542695,32.3472108 48.7547039,32.4125708 48.7552469,32.4732699 C47.0248755,33.3230575 45.0681755,34.2912085 43.2339797,35.2108001 L46.0276829,37.9990575 C48.2681625,36.881977 50.6077966,35.7327042 52.3629295,34.8756543 C52.0979382,37.7208171 51.436003,40.2112152 50.4043832,42.3672263 L53.1583377,45.1158124 C55.1825888,41.5039981 56.2502647,37.0632072 56.2502647,31.8128418 C56.2502647,31.1676969 55.9169622,30.5682931 55.3694945,30.2265353 C54.8257194,29.8866203 54.1353302,29.8482498 53.5568021,30.1296335 C53.479694,30.1669201 53.0381142,30.3811013 52.4492688,30.6675795 C51.9104894,15.9206202 41.0209767,8.51413534 36.2586271,5.98872682 C34.8816499,5.257736 31.0236374,3.98034472 30.5878137,3.83781018 C30.2087892,3.71175112 29.7967495,3.71175112 29.4104487,3.83781018 C28.9764712,3.98034472 25.1238889,5.26142131 23.7470202,5.98514991 C22.2368957,6.77944123 20.1101234,8.06593738 17.8928849,9.91953673 L20.546273,12.5677526 C22.2947811,11.1621344 24.0301482,10.0664069 25.4938992,9.29650363 L25.4938992,9.29650363 Z" id="Path" fill="#000000"></path>
                    <path d="M60,57.2369929 L2.65132468,0.000108391284 L0,2.6462648 L12.7736659,15.3950308 C9.9671476,19.2482326 7.76066074,24.2855007 7.54649565,30.7653484 C6.98871072,30.4432095 6.60306152,30.216455 6.58633666,30.2065914 C6.0058537,29.8611483 5.28625032,29.8502008 4.69849096,30.186539 C4.11257785,30.5173492 3.74995249,31.1404907 3.74995249,31.8129502 C3.74995249,47.5000955 13.0718897,56.1403983 29.9999457,56.1403983 C37.7531128,56.1403983 43.8371607,54.2580753 48.2326493,50.7850017 L57.3485667,59.8831493 L60,57.2369929 L60,57.2369929 Z M11.2463822,32.2881376 L11.2500747,31.7855272 C11.2500747,26.0104396 13.0422411,21.556425 15.4542048,18.0702361 L26.2221908,28.8172319 C23.1421016,31.7117127 20.8851143,35.0636048 19.7681326,36.9682564 C16.96661,35.8260291 13.7837823,34.2000514 11.2424725,32.8269506 C11.2435585,32.6443113 11.2449703,32.4562524 11.2463822,32.2881376 Z M30.0000543,52.3977557 C16.3348664,52.3977557 8.83496147,46.5954618 7.66302666,35.1390451 C10.8490038,36.9153615 15.9613808,39.6200492 19.9878365,41.0637127 C20.8795756,41.3853096 21.8756822,40.9832863 22.3004284,40.137184 C22.3287738,40.0786527 24.838263,35.2057058 28.8645015,31.4546086 L45.5682923,48.1258384 C41.853853,50.9143126 36.7160629,52.3977557 30.0000543,52.3977557 L30.0000543,52.3977557 Z" id="Shape" fill="#212021"></path>
                </g>
            </g>
        </g>
    </g>
</svg>