<svg xmlns="http://www.w3.org/2000/svg" width="50" height="50" viewBox="0 0 50 50"><path fill="#EDC001" d="M.004 25.023c.061 1.191.744 2.194 1.732 2.536l18.289 6.403.672 14.599c.03.578.366 1.085.845 1.274.132.059.275.082.407.082.357 0 .693-.165.937-.483l6.467-8.29 9.165 7.346c.407.33.886.507 1.385.507 1.15 0 2.148-.943 2.393-2.264L49.903 1.84c.091-.519-.082-1.061-.428-1.391-.357-.342-.835-.425-1.263-.224L1.471 22.252c-.947.495-1.528 1.58-1.467 2.771zM23.02 44.941l-.418-9.21 4.684 3.75-4.266 5.46zm16.843 1.12l-16.68-13.373 23.39-26.203-6.71 39.576zM44.006 5.33L20.88 31.238 2.611 24.846 44.006 5.33z"/></svg>