<svg xmlns="http://www.w3.org/2000/svg" xmlns:xlink="http://www.w3.org/1999/xlink" width="34" height="34" viewBox="0 0 34 34"><defs><path id="a" d="M35.458 4.997L28.7 3.437a1.57 1.57 0 0 0-1.786.903l-3.12 7.278a1.555 1.555 0 0 0 .449 1.82l3.938 3.222a24.081 24.081 0 0 1-11.514 11.514l-3.223-3.937a1.558 1.558 0 0 0-1.82-.449l-7.277 3.12a1.578 1.578 0 0 0-.91 1.792l1.56 6.758a1.559 1.559 0 0 0 1.52 1.209c16.64 0 30.15-13.483 30.15-30.15 0-.728-.5-1.358-1.209-1.52z"/></defs><g fill="none" fill-rule="evenodd" transform="translate(-3 -3)"><mask id="b" fill="#fff"><use xlink:href="#a"/></mask><g fill="#CACACA" mask="url(#b)"><path d="M0 0h40v40H0z"/></g></g></svg>