<?xml version="1.0" encoding="UTF-8"?>
<svg width="60px" height="60px" viewBox="0 0 60 60" version="1.1" xmlns="http://www.w3.org/2000/svg" xmlns:xlink="http://www.w3.org/1999/xlink">
    <!-- Generator: Sketch 60 (88103) - https://sketch.com -->
    <title>pizza</title>
    <desc>Created with Sketch.</desc>
    <g id="Page-1" stroke="none" stroke-width="1" fill="none" fill-rule="evenodd">
        <g id="quote_menu" transform="translate(-545.000000, -394.000000)" fill="#212021" fill-rule="nonzero">
            <g id="buttons" transform="translate(161.000000, 364.000000)">
                <g id="button_italian" transform="translate(290.000000, 0.000000)">
                    <g id="pizza" transform="translate(94.000000, 30.000000)">
                        <path d="M51.5088112,20.7248276 C51.2401399,20.6581034 50.9538462,20.6930172 50.7128671,20.821681 L46.8827972,22.8662069 C46.8697902,22.8724138 46.8565035,22.8778448 46.8437762,22.8846983 C46.8309091,22.8915517 46.819021,22.899569 46.8065734,22.9069397 L29.6542657,32.0628879 L35.9478322,10.3468966 C36.0977622,9.82952586 35.7657343,9.29780172 35.206014,9.15905172 C28.0083916,7.37547414 20.4902098,8.29099138 14.0367832,11.735819 C0.715104895,18.8469828 -3.86559441,34.6529741 3.82573427,46.9700431 C7.55160839,52.936681 13.5675524,57.204569 20.7653147,58.9877586 C23.1688112,59.5832328 25.6076923,59.8778017 28.031049,59.8778017 C32.865035,59.8778017 37.6360839,58.7056034 41.9345455,56.4109914 C55.2563636,49.2998276 59.8372028,33.4937069 52.1457343,21.1766379 C52.0067133,20.9538362 51.7776224,20.7912931 51.5088112,20.7248276 Z M26.9728671,33.8222845 C26.8627972,34.2012931 27.0106294,34.6039655 27.3472727,34.8426724 C27.6839161,35.0813793 28.1427972,35.1093103 28.5103497,34.9131466 L46.9630769,25.0630603 C52.1229371,34.3430172 48.5325874,45.8696121 38.6546853,51.1425 C35.3046154,52.9307328 31.6439161,53.7800432 28.0281119,53.7800432 C20.653007,53.7795259 13.4693706,50.2434052 9.52433566,43.9256897 C6.67636364,39.3647845 5.91972028,34.0515517 7.39398601,28.9646121 C8.86825175,23.8775431 12.3969231,19.625819 17.3297902,16.9926724 C21.9472727,14.5277586 27.3012587,13.7574569 32.4871329,14.7951724 L26.9728671,33.8222845 Z M40.8855944,54.7311207 C34.9176224,57.9168103 27.9648951,58.7632759 21.3082517,57.114181 C14.6517483,55.4650862 9.08825175,51.5181466 5.64251748,46.0002155 C-1.47048951,34.6093966 2.76587413,19.9920259 15.0858741,13.4155603 C19.0613986,11.2934483 23.4728671,10.2094397 27.9437762,10.2094397 C29.8427972,10.2094397 31.7535664,10.4053448 33.6446154,10.8001293 L33.0303497,12.9195259 C27.3023776,11.7490086 21.3822378,12.5896552 16.2804196,15.3130603 C10.8620979,18.2052155 6.98643357,22.8751293 5.36713287,28.4626293 C3.74783217,34.0501293 4.57888112,39.8861638 7.70713287,44.8956466 C12.0406993,51.8354741 19.9297902,55.719569 28.0313287,55.7194397 C32.0020979,55.7193103 36.0243357,54.7860776 39.7033566,52.8223707 C50.5832168,47.0146552 54.5176224,34.3000862 48.7808392,24.0927155 L50.8351049,22.9961638 C57.2271329,34.254181 52.9012587,48.3173276 40.8855944,54.7311207 Z" id="Shape"></path>
                        <path d="M59.7735664,12.0535345 C56.0468531,6.08560345 50.0295105,1.81668103 42.8302098,0.0331034483 C42.5615385,-0.0336206897 42.2751049,0.00129310345 42.0342657,0.129956897 C41.7932867,0.258491379 41.6176224,0.470431034 41.5454545,0.718836207 L34.594965,24.7020259 C34.4851748,25.0810345 34.633007,25.4837069 34.9696503,25.7225431 C35.1569231,25.8553448 35.3820979,25.9229741 35.6083916,25.9229741 C35.7886713,25.9229741 35.9697902,25.8800431 36.1327273,25.7930172 L59.3897902,13.3784483 C59.6307692,13.2499138 59.8064336,13.0379741 59.8786014,12.789569 C59.9503497,12.5410345 59.9127273,12.2763362 59.7735664,12.0535345 Z M37.2767832,22.9423707 L42.0746853,6.38676724 C46.7100699,7.7975431 50.6251748,10.6109483 53.2486713,14.4165517 L37.2767832,22.9423707 Z M55.0665734,13.4463362 C52.160979,9.19435345 47.7938462,6.05961207 42.6183217,4.51125 L43.2951049,2.17616379 C49.173007,3.86625 54.1274126,7.38103448 57.4144056,12.1930603 L55.0665734,13.4463362 Z" id="Shape"></path>
                        <path d="M21.2026573,35.1077586 C21.2026573,33.4321552 19.7282517,32.0689655 17.9159441,32.0689655 C16.1036364,32.0689655 14.6292308,33.4321552 14.6292308,35.1077586 C14.6292308,36.7833621 16.1036364,38.1465517 17.9159441,38.1465517 C19.7282517,38.1465517 21.2026573,36.7833621 21.2026573,35.1077586 Z M16.7271329,35.1077586 C16.7271329,34.501681 17.2604196,34.0086207 17.9159441,34.0086207 C18.5714685,34.0086207 19.1047552,34.501681 19.1047552,35.1077586 C19.1047552,35.7138362 18.5714685,36.2068966 17.9159441,36.2068966 C17.2604196,36.2068966 16.7271329,35.7138362 16.7271329,35.1077586 Z" id="Shape"></path>
                        <path d="M22.3914685,24.6982759 C24.2037762,24.6982759 25.6781818,23.3350862 25.6781818,21.6594828 C25.6781818,19.9838793 24.2037762,18.6206897 22.3914685,18.6206897 C20.5791608,18.6206897 19.1047552,19.9838793 19.1047552,21.6594828 C19.1047552,23.3350862 20.5791608,24.6982759 22.3914685,24.6982759 Z M22.3914685,20.5603448 C23.046993,20.5603448 23.5802797,21.0534052 23.5802797,21.6594828 C23.5802797,22.2655603 23.046993,22.7586207 22.3914685,22.7586207 C21.7359441,22.7586207 21.2026573,22.2655603 21.2026573,21.6594828 C21.2026573,21.0534052 21.7359441,20.5603448 22.3914685,20.5603448 Z" id="Shape"></path>
                        <path d="M38.0558042,41.25 C39.8681119,41.25 41.3425175,39.8868103 41.3425175,38.2112069 C41.3425175,36.5356034 39.8681119,35.1724138 38.0558042,35.1724138 C36.2434965,35.1724138 34.7690909,36.5356034 34.7690909,38.2112069 C34.7690909,39.8868103 36.2434965,41.25 38.0558042,41.25 Z M38.0558042,37.112069 C38.7113287,37.112069 39.2446154,37.6051293 39.2446154,38.2112069 C39.2446154,38.8172845 38.7113287,39.3103448 38.0558042,39.3103448 C37.4002797,39.3103448 36.866993,38.8172845 36.866993,38.2112069 C36.866993,37.6051293 37.4002797,37.112069 38.0558042,37.112069 Z" id="Shape"></path>
                        <path d="M23.5802797,46.487069 C23.5802797,48.1626724 25.0546853,49.5258621 26.866993,49.5258621 C28.6793007,49.5258621 30.1537063,48.1626724 30.1537063,46.487069 C30.1537063,44.8114655 28.6793007,43.4482759 26.866993,43.4482759 C25.0546853,43.4482759 23.5802797,44.8114655 23.5802797,46.487069 Z M28.0558042,46.487069 C28.0558042,47.0931466 27.5225175,47.5862069 26.866993,47.5862069 C26.2114685,47.5862069 25.6781818,47.0931466 25.6781818,46.487069 C25.6781818,45.8809914 26.2114685,45.387931 26.866993,45.387931 C27.5225175,45.387931 28.0558042,45.8811207 28.0558042,46.487069 Z" id="Shape"></path>
                        <path d="M36.3774825,47.4568966 C37.2643357,47.4568966 37.9858741,46.7897845 37.9858741,45.9698276 C37.9858741,45.1498707 37.2643357,44.4827586 36.3774825,44.4827586 C35.4906294,44.4827586 34.7690909,45.1498707 34.7690909,45.9698276 C34.7690909,46.7897845 35.4904895,47.4568966 36.3774825,47.4568966 Z" id="Path"></path>
                        <path d="M29.6641958,40.2155172 C30.551049,40.2155172 31.2725874,39.5484052 31.2725874,38.7284483 C31.2725874,37.9084914 30.551049,37.2413793 29.6641958,37.2413793 C28.7773427,37.2413793 28.0558042,37.9084914 28.0558042,38.7284483 C28.0558042,39.5484052 28.7772028,40.2155172 29.6641958,40.2155172 Z" id="Path"></path>
                        <path d="M43.0907692,14.4827586 C42.2039161,14.4827586 41.4823776,15.1498707 41.4823776,15.9698276 C41.4823776,16.7897845 42.2039161,17.4568966 43.0907692,17.4568966 C43.9776224,17.4568966 44.6991608,16.7897845 44.6991608,15.9698276 C44.6991608,15.1498707 43.9776224,14.4827586 43.0907692,14.4827586 Z" id="Path"></path>
                        <path d="M17.3565035,44.4827586 C16.4696503,44.4827586 15.7481119,45.1498707 15.7481119,45.9698276 C15.7481119,46.7897845 16.4696503,47.4568966 17.3565035,47.4568966 C18.2433566,47.4568966 18.9648951,46.7897845 18.9648951,45.9698276 C18.9648951,45.1498707 18.2433566,44.4827586 17.3565035,44.4827586 Z" id="Path"></path>
                        <path d="M21.3425175,28.3836207 C21.3425175,29.2035776 22.0640559,29.8706897 22.9509091,29.8706897 C23.8377622,29.8706897 24.5593007,29.2035776 24.5593007,28.3836207 C24.5593007,27.5636638 23.8377622,26.8965517 22.9509091,26.8965517 C22.0640559,26.8965517 21.3425175,27.5636638 21.3425175,28.3836207 Z" id="Path"></path>
                        <path d="M21.9223776,39.4127586 L19.6846154,40.4472414 C19.1664336,40.6868534 18.9563636,41.2692672 19.2155245,41.7484914 C19.3993007,42.088319 19.7696503,42.2847414 20.1545455,42.2847414 C20.3121678,42.2847414 20.4721678,42.2516379 20.6227972,42.182069 L22.8605594,41.1475862 C23.3787413,40.9079741 23.5888112,40.3255603 23.3296503,39.8463362 C23.0704895,39.3675 22.4406993,39.1732759 21.9223776,39.4127586 Z" id="Path"></path>
                        <path d="M44.9497902,33.4726293 C45.1335664,33.8124569 45.5039161,34.0088793 45.8888112,34.0088793 C46.0464336,34.0088793 46.2064336,33.9757759 46.3570629,33.9062069 C46.8752448,33.6665948 47.0853147,33.084181 46.8261538,32.6050862 L45.7072727,30.5361207 C45.4482517,30.0571552 44.8183217,29.862931 44.3,30.1024138 C43.7818182,30.3420259 43.5717483,30.9244397 43.8309091,31.4036638 L44.9497902,33.4726293 Z" id="Path"></path>
                        <path d="M11.5342657,32.11875 C10.9848951,31.9494828 10.3907692,32.2238793 10.2074126,32.732069 L9.08853147,35.8355172 C8.90531469,36.3437069 9.20237762,36.8930172 9.75202797,37.0622845 C9.8620979,37.0961638 9.97384615,37.1123276 10.0839161,37.1123276 C10.5230769,37.1123276 10.9323077,36.8553879 11.0788811,36.4489655 L12.1977622,33.3455172 C12.3808392,32.8374569 12.0839161,32.2881466 11.5342657,32.11875 Z" id="Path"></path>
                        <path d="M16.7962238,27.8019828 C17.180979,27.8019828 17.5514685,27.605431 17.7352448,27.2657328 C17.9944056,26.7866379 17.7843357,26.2040948 17.2661538,25.9644828 L15.0283916,24.93 C14.5104895,24.6902586 13.8802797,24.8846121 13.6211189,25.3637069 C13.361958,25.8428017 13.572028,26.4253448 14.0902098,26.6649569 L16.327972,27.6994397 C16.4784615,27.7690086 16.6384615,27.8019828 16.7962238,27.8019828 Z" id="Path"></path>
                        <path d="M26.9369231,17.5215517 L26.9369231,19.5905172 C26.9369231,20.12625 27.4064336,20.5603448 27.9858741,20.5603448 C28.5651748,20.5603448 29.0348252,20.12625 29.0348252,19.5905172 L29.0348252,17.5215517 C29.0348252,16.985819 28.5651748,16.5517241 27.9858741,16.5517241 C27.4065734,16.5517241 26.9369231,16.985819 26.9369231,17.5215517 Z" id="Path"></path>
                        <path d="M45.5107692,9.59443966 C45.1011189,9.21581897 44.4369231,9.21581897 44.0274126,9.59443966 C43.6177622,9.97331897 43.6177622,10.5872845 44.0274126,10.9660345 L46.2651748,13.035 C46.4699301,13.2243103 46.7384615,13.3189655 47.0068531,13.3189655 C47.2752448,13.3189655 47.5437762,13.2243103 47.7485315,13.035 C48.1581818,12.6561207 48.1581818,12.0421552 47.7485315,11.6634052 L45.5107692,9.59443966 Z" id="Path"></path>
                        <path d="M40.6706294,45.1039655 C40.8753846,45.2932759 41.1439161,45.387931 41.4123077,45.387931 C41.6806993,45.387931 41.9492308,45.2932759 42.153986,45.1039655 L43.2728671,44.0694828 C43.6825175,43.6906034 43.6825175,43.0766379 43.2728671,42.6978879 C42.8632168,42.3192672 42.199021,42.3192672 41.7895105,42.6978879 L40.6706294,43.7323707 C40.260979,44.1111207 40.260979,44.7250862 40.6706294,45.1039655 Z" id="Path"></path>
                        <path d="M38.0558042,34.0086207 L39.1746853,34.0086207 C39.753986,34.0086207 40.2236364,33.5745259 40.2236364,33.0387931 C40.2236364,32.5030603 39.753986,32.0689655 39.1746853,32.0689655 L38.0558042,32.0689655 C37.4765035,32.0689655 37.0068531,32.5030603 37.0068531,33.0387931 C37.0068531,33.5745259 37.4763636,34.0086207 38.0558042,34.0086207 Z" id="Path"></path>
                    </g>
                </g>
            </g>
        </g>
    </g>
</svg>