<svg xmlns="http://www.w3.org/2000/svg" width="50" height="50" viewBox="0 0 50 50"><g fill="#C6C4C4"><path d="M25 0C11.215 0 0 7.886 0 17.578c0 3.275 1.29 6.47 3.732 9.243l19.845 22.487c.38.43 1.05.692 1.77.692h.017c.726-.004 1.397-.274 1.77-.712l19.34-22.704C48.78 23.87 50 20.756 50 17.578 50 7.886 38.785 0 25 0zm17.898 25.08L25.316 45.72 7.273 25.278c-2.032-2.308-3.134-4.97-3.134-7.7C4.139 9.501 13.512 2.91 25 2.91c11.487 0 20.847 6.591 20.847 14.668 0 2.649-1.03 5.243-2.949 7.502z"/><path d="M25 8.79c-6.892 0-12.5 3.942-12.5 8.788 0 4.815 5.516 8.79 12.5 8.79 7.07 0 12.5-4.027 12.5-8.79 0-4.846-5.608-8.789-12.5-8.789zm0 14.667c-4.619 0-8.361-2.64-8.361-5.879 0-3.23 3.766-5.879 8.361-5.879 4.595 0 8.347 2.648 8.347 5.88 0 3.19-3.655 5.878-8.347 5.878z"/></g></svg>