<?xml version="1.0" encoding="UTF-8"?>
<svg width="50px" height="50px" viewBox="0 0 50 50" version="1.1" xmlns="http://www.w3.org/2000/svg" xmlns:xlink="http://www.w3.org/1999/xlink">
    <!-- Generator: Sketch 59.1 (86144) - https://sketch.com -->
    <title>placeholder</title>
    <desc>Created with Sketch.</desc>
    <g id="Page-1" stroke="none" stroke-width="1" fill="none" fill-rule="evenodd">
        <g id="quote_service" transform="translate(-215.000000, -51.000000)" fill="#C6C4C4" fill-rule="nonzero">
            <g id="timeline" transform="translate(215.000000, 50.000000)">
                <g id="placeholder" transform="translate(0.000000, 1.000000)">
                    <path d="M25,0 C11.215,0 0,7.88554688 0,17.578125 C0,20.8529297 1.29013889,24.0488281 3.73180556,26.8214844 L23.5769444,49.3075195 C23.9570833,49.7382812 24.6268056,50 25.3470833,50 C25.3526389,50 25.3580556,50 25.3636111,50 C26.0901389,49.9959961 26.76125,49.7261719 27.1344444,49.2878906 L46.47375,26.5839844 C48.7806944,23.8699219 50,20.7557617 50,17.578125 C50,7.88554688 38.785,0 25,0 Z M42.8980556,25.0798828 L25.3155556,45.7212891 L7.27319444,25.2779297 C5.24083333,22.9701172 4.13888889,20.3076172 4.13888889,17.578125 C4.13888889,9.50097656 13.5125,2.91015625 25,2.91015625 C36.4875,2.91015625 45.8472222,9.50097656 45.8472222,17.578125 C45.8472222,20.2266602 44.8179167,22.8210937 42.8980556,25.0798828 Z" id="Shape"></path>
                    <path d="M25,8.7890625 C18.1075,8.7890625 12.5,12.7318359 12.5,17.578125 C12.5,22.393457 18.01625,26.3671875 25,26.3671875 C32.0698611,26.3671875 37.5,22.3405273 37.5,17.578125 C37.5,12.7318359 31.8925,8.7890625 25,8.7890625 Z M25,23.4570312 C20.3809722,23.4570312 16.6388889,20.8170898 16.6388889,17.578125 C16.6388889,14.3472656 20.405,11.6992188 25,11.6992188 C29.595,11.6992188 33.3472222,14.3472656 33.3472222,17.578125 C33.3472222,20.7698242 29.6922222,23.4570312 25,23.4570312 Z" id="Shape"></path>
                </g>
            </g>
        </g>
    </g>
</svg>