<svg xmlns="http://www.w3.org/2000/svg" width="50" height="50" viewBox="0 0 50 50"><g fill="#C6C4C4"><path d="M47.293 36.893c-.233-7.947-2.525-15.37-6.514-21.028-3.868-5.485-8.905-8.707-14.314-9.201V4.155h2.49V0h-7.91v4.155h2.49v2.509c-5.41.494-10.446 3.716-14.314 9.2-3.99 5.659-6.28 13.082-6.514 21.029H0v4.727C0 46.24 2.65 50 5.908 50h38.184C47.35 50 50 46.24 50 41.62v-4.727h-2.707zM25 10.75c10.37 0 18.863 11.608 19.361 26.143H5.64C6.137 22.358 14.63 10.75 25 10.75zm22.07 30.87c0 2.33-1.336 4.225-2.978 4.225H5.908c-1.642 0-2.978-1.895-2.978-4.225v-.572h44.14v.572z"/><path d="M8.364 33.082l2.9.6c.005-.053.582-5.298 2.952-8.252l-1.935-3.122c-3.192 3.98-3.888 10.499-3.917 10.774z"/></g></svg>