<?xml version="1.0" encoding="UTF-8"?>
<svg width="65px" height="65px" viewBox="0 0 65 65" version="1.1" xmlns="http://www.w3.org/2000/svg" xmlns:xlink="http://www.w3.org/1999/xlink">
    <!-- Generator: Sketch 60 (88103) - https://sketch.com -->
    <title>shrimp</title>
    <desc>Created with Sketch.</desc>
    <g id="Page-1" stroke="none" stroke-width="1" fill="none" fill-rule="evenodd">
        <g id="quote_allergies" transform="translate(-926.000000, -391.000000)">
            <g id="button_seafood" transform="translate(858.000000, 362.000000)">
                <g id="shrimp" transform="translate(70.000000, 31.000000)">
                    <path d="M48.1425486,2.07343413 L16.5226782,2.07343413 C15.9152916,2.07343413 15.4211663,1.57930886 15.4211663,0.971922246 C15.4211663,0.435032397 14.9860043,0 14.4492441,0 C13.9124838,0 13.4773218,0.435032397 13.4773218,0.971922246 C13.4773218,2.65114471 14.8434557,4.01727862 16.5226782,4.01727862 L48.1425486,4.01727862 C53.6088985,4.01727862 58.0561555,8.46440605 58.0561555,13.9308855 C58.0561555,18.8094168 54.5130454,22.8732181 49.8655724,23.6914471 C52.2988769,20.955162 53.7796976,17.3537365 53.7796976,13.412527 L53.7796976,11.3390929 C53.7796976,9.65987041 52.4135637,8.2937365 50.7343413,8.2937365 L22.7429806,8.2937365 C15.8954644,8.2937365 10.0904968,10.9355508 5.95555076,15.9335637 C2.1150324,20.5757235 0,27.0439309 0,34.1468683 C0,48.4023758 11.5976242,60 25.8531317,60 L38.2937365,60 C38.63054,60 38.9433693,59.8255724 39.1205184,59.5390497 C39.2976674,59.2523974 39.3137365,58.8946004 39.1630238,58.5933045 L37.2847516,54.8368898 L39.1960691,50.0585313 C39.3414687,49.695162 39.2546436,49.280216 38.9760259,49.005486 C38.6972786,48.7306263 38.2810367,48.649892 37.9198704,48.8004752 L25.6645788,53.9068251 C18.8556803,53.8056156 13.3477322,48.2362419 13.3477322,41.4038877 C13.3477322,34.6584881 18.7165011,29.1440605 25.40527,28.9074298 L29.8095032,34.1924838 C29.9742117,34.3899784 30.0647948,34.6404752 30.0647948,34.897581 L30.0647948,40.3671706 C30.0647948,40.9040605 30.4999568,41.3390929 31.0367171,41.3390929 C31.5734773,41.3390929 32.0086393,40.9040605 32.0086393,40.3671706 L32.0086393,34.897581 C32.0086393,34.1865227 31.7578834,33.4941253 31.3027646,32.947905 L27.9282505,28.8984881 L30.5814687,28.8984881 L34.9930886,34.1924838 C35.157797,34.3899784 35.2483801,34.6404752 35.2483801,34.897581 L35.2483801,40.3671706 C35.2483801,40.9040605 35.6835421,41.3390929 36.2203024,41.3390929 C36.7570626,41.3390929 37.1922246,40.9040605 37.1922246,40.3671706 L37.1922246,34.897581 C37.1922246,34.1865227 36.9414687,33.4941253 36.4863499,32.947905 L33.1118359,28.8984881 L35.765054,28.8984881 L40.1766739,34.1924838 C40.3413823,34.3899784 40.4319654,34.6404752 40.4319654,34.897581 L40.4319654,40.3671706 C40.4319654,40.9040605 40.8671274,41.3390929 41.4038877,41.3390929 C41.9406479,41.3390929 42.3758099,40.9040605 42.3758099,40.3671706 L42.3758099,34.897581 C42.3758099,34.1865227 42.125054,33.4941253 41.6699352,32.947905 L38.2954212,28.8984881 C41.7820302,28.8980994 45.002851,27.7390497 47.5939957,25.7869114 C47.6041037,25.7871706 47.6140821,25.7884665 47.6241901,25.7884665 L48.1425486,25.7884665 C54.6807343,25.7884665 60,20.4692009 60,13.9310151 C60,7.39282937 54.6807343,2.07343413 48.1425486,2.07343413 Z M51.8358531,11.3390929 L51.8358531,13.412527 C51.8358531,20.8796112 45.7609503,26.9546436 38.2937365,26.9546436 L25.8531317,26.9546436 C25.8518359,26.9546436 25.8504104,26.9546436 25.8491145,26.9546436 C25.8482073,26.9546436 25.8471706,26.9546436 25.8462635,26.9546436 C25.1222462,26.9550324 24.4106695,27.0093305 23.7149028,27.1130022 L23.7149028,10.237581 L50.7343413,10.237581 C51.3417279,10.237581 51.8358531,10.7317063 51.8358531,11.3390929 Z M21.7710583,10.2587041 L21.7710583,27.5427214 C20.1938229,28.0079482 18.7281641,28.7353348 17.4244924,29.6748596 L7.27723542,17.3913175 C7.33580994,17.3184881 7.3937365,17.2447516 7.45321814,17.1728294 C11.0104536,12.8730454 15.9456156,10.4958531 21.7710583,10.2587041 Z M12.6585745,47.2895896 L7.83382289,49.8439309 C4.23161987,45.7142981 2.02367171,40.339568 1.94773218,34.4599568 L11.8678186,37.7665659 C11.5652268,38.9291145 11.4038877,40.1480346 11.4038877,41.4038877 C11.4038877,43.4989633 11.8530454,45.4908855 12.6585745,47.2895896 Z M35.3510151,55.3158531 L36.7211663,58.0561555 L26.825054,58.0561555 L26.825054,55.5291577 L36.5322246,51.4845356 L35.3179698,54.5203024 C35.2148164,54.7780562 35.2268683,55.0675594 35.3510151,55.3158531 Z M24.8812095,55.8208639 L24.8812095,58.0367171 C18.8087689,57.7924406 13.3131317,55.2714039 9.22367171,51.3075162 L13.5707559,49.0061339 C15.9611663,52.8536501 20.107257,55.5020734 24.8812095,55.8208639 Z M12.4845356,35.9231533 L1.98894168,32.424622 C2.25161987,27.3456156 3.6774946,22.7022894 6.09706263,19.0146868 L15.9266955,30.9137365 C14.4511879,32.3109719 13.2695896,34.0153348 12.4845356,35.9231533 Z" id="Shape" fill="#000000" fill-rule="nonzero"></path>
                    <path d="M39.3304536,18.5313175 C41.009676,18.5313175 42.3758099,17.1651836 42.3758099,15.4859611 C42.3758099,13.8067387 41.009676,12.4406048 39.3304536,12.4406048 C37.6512311,12.4406048 36.2850972,13.8067387 36.2850972,15.4859611 C36.2850972,17.1651836 37.6512311,18.5313175 39.3304536,18.5313175 Z M39.3304536,14.3844492 C39.9378402,14.3844492 40.4319654,14.8785745 40.4319654,15.4859611 C40.4319654,16.0933477 39.9378402,16.587473 39.3304536,16.587473 C38.723067,16.587473 38.2289417,16.0933477 38.2289417,15.4859611 C38.2289417,14.8785745 38.723067,14.3844492 39.3304536,14.3844492 Z" id="Shape" fill="#000000" fill-rule="nonzero"></path>
                    <line x1="0.5" y1="0.5" x2="60.5" y2="60.5" id="Line" stroke="#212021" stroke-width="3" stroke-linecap="square"></line>
                </g>
            </g>
        </g>
    </g>
</svg>