<svg aria-hidden="true" style="position: absolute; width: 0; height: 0; overflow: hidden;" version="1.1" xmlns="http://www.w3.org/2000/svg" xmlns:xlink="http://www.w3.org/1999/xlink">
<defs>
<symbol id="icon-medium" viewBox="0 0 32 32">
<title>medium</title>
<path d="M0 0v32h32v-32h-32zM26.584 7.581l-1.716 1.645c-0.121 0.092-0.198 0.237-0.198 0.399 0 0.030 0.003 0.059 0.007 0.087l-0-0.003v12.089c-0.004 0.025-0.007 0.053-0.007 0.083 0 0.162 0.077 0.306 0.196 0.398l0.001 0.001 1.676 1.645v0.361h-8.429v-0.36l1.736-1.687c0.171-0.171 0.171-0.22 0.171-0.48v-9.773l-4.827 12.26h-0.653l-5.621-12.26v8.217c-0.007 0.046-0.010 0.099-0.010 0.152 0 0.307 0.122 0.586 0.321 0.791l-0-0 2.259 2.739v0.361h-6.403v-0.36l2.26-2.74c0.189-0.196 0.306-0.464 0.306-0.759 0-0.065-0.006-0.129-0.017-0.19l0.001 0.007v-9.501c0.003-0.025 0.004-0.055 0.004-0.085 0-0.245-0.106-0.465-0.274-0.617l-0.001-0.001-2.008-2.419v-0.36h6.232l4.817 10.564 4.235-10.565h5.941v0.361z"></path>
</symbol>
<symbol id="icon-twitter-square" viewBox="0 0 24 28">
<title>twitter-square</title>
<path d="M20 9.531c-0.594 0.266-1.219 0.438-1.891 0.531 0.688-0.406 1.203-1.062 1.453-1.828-0.641 0.375-1.344 0.656-2.094 0.797-0.594-0.641-1.453-1.031-2.391-1.031-1.813 0-3.281 1.469-3.281 3.281 0 0.25 0.016 0.516 0.078 0.75-2.734-0.141-5.156-1.437-6.781-3.437-0.281 0.484-0.453 1.062-0.453 1.656 0 1.141 0.531 2.141 1.422 2.734-0.547-0.016-1.062-0.172-1.563-0.406v0.031c0 1.594 1.203 2.922 2.703 3.219-0.281 0.078-0.5 0.125-0.797 0.125-0.203 0-0.406-0.031-0.609-0.063 0.422 1.297 1.625 2.25 3.063 2.281-1.125 0.875-2.531 1.406-4.078 1.406-0.266 0-0.531-0.016-0.781-0.047 1.453 0.922 3.172 1.469 5.031 1.469 6.031 0 9.344-5 9.344-9.344 0-0.141 0-0.281-0.016-0.422 0.641-0.453 1.203-1.031 1.641-1.703zM24 6.5v15c0 2.484-2.016 4.5-4.5 4.5h-15c-2.484 0-4.5-2.016-4.5-4.5v-15c0-2.484 2.016-4.5 4.5-4.5h15c2.484 0 4.5 2.016 4.5 4.5z"></path>
</symbol>
<symbol id="icon-whatsapp" viewBox="0 0 24 28">
<title>whatsapp</title>
<path d="M15.391 15.219c0.266 0 2.812 1.328 2.922 1.516 0.031 0.078 0.031 0.172 0.031 0.234 0 0.391-0.125 0.828-0.266 1.188-0.359 0.875-1.813 1.437-2.703 1.437-0.75 0-2.297-0.656-2.969-0.969-2.234-1.016-3.625-2.75-4.969-4.734-0.594-0.875-1.125-1.953-1.109-3.031v-0.125c0.031-1.031 0.406-1.766 1.156-2.469 0.234-0.219 0.484-0.344 0.812-0.344 0.187 0 0.375 0.047 0.578 0.047 0.422 0 0.5 0.125 0.656 0.531 0.109 0.266 0.906 2.391 0.906 2.547 0 0.594-1.078 1.266-1.078 1.625 0 0.078 0.031 0.156 0.078 0.234 0.344 0.734 1 1.578 1.594 2.141 0.719 0.688 1.484 1.141 2.359 1.578 0.109 0.063 0.219 0.109 0.344 0.109 0.469 0 1.25-1.516 1.656-1.516zM12.219 23.5c5.406 0 9.812-4.406 9.812-9.812s-4.406-9.812-9.812-9.812-9.812 4.406-9.812 9.812c0 2.063 0.656 4.078 1.875 5.75l-1.234 3.641 3.781-1.203c1.594 1.047 3.484 1.625 5.391 1.625zM12.219 1.906c6.5 0 11.781 5.281 11.781 11.781s-5.281 11.781-11.781 11.781c-1.984 0-3.953-0.5-5.703-1.469l-6.516 2.094 2.125-6.328c-1.109-1.828-1.687-3.938-1.687-6.078 0-6.5 5.281-11.781 11.781-11.781z"></path>
</symbol>
<symbol id="icon-instagram" viewBox="0 0 24 28">
<title>instagram</title>
<path d="M16 14c0-2.203-1.797-4-4-4s-4 1.797-4 4 1.797 4 4 4 4-1.797 4-4zM18.156 14c0 3.406-2.75 6.156-6.156 6.156s-6.156-2.75-6.156-6.156 2.75-6.156 6.156-6.156 6.156 2.75 6.156 6.156zM19.844 7.594c0 0.797-0.641 1.437-1.437 1.437s-1.437-0.641-1.437-1.437 0.641-1.437 1.437-1.437 1.437 0.641 1.437 1.437zM12 4.156c-1.75 0-5.5-0.141-7.078 0.484-0.547 0.219-0.953 0.484-1.375 0.906s-0.688 0.828-0.906 1.375c-0.625 1.578-0.484 5.328-0.484 7.078s-0.141 5.5 0.484 7.078c0.219 0.547 0.484 0.953 0.906 1.375s0.828 0.688 1.375 0.906c1.578 0.625 5.328 0.484 7.078 0.484s5.5 0.141 7.078-0.484c0.547-0.219 0.953-0.484 1.375-0.906s0.688-0.828 0.906-1.375c0.625-1.578 0.484-5.328 0.484-7.078s0.141-5.5-0.484-7.078c-0.219-0.547-0.484-0.953-0.906-1.375s-0.828-0.688-1.375-0.906c-1.578-0.625-5.328-0.484-7.078-0.484zM24 14c0 1.656 0.016 3.297-0.078 4.953-0.094 1.922-0.531 3.625-1.937 5.031s-3.109 1.844-5.031 1.937c-1.656 0.094-3.297 0.078-4.953 0.078s-3.297 0.016-4.953-0.078c-1.922-0.094-3.625-0.531-5.031-1.937s-1.844-3.109-1.937-5.031c-0.094-1.656-0.078-3.297-0.078-4.953s-0.016-3.297 0.078-4.953c0.094-1.922 0.531-3.625 1.937-5.031s3.109-1.844 5.031-1.937c1.656-0.094 3.297-0.078 4.953-0.078s3.297-0.016 4.953 0.078c1.922 0.094 3.625 0.531 5.031 1.937s1.844 3.109 1.937 5.031c0.094 1.656 0.078 3.297 0.078 4.953z"></path>
</symbol>
<symbol id="icon-phone" viewBox="0 0 22 28">
<title>phone</title>
<path d="M22 19.375c0 0.562-0.25 1.656-0.484 2.172-0.328 0.766-1.203 1.266-1.906 1.656-0.922 0.5-1.859 0.797-2.906 0.797-1.453 0-2.766-0.594-4.094-1.078-0.953-0.344-1.875-0.766-2.734-1.297-2.656-1.641-5.859-4.844-7.5-7.5-0.531-0.859-0.953-1.781-1.297-2.734-0.484-1.328-1.078-2.641-1.078-4.094 0-1.047 0.297-1.984 0.797-2.906 0.391-0.703 0.891-1.578 1.656-1.906 0.516-0.234 1.609-0.484 2.172-0.484 0.109 0 0.219 0 0.328 0.047 0.328 0.109 0.672 0.875 0.828 1.188 0.5 0.891 0.984 1.797 1.5 2.672 0.25 0.406 0.719 0.906 0.719 1.391 0 0.953-2.828 2.344-2.828 3.187 0 0.422 0.391 0.969 0.609 1.344 1.578 2.844 3.547 4.813 6.391 6.391 0.375 0.219 0.922 0.609 1.344 0.609 0.844 0 2.234-2.828 3.187-2.828 0.484 0 0.984 0.469 1.391 0.719 0.875 0.516 1.781 1 2.672 1.5 0.313 0.156 1.078 0.5 1.188 0.828 0.047 0.109 0.047 0.219 0.047 0.328z"></path>
</symbol>
<symbol id="icon-envelope" viewBox="0 0 28 28">
<title>envelope</title>
<path d="M28 11.094v12.406c0 1.375-1.125 2.5-2.5 2.5h-23c-1.375 0-2.5-1.125-2.5-2.5v-12.406c0.469 0.516 1 0.969 1.578 1.359 2.594 1.766 5.219 3.531 7.766 5.391 1.313 0.969 2.938 2.156 4.641 2.156h0.031c1.703 0 3.328-1.188 4.641-2.156 2.547-1.844 5.172-3.625 7.781-5.391 0.562-0.391 1.094-0.844 1.563-1.359zM28 6.5c0 1.75-1.297 3.328-2.672 4.281-2.438 1.687-4.891 3.375-7.313 5.078-1.016 0.703-2.734 2.141-4 2.141h-0.031c-1.266 0-2.984-1.437-4-2.141-2.422-1.703-4.875-3.391-7.297-5.078-1.109-0.75-2.688-2.516-2.688-3.938 0-1.531 0.828-2.844 2.5-2.844h23c1.359 0 2.5 1.125 2.5 2.5z"></path>
</symbol>
<symbol id="icon-placeholder" viewBox="0 0 50 50">
<title>placeholder</title>
<path d="M25 0C11.215 0 0 7.886 0 17.578c0 3.275 1.29 6.47 3.732 9.243l19.845 22.487c.38.43 1.05.692 1.77.692h.017c.726-.004 1.397-.274 1.77-.712l19.34-22.704C48.78 23.87 50 20.756 50 17.578 50 7.886 38.785 0 25 0zm17.898 25.08L25.316 45.72 7.273 25.278c-2.032-2.308-3.134-4.97-3.134-7.7C4.139 9.501 13.512 2.91 25 2.91c11.487 0 20.847 6.591 20.847 14.668 0 2.649-1.03 5.243-2.949 7.502z"/><path d="M25 8.79c-6.892 0-12.5 3.942-12.5 8.788 0 4.815 5.516 8.79 12.5 8.79 7.07 0 12.5-4.027 12.5-8.79 0-4.846-5.608-8.789-12.5-8.789zm0 14.667c-4.619 0-8.361-2.64-8.361-5.879 0-3.23 3.766-5.879 8.361-5.879 4.595 0 8.347 2.648 8.347 5.88 0 3.19-3.655 5.878-8.347 5.878z"/>
</symbol>
<symbol id="icon-service" viewBox="0 0 50 50">
<title>service</title>
<path d="M47.293 36.893c-.233-7.947-2.525-15.37-6.514-21.028-3.868-5.485-8.905-8.707-14.314-9.201V4.155h2.49V0h-7.91v4.155h2.49v2.509c-5.41.494-10.446 3.716-14.314 9.2-3.99 5.659-6.28 13.082-6.514 21.029H0v4.727C0 46.24 2.65 50 5.908 50h38.184C47.35 50 50 46.24 50 41.62v-4.727h-2.707zM25 10.75c10.37 0 18.863 11.608 19.361 26.143H5.64C6.137 22.358 14.63 10.75 25 10.75zm22.07 30.87c0 2.33-1.336 4.225-2.978 4.225H5.908c-1.642 0-2.978-1.895-2.978-4.225v-.572h44.14v.572z"/><path d="M8.364 33.082l2.9.6c.005-.053.582-5.298 2.952-8.252l-1.935-3.122c-3.192 3.98-3.888 10.499-3.917 10.774z"/>
</symbol>
<symbol id="line" viewBox="0 0 50 50">
<title>line</title>
<path fill="#9E9E9E" fill-rule="evenodd" d="M0 2h50V0H0z"/>
</symbol>
<symbol id="icon-chef" viewBox="0 0 100 100">
<title>chef</title>
<path d="M32.9919764,50.8789062 C31.8987542,50.8789062 31.0124578,51.5347656 31.0124578,52.34375 L31.0124578,54.296875 C31.0124578,55.1058594 31.8987542,55.7617188 32.9919764,55.7617188 C34.0851985,55.7617188 34.9714949,55.1058594 34.9714949,54.296875 L34.9714949,52.34375 C34.9714949,51.5347656 34.0851985,50.8789062 32.9919764,50.8789062 Z" id="Path"></path>
<path d="M66.7757601,50.8789062 C65.682538,50.8789062 64.7962416,51.5347656 64.7962416,52.34375 L64.7962416,54.296875 C64.7962416,55.1058594 65.682538,55.7617188 66.7757601,55.7617188 C67.8689823,55.7617188 68.7552787,55.1058594 68.7552787,54.296875 L68.7552787,52.34375 C68.7552787,51.5347656 67.8689823,50.8789062 66.7757601,50.8789062 Z" id="Path"></path>
<path d="M55.0926415,56.4910156 C54.1060494,56.1417969 52.9244088,56.4507812 52.4530194,57.1806641 C52.0133024,57.8611328 51.0565351,58.3007812 50.0158361,58.3007812 C48.9751372,58.3007812 48.0183699,57.8611328 47.5786529,57.1806641 C47.1072635,56.4507812 45.925095,56.1419922 44.9390308,56.4910156 C43.9527027,56.8400391 43.5354202,57.7146484 44.0070735,58.4443359 C45.1008235,60.1369141 47.4593539,61.2304687 50.0158361,61.2304687 C52.5723184,61.2304687 54.9311128,60.1369141 56.0245988,58.4443359 C56.4962521,57.7146484 56.0789696,56.8400391 55.0926415,56.4910156 L55.0926415,56.4910156 Z" id="Path"></path>
<path d="M88.4939823,57.5548828 C94.6951541,57.4341797 99.6906672,53.6662109 99.6906672,49.0486328 C99.6906672,44.5554687 94.9609375,40.8667969 88.9928209,40.5597656 L88.9928209,7.32421875 C88.9928209,3.28554687 84.5528927,0 79.095228,0 L20.6725084,0 C15.2148437,0 10.7749155,3.28554687 10.7749155,7.32421875 L10.7749155,40.5597656 C4.80679899,40.8667969 0.0768053209,44.5554687 0.0768053209,49.0486328 C0.0768053209,53.6634766 5.06651182,57.4298828 11.2629329,57.5546875 C14.6830131,66.0869141 23.0925359,72.9410156 33.8703547,76.4023438 C22.9803632,80.7298828 15.9488492,89.2146484 15.9488492,98.5351562 C15.9488492,99.3441406 16.8351457,100 17.9283678,100 L81.8393687,100 C82.9328547,100 83.8188872,99.3441406 83.8188872,98.5351562 C83.8188872,89.2132812 76.7852618,80.7275391 65.8928948,76.4005859 C76.7153188,72.91875 85.082084,66.0201172 88.4939823,57.5548828 Z M95.731894,49.0486328 C95.731894,51.8011719 93.0249683,54.0933594 89.477935,54.5476562 C89.9292652,52.7646484 90.1678632,50.9269531 90.1678632,49.0486328 C90.1678632,47.2 89.9369193,45.3578125 89.4811022,43.55 C93.0265519,44.0052734 95.731894,46.296875 95.731894,49.0486328 Z M14.7336888,7.32421875 C14.7336888,4.90097656 17.3978568,2.9296875 20.6725084,2.9296875 L79.095492,2.9296875 C82.3698796,2.9296875 85.0340477,4.90097656 85.0340477,7.32421875 L85.0340477,39.8566406 C78.4586149,37.9171875 71.6007707,36.5255859 64.6072635,35.7134766 C63.5267103,35.5875 62.5142525,36.1341797 62.3448057,36.9335937 C62.175359,37.7328125 62.9133235,38.4824219 63.9936128,38.6078125 C70.777027,39.3955078 77.4266258,40.7535156 83.7983003,42.6478516 C77.335568,47.5574219 66.4450486,46.8433594 61.2262458,41.2248047 C60.6094278,40.5605469 59.3829181,40.3900391 58.4818412,40.8433594 C46.0048036,47.1232422 30.1588894,47.6119141 17.125739,42.3136719 C30.0145165,38.6242187 43.3517209,37.2853516 56.2964527,37.9613281 C57.3828125,38.0175781 58.3335093,37.4101562 58.4103146,36.603125 C58.4871199,35.7960937 57.6654878,35.0957031 56.574905,35.0388672 C42.438503,34.3003906 28.1981102,35.8777344 14.7336888,39.85625 L14.7336888,7.32421875 L14.7336888,7.32421875 Z M47.9043497,95.6054688 C47.9043497,94.7976562 48.7922297,94.140625 49.8838682,94.140625 C50.9755068,94.140625 51.8633868,94.7976562 51.8633868,95.6054688 C51.8633868,96.4132813 50.9755068,97.0703125 49.8838682,97.0703125 C48.7922297,97.0703125 47.9043497,96.4132813 47.9043497,95.6054688 Z M79.7941301,97.0703125 L55.4819468,97.0703125 C55.7018053,96.6119141 55.822424,96.1189453 55.822424,95.6054688 C55.822424,93.1822266 53.1585198,91.2109375 49.8838682,91.2109375 C46.6092166,91.2109375 43.9453125,93.1822266 43.9453125,95.6054688 C43.9453125,96.1189453 44.0661951,96.6119141 44.2857897,97.0703125 L19.9736064,97.0703125 C20.7461465,88.4710937 28.2738598,80.8935547 39.2451436,77.8011719 C40.2927048,78.0134766 41.3555743,78.196875 42.4337521,78.3466797 C39.3016258,80.0632812 36.5688345,82.1712891 34.383182,84.5820312 C33.7312606,85.3027344 33.388144,86.1445312 33.388144,87.0214844 L33.388144,92.6757812 C33.388144,93.484375 34.2749683,94.140625 35.3676626,94.140625 C36.4603568,94.140625 37.3471812,93.484375 37.3471812,92.6757812 L37.3471812,87.0214844 C37.3471812,86.7265625 37.4606736,86.4492188 37.6718222,86.2148438 C40.4866976,83.1083984 44.3288112,80.56875 48.7983003,78.846875 C52.7779244,78.9253906 56.7060811,78.5755859 60.5228568,77.8013672 C71.4938767,80.8935547 79.0215899,88.4712891 79.7941301,97.0703125 Z M49.8836043,75.9287109 C31.5466639,75.9287109 16.0465055,65.7886719 13.8286529,52.3421875 C13.6961571,51.5392578 12.7106208,50.9675781 11.6237331,51.065625 C10.5384291,51.1636719 9.76615287,51.8941406 9.89864865,52.6972656 C10.0015836,53.3207031 10.1322318,53.9371094 10.2858425,54.5472656 C6.74065667,54.0917969 4.03584248,51.8003906 4.03584248,49.0488281 C4.03584248,46.2970703 6.74118454,44.0054687 10.2863704,43.5501953 C10.0361592,44.5429687 9.85245988,45.5470703 9.73949535,46.5519531 C9.64896537,47.3580078 10.4587204,48.0660156 11.5482475,48.1332031 C11.6039379,48.1367187 11.6593644,48.1382812 11.714527,48.1382812 C12.7333193,48.1382812 13.5990287,47.5597656 13.6850718,46.7947266 C13.774546,45.9986328 13.914432,45.203125 14.0997149,44.4146484 C28.0505701,50.4748047 45.4447318,50.2986328 59.1398332,44.0199219 C65.9506968,49.9328125 78.059016,50.5142578 85.8453864,45.2599609 C86.0842483,46.5119141 86.2090899,47.7783203 86.2090899,49.0488281 C86.2090899,63.8705078 69.9134291,75.9287109 49.8836043,75.9287109 Z" id="Shape"></path>
<path d="M43.9453125,86.2519531 C43.9453125,88.6751953 46.6092166,90.6464844 49.8838682,90.6464844 C53.1585198,90.6464844 55.822424,88.6751953 55.822424,86.2519531 C55.822424,83.8287109 53.1585198,81.8574219 49.8838682,81.8574219 C46.6092166,81.8574219 43.9453125,83.8287109 43.9453125,86.2519531 Z M49.8838682,84.7871094 C50.9755068,84.7871094 51.8633868,85.4441406 51.8633868,86.2519531 C51.8633868,87.0597656 50.9755068,87.7167969 49.8838682,87.7167969 C48.7922297,87.7167969 47.9043497,87.0597656 47.9043497,86.2519531 C47.9043497,85.4441406 48.7922297,84.7871094 49.8838682,84.7871094 Z" id="Shape"></path>
<path d="M27.0531567,9.47285156 C25.9599345,9.47285156 25.0736381,10.1287109 25.0736381,10.9376953 C25.0736381,11.7466797 25.9599345,12.4025391 27.0531567,12.4025391 C28.1447952,12.4025391 29.0326753,13.0595703 29.0326753,13.8673828 L29.0326753,29.4923828 C29.0326753,29.9548828 28.7426098,30.3814453 28.2366448,30.6625 C27.3624894,31.1484375 27.1861803,32.0666016 27.8425887,32.7134766 C28.499261,33.3607422 29.7405511,33.4908203 30.6141786,33.0050781 C32.1252111,32.1654297 32.9917124,30.8849609 32.9917124,29.4923828 L32.9917124,13.8673828 C32.9917124,11.4441406 30.3275443,9.47285156 27.0531567,9.47285156 L27.0531567,9.47285156 Z" id="Path"></path>
<path d="M51.8633868,13.8673828 L51.8633868,29.4923828 C51.8633868,29.9548828 51.5733214,30.3814453 51.0673564,30.6625 C50.193201,31.1484375 50.0168919,32.0666016 50.6733003,32.7134766 C51.3299726,33.3607422 52.5712627,33.4908203 53.4448902,33.0050781 C54.9559227,32.1654297 55.822424,30.8849609 55.822424,29.4923828 L55.822424,13.8673828 C55.822424,11.4441406 53.1585198,9.47285156 49.8838682,9.47285156 C48.7906461,9.47285156 47.9043497,10.1287109 47.9043497,10.9376953 C47.9043497,11.7466797 48.7906461,12.4025391 49.8838682,12.4025391 C50.9755068,12.4025391 51.8633868,13.0595703 51.8633868,13.8673828 L51.8633868,13.8673828 Z" id="Path"></path>
<path d="M72.7148438,12.4025391 C73.8064823,12.4025391 74.6943623,13.0595703 74.6943623,13.8673828 L74.6943623,29.4923828 C74.6943623,29.9548828 74.4040329,30.3814453 73.8983319,30.6626953 C73.0239126,31.1486328 72.8478674,32.0667969 73.5042758,32.7136719 C73.8933171,33.096875 74.4874367,33.2988281 75.0886824,33.2988281 C75.5022698,33.2988281 75.9195524,33.203125 76.2758657,33.0050781 C77.7868982,32.1652344 78.6533995,30.8849609 78.6533995,29.4923828 L78.6533995,13.8673828 C78.6533995,11.4441406 75.9892314,9.47285156 72.7148437,9.47285156 C71.6213577,9.47285156 70.7353252,10.1287109 70.7353252,10.9376953 C70.7353252,11.7466797 71.6213577,12.4025391 72.7148437,12.4025391 L72.7148438,12.4025391 Z" id="Path"></path>
</symbol>
<symbol id="icon-classes" viewBox="0 0 100 100">
<title>classes</title>
<path d="M93.1732132,33.611302 C96.3482315,33.5784873 98.9509906,31.0593875 99.118057,27.8588105 C99.2049921,26.3600184 98.6554115,24.8955676 97.6068994,23.830998 C96.8864727,23.1174692 95.9717649,22.637459 94.9799497,22.4520178 C94.7947403,21.4507881 94.3192436,20.526635 93.613936,19.7978436 C92.5593763,18.7409051 91.1079393,18.1868712 89.6239962,18.2746314 C88.1392972,18.3463658 86.7354855,18.9790024 85.6907532,20.0466246 C84.0813214,21.640808 83.5332528,24.0317018 84.2831619,26.178393 L82.149852,28.3319524 C80.4655802,28.4891578 78.8380054,29.0294555 77.3903484,29.9123995 C76.7515648,30.2657298 76.1271446,30.647296 75.5027242,31.027336 C74.6953624,31.5279508 73.9091674,31.996514 73.111633,32.3994479 C73.4041883,31.5310032 73.6763327,30.6740057 73.8925365,29.8658485 C74.7664224,27.0628635 74.9501198,24.0874104 74.4277538,21.1966651 C74.1238591,19.7131358 73.6241718,18.278447 72.9415428,16.9292291 L74.35367,13.9781963 C74.3884441,13.9781963 74.423218,13.9865908 74.4572362,13.9865908 C76.6805049,13.9453817 78.686814,12.6320308 79.6317601,10.6005726 C81.0597623,7.82658651 79.9938632,4.40927999 77.2482283,2.96238108 C76.3327648,2.53121116 75.3107113,2.38316358 74.3120925,2.53731622 C73.8124049,1.65589851 73.0655197,0.943132807 72.1651753,0.488305932 C69.3348733,-0.779256836 66.0215148,0.505858025 64.760579,3.36073606 C63.76196,5.40058876 64.0250331,7.84032299 65.4356483,9.61536872 L64.131623,12.3481456 C62.5849354,13.0548062 61.2189217,14.109455 60.1394153,15.4319633 C59.6442637,15.9821819 59.18691,16.5507154 58.7242642,17.119249 C57.7052347,18.5165443 56.4798287,19.7482398 55.0911362,20.7716004 C53.0356898,21.9842177 50.8214925,22.8999765 48.5135566,23.4906408 L47.9874107,23.6577669 C37.3004503,26.9651825 35.6396132,32.376554 36.4416834,36.7439602 C34.5185295,37.9779452 32.7495905,39.4416331 31.1741768,41.1037352 C26.0427423,46.5250274 23.303155,54.3768962 23.303155,63.3238597 L23.1187018,63.3238597 C23.0408382,63.3238597 22.9644864,63.3337804 22.8873789,63.3360699 C22.2062619,60.6246607 19.9172249,58.6328852 17.1602506,58.3543419 C14.4032763,58.0750354 11.7680112,59.5677223 10.5675519,62.0891115 C9.82898203,61.8052263 9.04581104,61.6587049 8.25583609,61.6571787 C5.92597751,61.6350477 3.76091739,62.8652172 2.57028547,64.8867548 C1.37965355,66.9075292 1.34412353,69.4159453 2.47579093,71.4710606 C1.04022902,72.6226272 0.148955971,74.3289912 0.0174195552,76.1750083 C-0.114116976,78.0210253 0.526934343,79.8380436 1.78409046,81.1849721 C0.180706251,82.5273219 -0.414231755,84.7411688 0.296367584,86.7169184 C1.00696692,88.6934312 2.87040025,90.0060189 4.95306113,89.9976244 L5.08535361,89.9976244 C5.90481072,95.7340901 10.7716601,99.9931317 16.5123957,100 L82.5694079,100 C88.3108994,99.9931317 93.1769929,95.7340901 93.9972061,89.9976244 L94.1294984,89.9976244 C96.2030878,90.0060189 98.0612296,88.704115 98.7786325,86.7398125 C99.4952795,84.7747466 98.9184844,82.5670048 97.334755,81.2154974 C99.0031516,78.9169428 99.5126665,75.9636205 98.7128642,73.2300806 C97.9130619,70.4973037 95.8954133,68.2979562 93.2571244,67.2837534 C93.1981597,65.6216511 93.0031229,63.9671802 92.6742817,62.3371295 C91.5297633,57.0623587 89.1515233,52.1409183 85.7383785,47.9833733 C88.4069059,44.4393867 89.5816626,39.9742994 89.0078916,35.5603419 L91.287101,33.2602611 C91.8903546,33.4892008 92.5283821,33.6082495 93.1732132,33.611302 L93.1732132,33.611302 Z M88.0191,22.4039404 C88.4817457,21.9254565 89.1061659,21.640808 89.7676281,21.604941 C90.3247682,21.5683106 90.8713249,21.7682512 91.2757618,22.1574488 C91.6922939,22.597013 91.884307,23.2067558 91.7958601,23.8088672 C91.796616,23.8752595 91.8011516,23.9416521 91.8102231,24.0072816 C91.8011516,24.0721478 91.796616,24.137014 91.7958601,24.2026435 C91.7958601,24.2491945 91.8283661,24.2873512 91.8366816,24.3323759 C91.8601163,24.4399777 91.8941344,24.5437637 91.9379797,24.6444969 C92.0060159,24.8383326 92.1194094,25.0138532 92.268333,25.1542695 C92.3439287,25.238214 92.4293517,25.3122378 92.5223345,25.3763409 C92.6039778,25.4297603 92.6909129,25.4747849 92.7816277,25.5114153 C92.8874614,25.5594927 92.9978312,25.596123 93.1119807,25.6197802 C93.158094,25.6281747 93.19438,25.6564105 93.2420053,25.6632787 C93.3055056,25.6609894 93.3682501,25.6548843 93.4302385,25.6464898 C93.4967626,25.6564105 93.5632868,25.6617525 93.6305669,25.6632787 C94.20585,25.5640715 94.7947403,25.7411182 95.2233679,26.1417627 C95.6512393,26.5424071 95.8712227,27.1216246 95.8167938,27.7084733 C95.7827758,28.3777405 95.5000479,29.0088508 95.0260632,29.4774142 C94.2421359,30.3580688 92.9403785,30.5328263 91.9561227,29.8887424 C91.9115214,29.8559278 91.8601163,29.8490597 91.814003,29.8208236 C91.6983415,29.7452737 91.5728528,29.6857493 91.4420721,29.6422508 C91.3642087,29.6201198 91.2848331,29.6048573 91.2047018,29.5956996 C91.0814808,29.5750951 90.9575039,29.568227 90.8327711,29.5758582 C90.7420563,29.5857789 90.6520974,29.6040941 90.5636505,29.6292776 C90.4540368,29.6544609 90.3466908,29.6918543 90.2453927,29.7406948 C90.0972252,29.8391388 89.9498136,29.9383461 89.802402,30.0375532 L87.9034387,31.9598836 C87.5904727,31.3264839 87.1920834,30.739635 86.7196105,30.2176525 C86.4293231,29.9131626 86.1103093,29.6369088 85.7678609,29.3942326 L87.4687635,27.6764219 C87.5103411,27.6237656 87.547383,27.568057 87.5814012,27.5100589 C87.6517051,27.4253514 87.7121816,27.3330122 87.7628308,27.2353313 C87.811212,27.1315453 87.8482539,27.0231806 87.8739563,26.9117632 C87.898903,26.8232398 87.9162899,26.7331903 87.9261175,26.6416144 C87.9336769,26.5164607 87.9268734,26.3905437 87.9064625,26.2661533 C87.897391,26.1844981 87.8822719,26.103606 87.8603492,26.0250035 C87.8187715,25.8922184 87.7613188,25.7655385 87.6887469,25.648016 C87.6607766,25.601465 87.653973,25.549572 87.6207109,25.5045471 C86.9811714,24.5124751 87.1497498,23.1983613 88.0191,22.4039404 L88.0191,22.4039404 Z M67.7314889,4.80916114 C68.2168132,3.62859556 69.5397374,3.04632554 70.7273455,3.49046846 C71.2640749,3.76901191 71.644321,4.28107376 71.7577146,4.87936951 C71.7803932,4.9404201 71.8068517,4.99994433 71.83709,5.05794238 C71.8484294,5.12280858 71.8643045,5.1869117 71.8847153,5.24948865 C71.9058821,5.29298715 71.9444358,5.31817046 71.9686264,5.35937971 C72.0268352,5.4547712 72.0941153,5.54329455 72.1704669,5.62418668 C72.2385031,5.70355244 72.3133427,5.77528678 72.3949862,5.8393899 C72.4781413,5.90044049 72.5673441,5.95309657 72.661083,5.99659526 C72.7548214,6.04543573 72.8538518,6.08435533 72.9566619,6.11335446 C73.0534244,6.13701161 73.1524548,6.15151098 73.252241,6.15608987 C73.3656345,6.16601054 73.4805399,6.16295801 73.5939335,6.14769537 C73.6377789,6.1507479 73.6816245,6.1507479 73.726226,6.14769537 C73.7867025,6.12480149 73.845667,6.09809181 73.9023638,6.0683296 C73.9666201,6.05611949 74.0293646,6.04009376 74.090597,6.01948913 C74.6265705,5.73636699 75.2608181,5.71805181 75.8119107,5.96988558 C76.8951966,6.62999501 77.2678833,8.03721104 76.6555582,9.15519987 C76.2027403,10.2480054 75.0302513,10.8470642 73.8895126,10.5677579 C73.8396194,10.5509691 73.7919943,10.5677579 73.742101,10.5509691 C73.6067847,10.517391 73.4676887,10.5013653 73.3278367,10.5044178 C73.2454375,10.5097598 73.1637942,10.5219699 73.0836626,10.5387589 C72.9619537,10.5601265 72.8432685,10.5959937 72.7298749,10.6440711 C72.6467197,10.6845171 72.5665882,10.7310681 72.4909926,10.7844875 C72.396498,10.844775 72.308807,10.9149831 72.2294316,10.9943489 C72.1523239,11.0767672 72.0842879,11.1668167 72.0268352,11.2644977 C71.9837457,11.3148645 71.9436799,11.3675206 71.9073939,11.4224661 L70.7371729,13.8713577 C70.2314379,13.3776113 69.6637143,12.9540728 69.0476095,12.6114262 C68.6771908,12.4221694 68.290141,12.2687798 67.8917517,12.1527837 L68.9289244,9.97709355 C68.9485793,9.91527968 68.9644544,9.85270293 68.9765497,9.78859981 C69.0604609,9.57721201 69.0899431,9.3482725 69.0627289,9.12238533 C69.0566812,9.02546747 69.0430739,8.9293127 69.0211512,8.83544757 C68.9878891,8.71945145 68.9410197,8.60727095 68.8820552,8.50195859 C68.8465251,8.42640863 68.8049475,8.35391101 68.7588342,8.285229 C68.6734111,8.17381178 68.5743807,8.07307831 68.464767,7.9868444 C68.4247012,7.95479275 68.4035346,7.90976789 68.3604449,7.88000568 C67.4283503,7.15350369 67.1614976,5.84931057 67.7314889,4.80916114 L67.7314889,4.80916114 Z M48.9527675,26.841555 L49.4781574,26.6751922 C52.0869642,26.0013463 54.5861571,24.9512762 56.8978727,23.5577965 C58.5685372,22.3566263 60.0426528,20.8990436 61.2657909,19.2377043 C61.6974423,18.7042748 62.1313613,18.1723716 62.5872033,17.6557311 C63.3862495,16.5865827 64.4763392,15.7761361 65.7251798,15.3220723 C66.3322129,15.1671565 66.9762882,15.2556799 67.519821,15.5700904 C68.0164847,15.8463442 68.463255,16.2050165 68.8412334,16.6323706 C69.1179137,16.9399128 69.3635996,17.2756911 69.5745115,17.6328372 C69.6024819,17.6977034 69.6349881,17.7610434 69.6720299,17.8228571 C70.3969925,19.0721047 70.9072633,20.4358222 71.1824314,21.8567745 C71.6042553,24.2400369 71.4371889,26.691218 70.6971072,28.9935882 C70.2639441,30.5503782 69.7446018,32.0812217 69.1436161,33.5800136 C67.5243568,33.7341663 65.8960259,33.761639 64.2729869,33.663195 C56.1487198,31.0029158 47.3357759,31.4783471 39.5378781,34.9971504 C39.5184273,32.7031744 40.905608,29.3324189 48.9527675,26.841555 Z M16.5123957,61.6571787 C17.8663141,61.659468 19.0788689,62.501203 19.566461,63.7756341 C17.7302421,64.2335135 15.9991011,65.0416705 14.4652649,66.1581331 C14.2127752,65.4102635 13.8272374,64.71505 13.32755,64.1075965 C13.7093081,62.6515402 15.0208931,61.6426791 16.5123957,61.6571787 Z M8.25583609,64.9913038 C9.08058495,64.9943564 9.87358353,65.30953 10.4798609,65.8734848 C11.1708053,66.4969639 11.5631469,67.3898288 11.55865,68.325429 L11.5434921,68.6184718 C11.526861,68.7665196 11.4973786,68.913041 11.4558009,69.0557468 C10.8714464,69.8028532 10.3581519,70.6041423 9.92347677,71.4496929 C9.90079797,71.4924283 9.88038728,71.5359268 9.86224432,71.5809517 C8.80768461,73.6711712 8.2573481,75.982699 8.25583609,78.3278046 L8.25583609,79.9952487 L6.60407066,79.9952487 C5.01126975,79.989907 3.64827969,78.8368139 3.36479606,77.2540774 C3.08131223,75.671341 3.95746614,74.1099721 5.44821284,73.5414386 C5.46333198,73.5414386 5.47315937,73.5231234 5.48979051,73.5170184 C5.57294566,73.475046 5.65232107,73.4262056 5.72716083,73.3697339 C5.84357808,73.3056307 5.95167994,73.2277911 6.04919831,73.1385047 C6.06431764,73.1232421 6.08397242,73.1186632 6.09909155,73.1018744 C6.14444896,73.0392974 6.18375871,72.972905 6.21777671,72.90346 C6.28883674,72.8095946 6.34931328,72.7080981 6.39769451,72.6012595 C6.43246843,72.5028155 6.45817105,72.4005557 6.4740461,72.2967697 C6.49899262,72.1929837 6.51486766,72.0876715 6.52015941,71.9815961 C6.51411176,71.8648369 6.4974808,71.7496039 6.46875435,71.6358972 C6.4627067,71.5580576 6.45061139,71.4809813 6.43246843,71.404668 C6.43246843,71.3825372 6.4075219,71.369564 6.39920633,71.3497225 C6.35384893,71.248989 6.29866413,71.1535975 6.23440786,71.0643111 C6.17997897,70.9696825 6.1157225,70.8811593 6.04315066,70.7995041 C6.0265197,70.7827151 6.02122796,70.7613474 6.00459701,70.7460848 C5.32952749,70.1264213 4.94701347,69.2465298 4.95306113,68.325429 C4.95306113,66.4839907 6.43171252,64.9913038 8.25583609,64.9913038 L8.25583609,64.9913038 Z M82.5694079,96.6658747 L16.5123957,96.6658747 C15.9854938,96.661296 15.460104,96.6055874 14.9437855,96.4995119 C14.778987,96.4659341 14.6134324,96.4094622 14.4569493,96.3659637 C14.1205486,96.2835454 13.7894395,96.1805227 13.46589,96.0576582 C13.2844604,95.9843975 13.1128581,95.8905322 12.9374762,95.8073508 C12.6577723,95.6738028 12.3848719,95.524992 12.121799,95.3609185 C11.9562444,95.2502643 11.7914459,95.1335049 11.6258914,95.012167 C11.3832291,94.8320678 11.1503946,94.6382321 10.929655,94.4321864 C10.7807316,94.2955857 10.6355879,94.1551694 10.4980039,94.0071218 C10.2908716,93.7797082 10.0958349,93.541611 9.91364919,93.293593 C9.79798785,93.1348615 9.67627886,92.9814719 9.57195693,92.8166353 C9.39581886,92.5319868 9.23631194,92.2366548 9.09494818,91.932928 C9.02010841,91.7780121 8.9293936,91.6314907 8.86816115,91.471233 C8.68597543,91.0217481 8.54234375,90.5570003 8.44028954,90.0823321 C8.44028954,90.0525699 8.42063476,90.0258602 8.41458711,89.9960982 L90.6611689,89.9960982 C89.8727061,93.8750997 86.4920676,96.661296 82.5694079,96.6658747 L82.5694079,96.6658747 Z M94.1294984,86.6634992 L4.95306113,86.6634992 C4.04062129,86.6634992 3.30129569,85.9171557 3.30129569,84.9960551 C3.30129569,84.0757174 4.04062129,83.3293741 4.95306113,83.3293741 L94.1294984,83.3293741 C95.0411823,83.3293741 95.7805079,84.0757174 95.7805079,84.9960551 C95.7805079,85.9171557 95.0411823,86.6634992 94.1294984,86.6634992 Z M95.7805079,75.82702 C95.7789961,77.4082302 95.1273613,78.9169428 93.9820868,79.9952487 L90.8577176,79.9952487 C92.092951,77.1159505 92.8685625,74.0580791 93.1565822,70.9345785 C94.8000321,72.0075425 95.7888235,73.8512702 95.7805079,75.82702 Z M89.9679566,67.5416922 C90.0790823,71.8572055 89.1364041,76.1345622 87.2230776,79.9952487 L11.5586111,79.9952487 L11.5586111,78.3278046 C11.5661707,71.8862046 16.7369149,66.6656161 23.1187018,66.6579849 L23.4271321,66.6579849 C23.5533768,68.4490565 23.7862114,70.2302073 24.1241242,71.9930431 C24.2813632,72.7691487 24.9579445,73.3269984 25.7426275,73.3269984 C25.8537532,73.3269984 25.9641228,73.3163145 26.0729805,73.2934206 C26.502364,73.2056604 26.8795864,72.9484848 27.1214926,72.5798918 C27.3633988,72.2105358 27.4503338,71.7595245 27.3626428,71.3260654 C26.940063,69.213715 26.6860615,67.0708394 26.6013944,64.9180431 C26.2559222,56.1557577 28.7331924,48.5168029 33.5599761,43.40229 C38.6551248,38.0740999 45.7210523,35.1329878 53.0553448,35.288667 C52.1580241,35.7244154 51.3317634,36.2960017 50.6060449,36.984347 C48.7615105,38.8364692 47.774987,41.3883837 47.8898924,44.0127959 C47.7447487,49.4272197 49.3005076,54.7493048 52.334918,59.2166814 C54.5453354,62.5912527 58.2759819,64.6318685 62.2833088,64.6578151 L62.5259708,64.6578151 C70.734905,64.5028992 79.0912509,56.5556389 83.7071227,50.7428599 C86.5124782,54.3402658 88.4719181,58.5336779 89.4387868,63.0071598 C89.7419255,64.501373 89.9188194,66.0177168 89.9679566,67.5416922 L89.9679566,67.5416922 Z M85.7066284,39.6514945 C85.3331857,42.041625 84.3761446,44.3004968 82.9224397,46.2251164 C79.0239708,51.9882919 70.0182582,61.180221 62.4647384,61.3236897 L62.2886003,61.3236897 C59.3282737,61.2885857 56.5849067,59.750874 54.990594,57.2325373 C52.3764955,53.3397993 51.0475236,48.7129279 51.1926673,44.0127959 C51.0845655,42.2972744 51.702938,40.6168569 52.8935699,39.3882137 C54.5748177,37.7574 57.5434599,36.932454 61.7299483,36.932454 C62.172939,36.932454 62.6318048,36.9423746 63.100498,36.9606898 L63.5601197,36.979005 C63.709799,36.979005 63.8617465,36.9873995 64.0106699,36.9942676 L64.0567832,36.9942676 L64.0930691,36.9942676 C66.6308159,37.1972609 69.1836819,37.0324244 71.6745593,36.5043368 C73.6430706,35.9197773 75.5102839,35.0337807 77.2119424,33.8768721 C77.7947851,33.5212523 78.3814075,33.1633433 78.9808813,32.8298545 C82.2420786,31.021231 83.4773119,31.6080797 84.3247395,32.5116284 C84.7042297,32.9267724 85.0058565,33.4098351 85.2129886,33.9348701 C85.8479922,35.7686772 86.0180826,37.7345061 85.7066284,39.6514945 L85.7066284,39.6514945 Z" id="Shape"></path>
<path d="M36.9300018,43.7601689 C36.7089943,43.9838478 31.5404112,49.3918345 31.5404112,61.6162976 C31.5404112,62.5369683 32.2731077,63.2835821 33.1773663,63.2835821 C34.0808758,63.2835821 34.8135723,62.5369683 34.8135723,61.6162976 C34.8135723,50.9545321 39.1490689,46.2198717 39.2509571,46.1068872 C39.8690294,45.4503558 39.8577919,44.4098297 39.2247358,43.7685664 C38.59168,43.1273031 37.5705495,43.1211959 36.9300018,43.754825 L36.9300018,43.7601689 Z" id="Path"></path>
<path d="M32.9488519,66.5671642 C32.0152627,66.5671642 31.2588003,67.3244093 31.2588003,68.2589645 L31.2588003,69.9507649 C31.2588003,70.8845459 32.0152627,71.641791 32.9488519,71.641791 C33.8816677,71.641791 34.6381301,70.8845459 34.6381301,69.9507649 L34.6381301,68.2589645 C34.6381301,67.3244093 33.8816677,66.5671642 32.9488519,66.5671642 Z" id="Path"></path>
</symbol>
<symbol id="icon-mezcal" viewBox="0 0 100 100">
<title>mezcal</title>
<path d="M35.7164754,30.9926027 C33.8508297,29.7801276 32.8233725,28.1680782 32.8233725,26.4536524 L32.8233725,1.48140458 C32.8233725,0.663155821 31.802969,0 30.5439229,0 L13.5238737,0 C12.2660028,0 11.2444238,0.663155821 11.2444238,1.48140458 L11.2444238,26.4536524 C11.2444238,28.1680782 10.2169669,29.7801276 8.35249669,30.9926027 L4.22856162,33.6727299 C1.50121574,35.4444562 0,37.8006457 0,40.3065802 L0,69.5083565 C0,70.3266051 1.02040355,70.9897611 2.27944993,70.9897611 C3.53849602,70.9897611 4.55889986,70.3266051 4.55889986,69.5083565 L4.55889986,40.3065802 C4.55889986,38.5921543 5.58635674,36.9801051 7.45200247,35.7676301 L11.5759375,33.0875026 C14.3021079,31.3150124 15.8033237,28.9588228 15.8033237,26.4536524 L15.8033237,11.8512363 L28.264473,11.8512363 L28.264473,26.4536524 C28.264473,28.9595868 29.7656887,31.3150124 32.4930346,33.0875026 L36.6157941,35.7668661 C38.4814399,36.9801051 39.5088967,38.5921543 39.5088967,40.3065802 L39.5088967,69.5083565 C39.5088967,70.3266051 40.5293003,70.9897611 41.7883467,70.9897611 C43.0473928,70.9897611 44.0677966,70.3266051 44.0677966,69.5083565 L44.0677966,40.3065802 C44.0677966,37.8006457 42.5665806,35.4444562 39.8392347,33.6719659 L35.7164754,30.9926027 Z M15.8033237,2.96280917 L28.264473,2.96280917 L28.264473,8.88842711 L15.8033237,8.88842711 L15.8033237,2.96280917 Z" id="Shape"></path>
<path d="M41.7883467,74.7440273 C40.5293003,74.7440273 39.5088967,75.4091016 39.5088967,76.2297177 L39.5088967,97.0286188 L4.55889986,97.0286188 L4.55889986,76.2297177 C4.55889986,75.4091016 3.53849602,74.7440273 2.27944993,74.7440273 C1.02040355,74.7440273 0,75.4091016 0,76.2297177 L0,98.5143094 C0,99.3349255 1.02040355,100 2.27944993,100 L41.7883467,100 C43.0473928,100 44.0677966,99.3349255 44.0677966,98.5143094 L44.0677966,76.2297177 C44.0677966,75.4091016 43.0473928,74.7440273 41.7883467,74.7440273 L41.7883467,74.7440273 Z" id="Path"></path>
<path d="M11.5812035,76.4505119 L32.0628643,76.4505119 C33.3107089,76.4505119 34.3220339,75.7837924 34.3220339,74.9619144 L34.3220339,45.1753724 C34.3220339,44.3527264 33.3107089,43.6860068 32.0628643,43.6860068 L11.5812035,43.6860068 C10.3333589,43.6860068 9.3220339,44.3527264 9.3220339,45.1753724 L9.3220339,74.9619144 C9.3220339,75.7845604 10.3333589,76.4505119 11.5812035,76.4505119 Z M13.8403728,46.6647378 L29.8048601,46.6647378 L29.8048601,73.4725491 L13.8403728,73.4725491 L13.8403728,46.6647378 Z" id="Shape"></path>
<path d="M11.5812035,82.5938567 L32.0628643,82.5938567 C33.3107089,82.5938567 34.3220339,81.9063345 34.3220339,81.0580206 C34.3220339,80.2097067 33.3107089,79.5221843 32.0628643,79.5221843 L11.5812035,79.5221843 C10.3333589,79.5221843 9.3220339,80.2097067 9.3220339,81.0580206 C9.3220339,81.9063345 10.3333589,82.5938567 11.5812035,82.5938567 Z" id="Path"></path>
<path d="M11.5812035,88.7372014 L32.0628643,88.7372014 C33.3107089,88.7372014 34.3220339,88.0496791 34.3220339,87.2013652 C34.3220339,86.3530515 33.3107089,85.665529 32.0628643,85.665529 L11.5812035,85.665529 C10.3333589,85.665529 9.3220339,86.3530515 9.3220339,87.2013652 C9.3220339,88.0496791 10.3333589,88.7372014 11.5812035,88.7372014 Z" id="Path"></path>
<path d="M95.5148744,82.9601076 C95.0914002,82.6844745 94.516268,82.528814 93.9154711,82.528814 C93.3158404,82.528814 92.7407085,82.6844745 92.3160674,82.9601076 L87.7955065,85.9024711 L90.3410199,71.6075193 C90.4156821,71.1898934 90.2126941,70.7722677 89.7833867,70.4586687 C89.3540792,70.1450696 88.7392829,69.9658703 88.0941552,69.9658703 L83.1676188,69.9658703 C81.918194,69.9658703 80.9055887,70.6249596 80.9055887,71.438191 C80.9055887,72.2506631 81.918194,72.9105118 83.1676188,72.9105118 L85.554475,72.9105118 L84.7156922,77.621331 L56.4875607,77.621331 L55.6487778,72.9105118 L72.574924,72.9105118 C73.8243488,72.9105118 74.8369544,72.2506631 74.8369544,71.438191 C74.8369544,70.6249596 73.8243488,69.9658703 72.574924,69.9658703 L53.1090977,69.9658703 C52.4639697,69.9658703 51.8491736,70.1450696 51.4198662,70.4586687 C50.9917252,70.7722677 50.7887376,71.1898934 50.862233,71.6075193 L52.2224844,79.2439971 C52.2224844,79.2439971 52.223651,79.2447563 52.223651,79.2447563 L55.6884422,98.6970075 C55.8202676,99.4396222 56.7862093,100 57.9353066,100 L83.2691127,100 L84.6713614,100 C88.7684477,100 92.6193825,98.9612507 95.516041,97.0766194 C101.494847,93.1843467 101.494847,86.8523801 95.5148744,82.9601076 C95.0914002,82.6844745 101.494847,86.8523801 95.5148744,82.9601076 L95.5148744,82.9601076 Z M57.0125289,80.5659727 L84.1918905,80.5659727 L82.6449836,89.2556267 L73.8278486,94.9945648 C72.9552346,95.5625359 72.9459018,96.4790348 73.7986835,97.0553583 L59.9500186,97.0553583 L57.0125289,80.5659727 Z M92.3160674,94.9945648 C90.2745237,96.3233743 87.5598542,97.0553583 84.6713614,97.0553583 C82.5528224,97.0553583 80.5276112,96.6612715 78.7928827,95.9270093 L93.7474812,86.1932906 C96.4609841,88.918489 95.9838463,92.6072638 92.3160674,94.9945648 L92.3160674,94.9945648 Z" id="Shape"></path>
</symbol>
</defs>
</svg>
