<svg xmlns="http://www.w3.org/2000/svg" xmlns:xlink="http://www.w3.org/1999/xlink"><symbol id="about-line" viewBox="0 0 84 4"><path fill="none" stroke="#FCDE61" stroke-linecap="square" stroke-width="4" d="M2 2h80"/></symbol><symbol id="calendar" viewBox="0 0 50 50"><g fill="#C6C4C4"><path d="M44.14 3.906h-2.343V0H37.89v3.906H12.109V0H8.203v3.906H5.86A5.866 5.866 0 0 0 0 9.766V44.14C0 47.37 2.629 50 5.86 50h38.28A5.867 5.867 0 0 0 50 44.14V9.767a5.867 5.867 0 0 0-5.86-5.86zm1.954 40.235a1.955 1.955 0 0 1-1.953 1.953H5.859a1.955 1.955 0 0 1-1.953-1.953V18.359h42.188v25.782zm0-29.688H3.906V9.766c0-1.077.876-1.954 1.953-1.954h2.344v3.907h3.906V7.813h25.782v3.906h3.906V7.813h2.344c1.077 0 1.953.876 1.953 1.953v4.687z"/><path d="M7.42 22.46h3.91v5H7.42zm7.81 0h3.91v5h-3.91zm7.82 0h3.91v5h-3.91zm7.81 0h3.91v5h-3.91zm7.81 0h3.91v5h-3.91zM7.42 30.27h3.91v5H7.42zm7.81 0h3.91v5h-3.91zm7.82 0h3.91v5h-3.91zm7.81 0h3.91v5h-3.91zM7.42 38.09h3.91v5H7.42zm7.81 0h3.91v5h-3.91zm7.82 0h3.91v5h-3.91zm7.81 0h3.91v5h-3.91zm7.81-7.82h3.91v5h-3.91z"/></g></symbol><symbol id="cooking" viewBox="0 0 50 50"><path fill="#C6C4C4" d="M44.118 10.028c2.066 0 3.747 1.835 3.747 4.09 0 2.256-1.681 4.092-3.747 4.092-2.065 0-3.746-1.836-3.746-4.091 0-2.256 1.68-4.091 3.746-4.091zm0 2.829c-.637 0-1.155.566-1.155 1.262 0 .695.518 1.261 1.155 1.261.638 0 1.156-.566 1.156-1.261 0-.696-.518-1.262-1.156-1.262zm5.87 17.67v1.696c0 2.21-1.647 4.008-3.67 4.008h-1.08v7.626c0 3.354-2.497 6.082-5.568 6.082H10.403c-3.07 0-5.568-2.728-5.568-6.082v-7.626h-1.08c-2.023 0-3.67-1.798-3.67-4.008v-1.696c0-2.21 1.647-4.008 3.67-4.008h1.08v-4.18c0-.781.58-1.415 1.295-1.415h37.813c.716 0 1.296.634 1.296 1.415v4.18h1.079c2.023 0 3.67 1.798 3.67 4.008zM4.835 29.348h-1.08c-.595 0-1.079.53-1.079 1.179v1.696c0 .65.484 1.179 1.08 1.179h1.079v-4.054zm37.813-5.594H7.426v20.103c0 1.794 1.335 3.253 2.977 3.253H39.67c1.642 0 2.978-1.46 2.978-3.253V23.754zm4.749 6.773c0-.65-.484-1.179-1.079-1.179h-1.08v4.054h1.08c.595 0 1.079-.53 1.079-1.179v-1.696zM40.705 3.198c.331 0 .663-.138.915-.414l.175-.19a1.508 1.508 0 0 0 0-2 1.22 1.22 0 0 0-1.831-.001l-.175.19a1.508 1.508 0 0 0 0 2c.253.277.584.415.916.415zm-10.737 14.93c0 .78.58 1.414 1.296 1.414.715 0 1.295-.633 1.295-1.414 0-1.118.833-2.027 1.856-2.027 1.023 0 1.855.91 1.855 2.027 0 .78.58 1.414 1.296 1.414.715 0 1.295-.633 1.295-1.414 0-2.678-1.995-4.856-4.446-4.856-2.452 0-4.447 2.178-4.447 4.856zM5.775 16.01c-.165-.76.266-1.522.962-1.702l14.072-3.633-.248-1.147c-.466-2.151.758-4.314 2.727-4.823l1.511-.39c1.969-.508 3.95.828 4.416 2.978l.249 1.147 14.071-3.633c.696-.18 1.395.29 1.559 1.05.165.761-.266 1.523-.963 1.703L7.333 17.061c-.1.026-.2.039-.299.039-.587 0-1.118-.439-1.26-1.09zm17.307-7.133l.248 1.147 3.612-.933-.248-1.147c-.117-.541-.561-.907-1.05-.907a.997.997 0 0 0-.248.031l-1.512.39c-.58.15-.939.786-.802 1.419z"/></symbol><symbol id="envelope-form" viewBox="0 0 34 26"><defs><path id="a" d="M36.035 15.755a.392.392 0 0 1 .632.306v13.314c0 1.725-1.4 3.125-3.125 3.125H6.458a3.126 3.126 0 0 1-3.125-3.125V16.068a.39.39 0 0 1 .632-.306c1.458 1.133 3.392 2.571 10.032 7.396C15.371 24.16 17.69 26.27 20 26.257c2.324.019 4.688-2.136 6.01-3.1 6.64-4.824 8.567-6.269 10.025-7.402zM20 24.167c1.51.026 3.685-1.901 4.779-2.696 8.639-6.27 9.297-6.816 11.289-8.379.377-.293.599-.748.599-1.23v-1.237c0-1.725-1.4-3.125-3.125-3.125H6.458a3.126 3.126 0 0 0-3.125 3.125v1.237c0 .482.222.931.6 1.23 1.991 1.556 2.649 2.11 11.288 8.38 1.094.794 3.269 2.72 4.779 2.695z"/></defs><g fill="none" fill-rule="evenodd" transform="translate(-3 -7)"><mask id="b" fill="#fff"><use xlink:href="#a"/></mask><g fill="#CACACA" mask="url(#b)"><path d="M0 0h40v40H0z"/></g></g></symbol><symbol id="cutlery" viewBox="0 0 50 50"><path fill="#C6C4C4" d="M13.794 3.118C12.283 1.108 10.244 0 8.05 0 5.858 0 3.819 1.108 2.308 3.118.871 5.03.08 7.554.08 10.226c0 2.671.791 5.196 2.228 7.108.84 1.118 1.845 1.956 2.947 2.48L3.57 45.122a4.494 4.494 0 0 0 1.202 3.36 4.512 4.512 0 0 0 3.28 1.42 4.51 4.51 0 0 0 3.28-1.419 4.494 4.494 0 0 0 1.201-3.361l-1.686-25.308c1.103-.524 2.107-1.362 2.948-2.48 1.436-1.912 2.228-4.437 2.228-7.108 0-2.672-.791-5.196-2.228-7.108zM9.656 46.919c-.42.448-.99.695-1.605.695a2.18 2.18 0 0 1-1.605-.695 2.171 2.171 0 0 1-.589-1.645l1.656-24.848c.178.015.357.026.538.026.18 0 .36-.01.537-.026l1.656 24.848a2.17 2.17 0 0 1-.588 1.645zM8.05 18.162a4.14 4.14 0 0 1-1.296-.21c-2.508-.822-4.382-3.973-4.382-7.726 0-4.376 2.547-7.937 5.678-7.937 3.13 0 5.677 3.56 5.677 7.937 0 4.376-2.547 7.936-5.677 7.936zm41.87 11.655V1.289l-.01.004A1.148 1.148 0 0 0 48.17.17c-4.678 2.887-7.471 7.887-7.472 13.375v14.992a2.433 2.433 0 0 0 2.36 2.426v15.499a3.432 3.432 0 0 0 6.862 0V29.817zm-6.788-1.14a.14.14 0 0 1-.14-.14V13.55c0-3.96 1.7-7.622 4.634-10.15v25.278h-4.494zm4.495 17.785a1.138 1.138 0 0 1-2.276 0V30.967h2.276v15.495zM32.5 0c-.633 0-1.147.513-1.147 1.145v13.002h-2.922V1.145a1.146 1.146 0 0 0-2.293 0v13.002h-2.922V1.145a1.146 1.146 0 0 0-2.294 0v16.567a3.39 3.39 0 0 0 3.39 3.384h.204l-1.609 24.137a4.386 4.386 0 0 0 1.174 3.282 4.406 4.406 0 0 0 3.203 1.388c1.21 0 2.378-.506 3.204-1.388a4.386 4.386 0 0 0 1.173-3.281l-1.609-24.138h.205a3.39 3.39 0 0 0 3.39-3.384V1.145C33.647.513 33.133 0 32.5 0zm-3.687 46.951c-.4.427-.943.663-1.529.663a2.074 2.074 0 0 1-1.528-.663 2.065 2.065 0 0 1-.56-1.565l1.619-24.29h.939l1.619 24.29a2.064 2.064 0 0 1-.56 1.565zm2.54-29.239c0 .604-.492 1.095-1.096 1.095h-5.945a1.097 1.097 0 0 1-1.096-1.095v-1.276h8.137v1.276z"/></symbol><symbol id="envelope" viewBox="0 0 31 23"><defs><path id="a" d="M31.53 13.786a.343.343 0 0 1 .553.268v11.65a2.735 2.735 0 0 1-2.734 2.734H5.651a2.735 2.735 0 0 1-2.734-2.735V14.06a.34.34 0 0 1 .552-.267c1.276.99 2.968 2.25 8.779 6.47 1.202.878 3.23 2.724 5.252 2.712 2.034.018 4.102-1.868 5.258-2.711 5.81-4.221 7.497-5.486 8.773-6.477zm-14.03 7.36c1.322.023 3.224-1.664 4.181-2.359 7.56-5.485 8.135-5.964 9.878-7.331.33-.256.524-.655.524-1.077V9.297a2.735 2.735 0 0 0-2.734-2.735H5.651a2.735 2.735 0 0 0-2.734 2.735v1.082c0 .422.193.815.524 1.077 1.743 1.361 2.318 1.846 9.878 7.331.957.695 2.86 2.382 4.181 2.359z"/></defs><g fill="none" fill-rule="evenodd" transform="translate(-2 -6)"><mask id="b" fill="#fff"><use xlink:href="#a"/></mask><g fill="#FFF" mask="url(#b)"><path d="M0 0h35v35H0z"/></g></g></symbol><symbol id="exclamation" viewBox="0 0 50 50"><g fill="#C6C4C4"><path d="M25 0C11.181 0 0 11.182 0 25c0 13.819 11.182 25 25 25 13.819 0 25-11.182 25-25C50 11.181 38.818 0 25 0zm0 46.094C13.34 46.094 3.906 36.659 3.906 25 3.906 13.34 13.341 3.906 25 3.906c11.66 0 21.094 9.435 21.094 21.094 0 11.66-9.435 21.094-21.094 21.094z"/><path d="M25 12.586a1.953 1.953 0 0 0-1.953 1.953v12.577a1.953 1.953 0 1 0 3.906 0V14.54A1.953 1.953 0 0 0 25 12.586z"/><circle cx="25" cy="34.1" r="2.64"/></g></symbol><symbol id="instagram" viewBox="0 0 31 31"><defs><path id="a" d="M17.507 9.639a7.842 7.842 0 0 0-7.855 7.854 7.842 7.842 0 0 0 7.855 7.855 7.842 7.842 0 0 0 7.854-7.855 7.842 7.842 0 0 0-7.854-7.854zm0 12.96a5.116 5.116 0 0 1-5.107-5.106 5.111 5.111 0 0 1 5.107-5.106 5.111 5.111 0 0 1 5.106 5.106 5.116 5.116 0 0 1-5.106 5.107zM27.515 9.318c0 1.019-.82 1.832-1.832 1.832a1.832 1.832 0 1 1 1.832-1.832zm5.202 1.86c-.116-2.454-.677-4.628-2.475-6.42-1.79-1.79-3.965-2.35-6.419-2.474-2.53-.143-10.11-.143-12.64 0-2.447.116-4.62.677-6.418 2.468S2.413 8.716 2.29 11.17c-.144 2.53-.144 10.11 0 12.64.116 2.454.677 4.628 2.475 6.419 1.797 1.79 3.964 2.351 6.419 2.474 2.529.144 10.11.144 12.64 0 2.453-.116 4.627-.677 6.418-2.474 1.791-1.791 2.352-3.965 2.475-6.42.143-2.529.143-10.103 0-12.632zm-3.268 15.346a5.17 5.17 0 0 1-2.912 2.913c-2.016.8-6.802.615-9.03.615-2.229 0-7.02.178-9.03-.615a5.17 5.17 0 0 1-2.913-2.913c-.8-2.016-.615-6.801-.615-9.03 0-2.228-.178-7.02.615-9.03A5.17 5.17 0 0 1 8.477 5.55c2.016-.8 6.801-.615 9.03-.615 2.228 0 7.02-.178 9.03.615a5.17 5.17 0 0 1 2.912 2.912c.8 2.016.615 6.802.615 9.03 0 2.229.185 7.02-.615 9.03z"/></defs><g fill="none" fill-rule="evenodd" transform="translate(-2 -2)"><mask id="b" fill="#fff"><use xlink:href="#a"/></mask><g fill="#FFF" mask="url(#b)"><path d="M0 0h35v35H0z"/></g></g></symbol><symbol id="line" viewBox="0 0 50 2"><path fill="#C6C4C4" fill-rule="evenodd" d="M0 2h50V0H0z"/></symbol><symbol id="medium" viewBox="0 0 31 31"><defs><path id="a" d="M2.187 2.187v30.626h30.626V2.187H2.187zM27.631 9.44l-1.64 1.573a.482.482 0 0 0-.185.458v11.573a.47.47 0 0 0 .184.458l1.607 1.572v.349H19.53v-.335l1.661-1.613c.164-.164.164-.212.164-.458v-9.359l-4.62 11.73h-.623l-5.38-11.73v7.862a1.08 1.08 0 0 0 .301.902l2.16 2.618v.349H7.055v-.349l2.16-2.618c.232-.24.335-.574.28-.902v-9.092a.78.78 0 0 0-.26-.67L7.315 9.44v-.348h5.967l4.608 10.117 4.053-10.11h5.688v.341z"/></defs><g fill="none" fill-rule="evenodd" transform="translate(-2 -2)"><mask id="b" fill="#fff"><use xlink:href="#a"/></mask><g fill="#FFF" mask="url(#b)"><path d="M0 0h35v35H0z"/></g></g></symbol><symbol id="paper-plane" viewBox="0 0 50 50"><path fill="#EDC001" d="M.004 25.023c.061 1.191.744 2.194 1.732 2.536l18.289 6.403.672 14.599c.03.578.366 1.085.845 1.274.132.059.275.082.407.082.357 0 .693-.165.937-.483l6.467-8.29 9.165 7.346c.407.33.886.507 1.385.507 1.15 0 2.148-.943 2.393-2.264L49.903 1.84c.091-.519-.082-1.061-.428-1.391-.357-.342-.835-.425-1.263-.224L1.471 22.252c-.947.495-1.528 1.58-1.467 2.771zM23.02 44.941l-.418-9.21 4.684 3.75-4.266 5.46zm16.843 1.12l-16.68-13.373 23.39-26.203-6.71 39.576zM44.006 5.33L20.88 31.238 2.611 24.846 44.006 5.33z"/></symbol><symbol id="phone-form" viewBox="0 0 34 34"><defs><path id="a" d="M35.458 4.997L28.7 3.437a1.57 1.57 0 0 0-1.786.903l-3.12 7.278a1.555 1.555 0 0 0 .449 1.82l3.938 3.222a24.081 24.081 0 0 1-11.514 11.514l-3.223-3.937a1.558 1.558 0 0 0-1.82-.449l-7.277 3.12a1.578 1.578 0 0 0-.91 1.792l1.56 6.758a1.559 1.559 0 0 0 1.52 1.209c16.64 0 30.15-13.483 30.15-30.15 0-.728-.5-1.358-1.209-1.52z"/></defs><g fill="none" fill-rule="evenodd" transform="translate(-3 -3)"><mask id="b" fill="#fff"><use xlink:href="#a"/></mask><g fill="#CACACA" mask="url(#b)"><path d="M0 0h40v40H0z"/></g></g></symbol><symbol id="placeholder" viewBox="0 0 50 50"><g fill="#C6C4C4"><path d="M25 0C11.215 0 0 7.886 0 17.578c0 3.275 1.29 6.47 3.732 9.243l19.845 22.487c.38.43 1.05.692 1.77.692h.017c.726-.004 1.397-.274 1.77-.712l19.34-22.704C48.78 23.87 50 20.756 50 17.578 50 7.886 38.785 0 25 0zm17.898 25.08L25.316 45.72 7.273 25.278c-2.032-2.308-3.134-4.97-3.134-7.7C4.139 9.501 13.512 2.91 25 2.91c11.487 0 20.847 6.591 20.847 14.668 0 2.649-1.03 5.243-2.949 7.502z"/><path d="M25 8.79c-6.892 0-12.5 3.942-12.5 8.788 0 4.815 5.516 8.79 12.5 8.79 7.07 0 12.5-4.027 12.5-8.79 0-4.846-5.608-8.789-12.5-8.789zm0 14.667c-4.619 0-8.361-2.64-8.361-5.879 0-3.23 3.766-5.879 8.361-5.879 4.595 0 8.347 2.648 8.347 5.88 0 3.19-3.655 5.878-8.347 5.878z"/></g></symbol><symbol id="service" viewBox="0 0 50 50"><g fill="#C6C4C4"><path d="M47.293 36.893c-.233-7.947-2.525-15.37-6.514-21.028-3.868-5.485-8.905-8.707-14.314-9.201V4.155h2.49V0h-7.91v4.155h2.49v2.509c-5.41.494-10.446 3.716-14.314 9.2-3.99 5.659-6.28 13.082-6.514 21.029H0v4.727C0 46.24 2.65 50 5.908 50h38.184C47.35 50 50 46.24 50 41.62v-4.727h-2.707zM25 10.75c10.37 0 18.863 11.608 19.361 26.143H5.64C6.137 22.358 14.63 10.75 25 10.75zm22.07 30.87c0 2.33-1.336 4.225-2.978 4.225H5.908c-1.642 0-2.978-1.895-2.978-4.225v-.572h44.14v.572z"/><path d="M8.364 33.082l2.9.6c.005-.053.582-5.298 2.952-8.252l-1.935-3.122c-3.192 3.98-3.888 10.499-3.917 10.774z"/></g></symbol><symbol id="stove" viewBox="0 0 50 50"><g fill="#C6C4C4"><path d="M44.613 0H5.387A5.393 5.393 0 0 0 0 5.387v39.226A5.393 5.393 0 0 0 5.387 50h39.226A5.393 5.393 0 0 0 50 44.613V5.387A5.393 5.393 0 0 0 44.613 0zM5.387 2.93h39.226a2.46 2.46 0 0 1 2.457 2.457v7.165H2.93V5.387A2.46 2.46 0 0 1 5.387 2.93zm39.226 44.14H5.387a2.46 2.46 0 0 1-2.457-2.457V15.482h44.14v29.13a2.46 2.46 0 0 1-2.457 2.458z"/><path d="M10.879 9.206a1.47 1.47 0 0 0 1.465-1.465c0-.386-.156-.764-.429-1.036a1.478 1.478 0 0 0-1.036-.429 1.47 1.47 0 0 0-1.466 1.465 1.47 1.47 0 0 0 1.466 1.465zm9.414 0a1.47 1.47 0 0 0 1.465-1.465c0-.386-.157-.764-.429-1.036a1.478 1.478 0 0 0-1.036-.429 1.47 1.47 0 0 0-1.465 1.465 1.47 1.47 0 0 0 1.465 1.465zm9.414 0a1.47 1.47 0 0 0 1.465-1.465c0-.386-.157-.764-.429-1.036a1.476 1.476 0 0 0-1.036-.429c-.386 0-.764.157-1.036.43-.272.271-.429.65-.429 1.035a1.47 1.47 0 0 0 1.465 1.465zm9.414 0c.386 0 .763-.157 1.036-.43.273-.272.43-.65.43-1.035 0-.386-.157-.764-.43-1.036a1.478 1.478 0 0 0-1.036-.429 1.47 1.47 0 0 0-1.465 1.465 1.467 1.467 0 0 0 1.465 1.465zm3.139 9.622H7.74c-.808 0-1.464.656-1.464 1.465v21.966c0 .809.656 1.465 1.465 1.465h34.518c.81 0 1.465-.656 1.465-1.465V20.293c0-.81-.656-1.465-1.465-1.465zm-1.466 21.966H9.206V21.758h31.588v19.036z"/><path d="M14.017 28.034h21.966a1.465 1.465 0 0 0 0-2.93H14.017a1.465 1.465 0 0 0 0 2.93z"/></g></symbol><symbol id="style" viewBox="0 0 30 30"><defs><path id="a" d="M31.026 4.372l-5.913-1.364a1.373 1.373 0 0 0-1.564.79l-2.729 6.368a1.361 1.361 0 0 0 .393 1.592l3.445 2.82a21.071 21.071 0 0 1-10.075 10.074l-2.82-3.445a1.363 1.363 0 0 0-1.592-.392l-6.367 2.729a1.38 1.38 0 0 0-.796 1.569l1.364 5.913a1.364 1.364 0 0 0 1.33 1.057c14.561 0 26.381-11.797 26.381-26.38a1.36 1.36 0 0 0-1.057-1.33z"/></defs><g fill="none" fill-rule="evenodd" transform="translate(-3 -3)"><mask id="b" fill="#fff"><use xlink:href="#a"/></mask><g fill="#FFF" mask="url(#b)"><path d="M0 0h35v35H0z"/></g></g></symbol><symbol id="twitter-square" viewBox="0 0 31 31"><defs><path id="a" d="M29.531 2.187H5.47A3.282 3.282 0 0 0 2.187 5.47v24.06a3.282 3.282 0 0 0 3.282 3.282H29.53a3.282 3.282 0 0 0 3.282-3.282V5.47a3.282 3.282 0 0 0-3.282-3.282zm-3.343 10.856c.014.191.014.39.014.581 0 5.927-4.512 12.756-12.756 12.756-2.543 0-4.901-.738-6.884-2.01.363.041.711.055 1.08.055 2.1 0 4.027-.711 5.565-1.914a4.49 4.49 0 0 1-4.19-3.11c.69.102 1.312.102 2.023-.083a4.484 4.484 0 0 1-3.589-4.402v-.055a4.48 4.48 0 0 0 2.024.568 4.474 4.474 0 0 1-1.996-3.733c0-.834.218-1.6.608-2.262a12.73 12.73 0 0 0 9.242 4.689c-.636-3.042 1.64-5.51 4.375-5.51a4.47 4.47 0 0 1 3.275 1.415 8.785 8.785 0 0 0 2.843-1.08 4.472 4.472 0 0 1-1.968 2.468 8.922 8.922 0 0 0 2.584-.697 9.437 9.437 0 0 1-2.25 2.324z"/></defs><g fill="none" fill-rule="evenodd" transform="translate(-2 -2)"><mask id="b" fill="#fff"><use xlink:href="#a"/></mask><g fill="#FFF" mask="url(#b)"><path d="M0 0h35v35H0z"/></g></g></symbol><symbol id="user" viewBox="0 0 50 50"><path fill="#C6C4C4" d="M42.678 32.322a24.904 24.904 0 0 0-9.5-5.959c3.787-2.608 6.275-6.974 6.275-11.91C39.453 6.483 32.97 0 25 0S10.547 6.484 10.547 14.453c0 4.936 2.488 9.302 6.275 11.91a24.904 24.904 0 0 0-9.5 5.96C2.6 37.043 0 43.322 0 50h3.906c0-11.631 9.463-21.094 21.094-21.094 11.631 0 21.094 9.463 21.094 21.094H50c0-6.678-2.6-12.956-7.322-17.678zM25 25c-5.816 0-10.547-4.731-10.547-10.547 0-5.816 4.731-10.547 10.547-10.547 5.816 0 10.547 4.731 10.547 10.547C35.547 20.27 30.816 25 25 25z"/></symbol><symbol id="whatsapp" viewBox="0 0 31 31"><defs><path id="a" d="M28.226 6.638a15.062 15.062 0 0 0-10.733-4.45c-8.367 0-15.176 6.808-15.176 15.175 0 2.673.698 5.284 2.024 7.588l-2.154 7.862 8.046-2.113a15.13 15.13 0 0 0 7.253 1.846h.007c8.36 0 15.32-6.809 15.32-15.176 0-4.054-1.723-7.861-4.587-10.732zM17.493 29.989c-2.27 0-4.491-.608-6.426-1.757l-.458-.273-4.771 1.251 1.271-4.655-.3-.479a12.572 12.572 0 0 1-1.928-6.713c0-6.952 5.66-12.612 12.619-12.612a12.5 12.5 0 0 1 8.914 3.698c2.379 2.386 3.842 5.551 3.835 8.921 0 6.96-5.804 12.62-12.756 12.62zm6.918-9.447c-.376-.191-2.242-1.107-2.59-1.23-.35-.13-.602-.192-.855.19-.253.384-.978 1.231-1.203 1.491-.22.253-.445.287-.82.096-2.23-1.114-3.692-1.99-5.162-4.512-.39-.67.39-.622 1.115-2.071.123-.253.061-.472-.035-.663-.095-.192-.854-2.058-1.169-2.817-.307-.738-.622-.635-.854-.649-.219-.014-.472-.014-.725-.014s-.663.096-1.011.472c-.35.383-1.327 1.299-1.327 3.165s1.36 3.67 1.545 3.924c.192.253 2.673 4.08 6.48 5.728 2.407 1.04 3.35 1.128 4.554.95.731-.109 2.242-.915 2.556-1.804.315-.889.315-1.648.219-1.805-.089-.17-.342-.266-.718-.451z"/></defs><g fill="none" fill-rule="evenodd" transform="translate(-2 -2)"><mask id="b" fill="#fff"><use xlink:href="#a"/></mask><g fill="#FFF" mask="url(#b)"><path d="M0 0h35v35H0z"/></g></g></symbol><symbol id="user-form" viewBox="0 0 30 34"><defs><path id="a" d="M20 20a8.333 8.333 0 0 0 8.333-8.333A8.333 8.333 0 0 0 20 3.333a8.333 8.333 0 0 0-8.333 8.334A8.333 8.333 0 0 0 20 20zm5.833 2.083h-1.087A11.345 11.345 0 0 1 20 23.125c-1.693 0-3.294-.378-4.746-1.042h-1.087a8.753 8.753 0 0 0-8.75 8.75v2.709c0 1.725 1.4 3.125 3.125 3.125h22.916c1.726 0 3.125-1.4 3.125-3.125v-2.709c0-4.83-3.919-8.75-8.75-8.75z"/></defs><g fill="none" fill-rule="evenodd" transform="translate(-5 -3)"><mask id="b" fill="#fff"><use xlink:href="#a"/></mask><g fill="#CACACA" mask="url(#b)"><path d="M0 0h40v40H0z"/></g></g></symbol></svg>