<svg xmlns="http://www.w3.org/2000/svg" width="50" height="50" viewBox="0 0 50 50"><g fill="#C6C4C4"><path d="M44.613 0H5.387A5.393 5.393 0 0 0 0 5.387v39.226A5.393 5.393 0 0 0 5.387 50h39.226A5.393 5.393 0 0 0 50 44.613V5.387A5.393 5.393 0 0 0 44.613 0zM5.387 2.93h39.226a2.46 2.46 0 0 1 2.457 2.457v7.165H2.93V5.387A2.46 2.46 0 0 1 5.387 2.93zm39.226 44.14H5.387a2.46 2.46 0 0 1-2.457-2.457V15.482h44.14v29.13a2.46 2.46 0 0 1-2.457 2.458z"/><path d="M10.879 9.206a1.47 1.47 0 0 0 1.465-1.465c0-.386-.156-.764-.429-1.036a1.478 1.478 0 0 0-1.036-.429 1.47 1.47 0 0 0-1.466 1.465 1.47 1.47 0 0 0 1.466 1.465zm9.414 0a1.47 1.47 0 0 0 1.465-1.465c0-.386-.157-.764-.429-1.036a1.478 1.478 0 0 0-1.036-.429 1.47 1.47 0 0 0-1.465 1.465 1.47 1.47 0 0 0 1.465 1.465zm9.414 0a1.47 1.47 0 0 0 1.465-1.465c0-.386-.157-.764-.429-1.036a1.476 1.476 0 0 0-1.036-.429c-.386 0-.764.157-1.036.43-.272.271-.429.65-.429 1.035a1.47 1.47 0 0 0 1.465 1.465zm9.414 0c.386 0 .763-.157 1.036-.43.273-.272.43-.65.43-1.035 0-.386-.157-.764-.43-1.036a1.478 1.478 0 0 0-1.036-.429 1.47 1.47 0 0 0-1.465 1.465 1.467 1.467 0 0 0 1.465 1.465zm3.139 9.622H7.74c-.808 0-1.464.656-1.464 1.465v21.966c0 .809.656 1.465 1.465 1.465h34.518c.81 0 1.465-.656 1.465-1.465V20.293c0-.81-.656-1.465-1.465-1.465zm-1.466 21.966H9.206V21.758h31.588v19.036z"/><path d="M14.017 28.034h21.966a1.465 1.465 0 0 0 0-2.93H14.017a1.465 1.465 0 0 0 0 2.93z"/></g></svg>