<svg xmlns="http://www.w3.org/2000/svg" xmlns:xlink="http://www.w3.org/1999/xlink" width="30" height="30" viewBox="0 0 30 30"><defs><path id="a" d="M31.026 4.372l-5.913-1.364a1.373 1.373 0 0 0-1.564.79l-2.729 6.368a1.361 1.361 0 0 0 .393 1.592l3.445 2.82a21.071 21.071 0 0 1-10.075 10.074l-2.82-3.445a1.363 1.363 0 0 0-1.592-.392l-6.367 2.729a1.38 1.38 0 0 0-.796 1.569l1.364 5.913a1.364 1.364 0 0 0 1.33 1.057c14.561 0 26.381-11.797 26.381-26.38a1.36 1.36 0 0 0-1.057-1.33z"/></defs><g fill="none" fill-rule="evenodd" transform="translate(-3 -3)"><mask id="b" fill="#fff"><use xlink:href="#a"/></mask><g fill="#FFF" mask="url(#b)"><path d="M0 0h35v35H0z"/></g></g></svg>