<?xml version="1.0" encoding="UTF-8"?>
<svg width="60px" height="60px" viewBox="0 0 60 60" version="1.1" xmlns="http://www.w3.org/2000/svg" xmlns:xlink="http://www.w3.org/1999/xlink">
    <!-- Generator: Sketch 60 (88103) - https://sketch.com -->
    <title>sushi</title>
    <desc>Created with Sketch.</desc>
    <g id="Page-1" stroke="none" stroke-width="1" fill="none" fill-rule="evenodd">
        <g id="quote_menu" transform="translate(-1126.000000, -394.000000)" fill="#212021" fill-rule="nonzero">
            <g id="buttons" transform="translate(161.000000, 364.000000)">
                <g id="button_japonese" transform="translate(870.000000, 0.000000)">
                    <g id="sushi" transform="translate(95.000000, 30.000000)">
                        <path d="M8.9709375,36.7331429 L8.93730469,36.7331429 C8.29007813,36.7331429 7.76542969,37.3727143 7.76542969,38.1617143 C7.76542969,38.9507143 8.29007813,39.5902857 8.93730469,39.5902857 L8.9709375,39.5902857 C9.61816406,39.5902857 10.1428125,38.9507143 10.1428125,38.1617143 C10.1428125,37.3727143 9.61816406,36.7331429 8.9709375,36.7331429 Z" id="Path"></path>
                        <path d="M11.480625,52.1592857 L11.4469922,52.1592857 C10.7997656,52.1592857 10.2751172,52.7988571 10.2751172,53.5878571 C10.2751172,54.3768571 10.7997656,55.0164286 11.4469922,55.0164286 L11.480625,55.0164286 C12.1278516,55.0164286 12.6525,54.3768571 12.6525,53.5878571 C12.6525,52.7988571 12.1278516,52.1592857 11.480625,52.1592857 Z" id="Path"></path>
                        <path d="M33.0724219,51.5164286 L33.0387891,51.5164286 C32.3915625,51.5164286 31.8669141,52.156 31.8669141,52.945 C31.8669141,53.734 32.3915625,54.3735714 33.0387891,54.3735714 L33.0724219,54.3735714 C33.7196484,54.3735714 34.2442969,53.734 34.2442969,52.945 C34.2442969,52.156 33.7196484,51.5164286 33.0724219,51.5164286 Z" id="Path"></path>
                        <path d="M23.4044531,49.4094286 L23.3708203,49.4094286 C22.7235938,49.4094286 22.1989453,50.049 22.1989453,50.838 C22.1989453,51.627 22.7235938,52.2665714 23.3708203,52.2665714 L23.4044531,52.2665714 C24.0516797,52.2665714 24.5763281,51.627 24.5763281,50.838 C24.5763281,50.049 24.0516797,49.4094286 23.4044531,49.4094286 Z" id="Path"></path>
                        <path d="M57.4120312,11.9265714 C57.3364453,11.8251429 57.2582812,11.7201429 57.1823438,11.6165714 C58.0565625,10.2782857 59.0782031,8.262 59.4419531,7.52914286 C59.6258203,7.15885714 59.6620312,6.70685714 59.5403906,6.30014286 C59.41875,5.89342857 59.1523828,5.576 58.8161719,5.43671429 C58.1941406,5.17914286 57.4633594,5.04871429 56.6442187,5.04871429 C54.8433984,5.04871429 52.8943359,5.66742857 51.5901562,6.40457143 C49.2625781,3.62614286 45.2323828,1.895 40.8322266,0.943571429 C40.7475,0.913571429 40.6599609,0.894142857 40.5703125,0.888142857 C37.6041797,0.269571429 34.4827734,0.000377753141 31.6101562,0.000377753141 C31.5605859,0.000377753141 31.5105469,0.000377753141 31.4607422,0.001 C31.4346094,0.000377753141 31.4087109,0.000377753141 31.3828125,0.00128571429 C23.6876953,0.0382857143 14.2566797,1.96071429 10.5999609,7.26328571 C9.38085937,9.031 8.89910156,11.1025714 9.20695312,13.2541429 C9.24738281,13.5365714 9.30351562,13.8085714 9.37207031,14.0722857 L9.37207031,14.0724286 C9.613125,14.9995714 10.0287891,15.8105714 10.6144922,16.5038571 C10.3751953,17.5807143 10.2457031,18.7195714 10.2457031,19.7968571 C10.2457031,23.2927143 11.4683203,26.5452857 13.5174609,28.8267143 C8.45953125,29.8502857 3.80636719,31.8544286 1.48347656,35.2228571 C0.264257812,36.9907143 -0.217382813,39.0624286 0.09046875,41.2138571 C0.13078125,41.496 0.186914062,41.7678571 0.25546875,42.0315714 C0.255585937,42.0318571 0.255703125,42.0322857 0.255703125,42.0325714 C0.496757812,42.9595714 0.912421875,43.7704286 1.49800781,44.4637143 C1.25882812,45.5405714 1.12921875,46.6794286 1.12921875,47.7567143 C1.12921875,54.5072857 5.634375,59.9992857 11.1719531,59.9992857 L33.3523828,59.9992857 C38.8899609,59.9992857 43.3951172,54.5072857 43.3951172,47.7567143 C43.3951172,47.232 43.366875,46.7005714 43.3144922,46.175 C45.0492187,47.6352857 46.9896094,48.2865714 49.4608594,48.2865714 C49.5366797,48.2865714 49.6128516,48.286 49.6898437,48.2847143 C50.2713281,48.2754286 50.7592969,47.7477143 50.8360547,47.045 C51.1932422,43.7777143 49.4494922,41.4358571 48.2955469,39.8862857 C48.2199609,39.7847143 48.1417969,39.6798571 48.0657422,39.5762857 C48.9399609,38.238 49.9614844,36.2218571 50.3253516,35.489 C50.5092187,35.1187143 50.5453125,34.6667143 50.4237891,34.26 C50.3021484,33.8532857 50.0358984,33.5358571 49.6996875,33.3965714 C49.0776562,33.139 48.346875,33.0084286 47.5276172,33.0084286 C45.7267969,33.0084286 43.7777344,33.6271429 42.4735547,34.3644286 C41.739375,33.4881429 40.8357422,32.716 39.8047266,32.0397143 L42.4688672,32.0397143 C48.0063281,32.0397143 52.5114844,26.5477143 52.5114844,19.7971429 C52.5114844,19.2722857 52.4832422,18.7408571 52.4308594,18.2152857 C54.1655859,19.6757143 56.1059766,20.3271429 58.5772266,20.3271429 C58.6530469,20.3271429 58.7292188,20.3265714 58.8062109,20.3252857 C59.3876953,20.316 59.8755469,19.7882857 59.9524219,19.0855714 C60.3096094,15.8181429 58.5658594,13.4762857 57.4120312,11.9265714 Z M39.5677734,3.57614286 C40.3470703,7.207 41.0613281,11.5818571 38.9680078,16.5561429 C37.7375391,16.474 36.5355469,16.3628571 35.4128906,16.2587143 C34.5331641,16.1771429 33.7196484,16.1017143 32.9926172,16.0501429 C33.7300781,12.4174286 33.3029297,9.25385714 32.9186719,6.41557143 C32.7500391,5.16942857 32.5886719,3.97314286 32.5566797,2.86828571 C35.0150391,2.91728571 37.38,3.15757143 39.5677734,3.57614286 Z M23.6129297,3.57414286 C25.6655859,3.18757143 27.8892187,2.94785714 30.2111719,2.87885714 C30.2416406,4.18142857 30.4198828,5.504 30.6063281,6.88057143 C30.9919922,9.72942857 31.3886719,12.6675714 30.5745703,16.0015714 C29.6621484,16.0437143 28.5663281,16.1454286 27.3428906,16.259 C26.5239844,16.335 25.663125,16.4148571 24.7798828,16.4844286 C22.6287891,11.4832857 22.9017187,7.19128571 23.6129297,3.57414286 Z M11.8253906,13.7725714 C12.4146094,12.9321429 13.7439844,12.0115714 14.9996484,11.8548571 C15.6434766,11.7744286 16.1119922,11.073 16.0460156,10.2881429 C15.9800391,9.50314286 15.4042969,8.93157143 14.7608203,9.01257143 C13.7452734,9.13942857 12.6991406,9.586 11.7925781,10.2195714 C11.9423438,9.83871429 12.1420313,9.46685714 12.39375,9.10171429 C13.8650391,6.96842857 17.0163281,5.23528571 21.1098047,4.14085714 C20.5244531,7.73414286 20.4478125,11.8855714 22.2319922,16.642 C21.6349219,16.6665714 21.0359766,16.6808571 20.4406641,16.6808571 C15.6624609,16.6808571 12.7742578,15.703 11.8253906,13.7725714 Z M2.70890625,41.7322857 C3.298125,40.8918571 4.62761719,39.9714286 5.88316406,39.8145714 C6.52699219,39.7341429 6.99550781,39.0327143 6.92953125,38.2478571 C6.86355469,37.463 6.2878125,36.891 5.64433594,36.9722857 C4.62878906,37.0991429 3.58277344,37.5457143 2.67632812,38.1792857 C2.82597656,37.7984286 3.02566406,37.4265714 3.2775,37.0614286 C4.74867187,34.9281429 7.89972656,33.1948571 11.9933203,32.1005714 C11.4078516,35.6938571 11.3313281,39.8451429 13.1155078,44.6018571 C12.5184375,44.6264286 11.9194922,44.6407143 11.3241797,44.6407143 C6.54597656,44.6407143 3.65777344,43.6628571 2.70890625,41.7322857 Z M33.3523828,57.1421429 L11.1719531,57.1421429 C6.92671875,57.1421429 3.47296875,52.9318571 3.47296875,47.7567143 C3.47296875,47.2241429 3.51632813,46.6592857 3.59753906,46.0998571 C3.82066406,46.2152857 4.05117188,46.3255714 4.29492188,46.4261429 C6.04148437,47.1472857 8.34082031,47.4978571 11.3242969,47.4978571 C13.7704688,47.4978571 16.2322266,47.2692857 18.4042969,47.0675714 C19.9644141,46.9227143 21.3117188,46.7975714 22.2622266,46.7975714 C22.2752344,46.7975714 22.2891797,46.7978571 22.3024219,46.7978571 C22.3039453,46.7978571 22.3054687,46.7981429 22.3069922,46.7981429 C22.3082812,46.7981429 22.3094531,46.798 22.3107422,46.798 C23.2579687,46.802 24.5851172,46.925 26.11875,47.0671429 C28.2898828,47.2685714 30.7505859,47.4968571 33.1954687,47.4968571 C36.5818359,47.4968571 39.1177734,47.0457143 40.93875,46.0995714 C41.011875,46.647 41.0516016,47.2107143 41.0516016,47.7565714 C41.0516016,52.9318571 37.5976172,57.1421429 33.3523828,57.1421429 Z M14.4965625,31.5338571 C15.2880469,31.3847143 16.1048438,31.2574286 16.9429687,31.1534286 C16.9550391,31.1515714 16.9674609,31.1511429 16.9796484,31.1488571 C18.3039844,30.9855714 19.6810547,30.8804286 21.0945703,30.8384286 C21.1250391,32.141 21.3032812,33.4635714 21.4897266,34.8402857 C21.8753906,37.6891429 22.2720703,40.6272857 21.4579687,43.9612857 C20.5455469,44.0035714 19.4497266,44.1051429 18.2262891,44.2187143 C17.4076172,44.2947143 16.5467578,44.3745714 15.6635156,44.4441429 C13.5121875,39.4427143 13.7852344,35.1507143 14.4965625,31.5338571 Z M23.8021875,34.3752857 C23.6335547,33.1291429 23.4721875,31.9328571 23.4401953,30.8278571 C25.8986719,30.8767143 28.2636328,31.1171429 30.4512891,31.5357143 C31.2304687,35.1665714 31.9447266,39.5414286 29.8514062,44.5158571 C28.6208203,44.4337143 27.4190625,44.3225714 26.2964063,44.2184286 C25.4166797,44.1368571 24.6032812,44.0614286 23.8761328,44.0098571 C24.6135937,40.3771429 24.1864453,37.2135714 23.8021875,34.3752857 Z M41.3128125,37.0501429 C41.7001172,37.6442857 42.4006641,37.7655714 42.9084375,37.3265714 C43.5775781,36.7477143 45.5172656,35.9182857 47.3540625,35.868 C46.6991016,37.0747143 46.0702734,38.1277143 45.8077734,38.3837143 C45.3678516,38.8127143 45.2404687,39.5627143 45.5047266,40.1692857 C45.7355859,40.6992857 46.1176172,41.2124286 46.5601172,41.8067143 C47.3048437,42.8067143 48.1899609,43.9957143 48.4573828,45.3832857 C46.2907031,45.1724286 44.7138281,44.2301429 43.1844141,42.2842857 C42.9632812,42.003 42.6576562,41.844 42.3382031,41.844 C42.3357422,41.844 42.3332812,41.844 42.3308203,41.844 C42.0087891,41.8464286 41.7017578,42.0104286 41.4819141,42.2972857 C40.2904688,43.8517143 37.5024609,44.64 33.1952344,44.64 C32.9300391,44.64 32.6640234,44.6368571 32.3978906,44.6314286 C34.0885547,39.85 33.6584766,35.5952857 32.9874609,32.1231429 C33.3689063,32.2282857 33.7441406,32.3382857 34.11,32.4555714 C37.5898828,33.571 40.0805859,35.1598571 41.3128125,37.0501429 Z M42.4689844,29.1824286 L32.9048437,29.1824286 C32.5126172,29.083 32.1165234,28.9901429 31.7172656,28.9037143 C31.6314844,28.873 31.5427734,28.8534286 31.4518359,28.8474286 C28.4861719,28.2291429 25.3654687,27.9601429 22.4934375,27.9601429 C22.4436328,27.9601429 22.3933594,27.9605714 22.3434375,27.9607143 C22.3182422,27.9597143 22.2931641,27.9601429 22.2682031,27.961 C20.5700391,27.9691429 18.7875,28.0691429 17.0009766,28.2768571 C14.3112891,26.7174286 12.5893359,23.4271429 12.5893359,19.7968571 C12.5893359,19.2642857 12.6328125,18.6994286 12.7139062,18.1401429 C12.9370312,18.2555714 13.1676562,18.3657143 13.4112891,18.4662857 C15.1577344,19.1874286 17.4570703,19.538 20.4406641,19.538 C22.8868359,19.538 25.3487109,19.3094286 27.5207812,19.1077143 C29.0808984,18.9628571 30.4283203,18.8377143 31.3787109,18.8377143 C31.3917187,18.8377143 31.4056641,18.838 31.4187891,18.838 C31.4203125,18.838 31.4218359,18.8382857 31.4233594,18.8382857 C31.4246484,18.8382857 31.4259375,18.8381429 31.4272266,18.8381429 C32.3744531,18.8421429 33.7014844,18.9651429 35.2351172,19.1072857 C37.40625,19.3087143 39.8669531,19.537 42.3118359,19.537 C45.6980859,19.537 48.2340234,19.0858571 50.0551172,18.1397143 C50.1282422,18.6872857 50.1679687,19.251 50.1679687,19.7967143 C50.1679687,24.9721429 46.7141016,29.1824286 42.4689844,29.1824286 Z M52.3008984,14.3242857 C52.0797656,14.043 51.7741406,13.8841429 51.4548047,13.8841429 C51.4523437,13.8841429 51.4498828,13.8841429 51.4474219,13.8841429 C51.1253906,13.8865714 50.8183594,14.0505714 50.5985156,14.3374286 C49.4070703,15.8918571 46.6191797,16.6801429 42.3118359,16.6801429 C42.0466406,16.6801429 41.780625,16.677 41.5144922,16.6717143 C43.2050391,11.8904286 42.7749609,7.63571429 42.1039453,4.16342857 C42.4853906,4.26842857 42.860625,4.37857143 43.2264844,4.49585714 C46.7063672,5.61142857 49.1970703,7.20014286 50.4292969,9.09057143 C50.8164844,9.68471429 51.5172656,9.806 52.0248047,9.367 C52.6940625,8.78814286 54.6338672,7.95871429 56.4705469,7.90842857 C55.8155859,9.115 55.186875,10.168 54.9242578,10.424 C54.4842188,10.8528571 54.3569531,11.6028571 54.6212109,12.2095714 C54.8520703,12.7395714 55.2341016,13.2528571 55.6767188,13.847 C56.4213281,14.8471429 57.3065625,16.036 57.5739844,17.4235714 C55.4071875,17.2125714 53.8304297,16.2702857 52.3008984,14.3242857 Z" id="Shape"></path>
                        <path d="M18.0874219,8.77357143 L18.0537891,8.77357143 C17.4065625,8.77357143 16.8819141,9.41314286 16.8819141,10.2021429 C16.8819141,10.9911429 17.4065625,11.6307143 18.0537891,11.6307143 L18.0874219,11.6307143 C18.7346484,11.6307143 19.2592969,10.9911429 19.2592969,10.2021429 C19.2592969,9.41314286 18.7346484,8.77357143 18.0874219,8.77357143 Z" id="Path"></path>
                        <path d="M20.5969922,24.1997143 L20.5633594,24.1997143 C19.9161328,24.1997143 19.3914844,24.8392857 19.3914844,25.6282857 C19.3914844,26.4172857 19.9161328,27.0568571 20.5633594,27.0568571 L20.5969922,27.0568571 C21.2442188,27.0568571 21.7688672,26.4172857 21.7688672,25.6282857 C21.7688672,24.8392857 21.2442188,24.1997143 20.5969922,24.1997143 Z" id="Path"></path>
                        <path d="M42.1889063,23.5568571 L42.1552734,23.5568571 C41.5080469,23.5568571 40.9833984,24.1964286 40.9833984,24.9854286 C40.9833984,25.7744286 41.5080469,26.414 42.1552734,26.414 L42.1889063,26.414 C42.8361328,26.414 43.3607813,25.7744286 43.3607813,24.9854286 C43.3607813,24.1964286 42.8361328,23.5568571 42.1889063,23.5568571 Z" id="Path"></path>
                        <path d="M32.5209375,21.4497143 L32.4873047,21.4497143 C31.8400781,21.4497143 31.3154297,22.0892857 31.3154297,22.8782857 C31.3154297,23.6672857 31.8400781,24.3068571 32.4873047,24.3068571 L32.5209375,24.3068571 C33.1681641,24.3068571 33.6928125,23.6672857 33.6928125,22.8782857 C33.6928125,22.0892857 33.1681641,21.4497143 32.5209375,21.4497143 Z" id="Path"></path>
                    </g>
                </g>
            </g>
        </g>
    </g>
</svg>