<?xml version="1.0" encoding="UTF-8"?>
<svg width="60px" height="60px" viewBox="0 0 60 60" version="1.1" xmlns="http://www.w3.org/2000/svg" xmlns:xlink="http://www.w3.org/1999/xlink">
    <!-- Generator: Sketch 60 (88103) - https://sketch.com -->
    <title>taco</title>
    <desc>Created with Sketch.</desc>
    <g id="Page-1" stroke="none" stroke-width="1" fill="none" fill-rule="evenodd">
        <g id="quote_menu" transform="translate(-256.000000, -394.000000)" fill="#212021" fill-rule="nonzero">
            <g id="buttons" transform="translate(161.000000, 364.000000)">
                <g id="button_mexican">
                    <g id="taco" transform="translate(95.000000, 30.000000)">
                        <path d="M59.278699,15.7543945 C59.1586416,15.6394958 59.0328443,15.5319213 58.9103953,15.4179382 C59.5102041,14.9057006 59.897162,14.1677857 59.897162,13.3387757 C59.897162,11.5594482 58.3842475,10.1115417 56.5250319,10.1115417 C56.5202487,10.1115417 56.5169006,10.1133728 56.5140306,10.1133728 C56.5149872,9.94995117 56.4882015,9.78652957 56.4068878,9.63088992 C56.1294643,9.09896848 55.4550382,8.8861084 54.8987564,9.14978027 L53.1801659,9.9728393 C52.6014031,9.49951172 52.0135523,9.04953 51.4166136,8.62152094 C51.5964605,8.51623535 51.7705676,8.39675906 51.9255421,8.24844363 C52.5215242,7.67715457 52.8496493,6.91864008 52.8496493,6.11114508 C52.8496493,5.30319211 52.5215242,4.54467773 51.9245854,3.97476199 C50.494898,2.60742188 48.1683673,2.60742188 46.7382015,3.97476199 C46.3168048,4.37805176 46.0020727,4.84359738 45.7930484,5.34164426 C44.8928571,4.92874148 43.9811863,4.56298828 43.0618622,4.24118039 L43.753986,1.65985102 C43.9080038,1.08444211 43.5459184,0.498046875 42.9446748,0.349731445 C42.3400829,0.202331484 41.7307079,0.549774141 41.5766901,1.12426758 L40.9194834,3.57467648 C40.5774872,3.48312375 40.2359694,3.39706418 39.8930166,3.31878656 C39.4247449,1.41906738 37.651148,0 35.5288584,0 C34.9352679,0 34.4612564,0.444488555 34.4205994,1.00341797 C33.8193558,0.646362305 33.1167092,0.430297852 32.3590561,0.430297852 C30.7676977,0.430297852 29.4006697,1.34353641 28.782685,2.64816281 C28.3904656,2.52227789 27.9427615,2.59780887 27.630421,2.89672852 L27.214764,3.29498297 C26.1438137,3.5462952 25.0814732,3.85620117 24.0358738,4.24118039 L22.725287,1.1068725 C22.4937819,0.55480957 21.8432717,0.284729063 21.2645089,0.506744414 C20.6876595,0.726928711 20.4078443,1.35314941 20.6383929,1.90475461 L21.9757653,5.10498047 C21.0956633,5.51284793 20.2294324,5.96878055 19.3770727,6.47735602 C18.7547831,6.06033328 18.001435,5.8085632 17.1854273,5.8085632 C14.7058354,5.8085632 12.6897321,7.73803711 12.6897321,10.111084 C12.6897321,10.5166627 12.9336735,10.8554077 13.2785395,11.0394287 C12.4984056,11.7764283 11.757972,12.5358581 11.0854592,13.3383178 L7.06951531,13.3383178 C6.44913906,13.3383178 5.945472,13.8189697 5.945472,14.4140625 C5.945472,15.0086975 6.44913906,15.4898072 7.06951531,15.4898072 L9.48501282,15.4898072 C8.95886473,16.270752 8.46667727,17.0819092 8.01945159,17.9328919 C7.55404971,17.746582 7.04368629,17.6412963 6.50749359,17.6412963 C4.33832914,17.6412963 2.57382012,19.3299866 2.57382012,21.4059448 C2.57382012,23.1015014 3.75813135,24.5214844 5.371014,24.9916077 C4.88121808,26.9041443 4.49234694,28.9608764 4.20774869,31.2034607 L3.0770089,30.6623841 C2.5207271,30.3977966 1.84630102,30.61203 1.56839927,31.1434936 C1.2909758,31.6749573 1.51578441,32.3213196 2.07110963,32.5868225 L3.96141576,33.4918213 C3.91788906,33.9628601 3.87723208,34.4448853 3.83992347,34.9310303 C2.49346298,34.6824646 1.08529971,35.2944947 0.444355837,36.5231323 C-0.452487184,38.2397461 0.278380163,40.3340149 2.07110963,41.193695 C2.23182392,41.2701416 2.40353951,41.306305 2.57238514,41.306305 C2.98469388,41.306305 3.38121808,41.0893249 3.57828441,40.7116699 C3.85714286,40.1811218 3.63089927,39.533844 3.0770089,39.2678834 C2.39110335,38.9396667 2.11272318,38.1394958 2.45519767,37.4844361 C2.67330992,37.06604 3.20615437,36.8916321 3.64429212,37.1035767 C3.68590555,37.1228027 3.7050382,37.1511841 3.73421559,37.1754456 C3.75813135,37.3077393 3.80309314,37.4281311 3.87149241,37.5411987 C3.87149241,37.5942994 3.86718747,37.6469421 3.86718747,37.699585 C3.86240437,37.709198 3.86575249,37.7165222 3.86001282,37.7261353 C3.69068878,38.0502319 3.72656253,38.4072877 3.89158163,38.7039185 C3.9590242,40.8009339 4.24218747,42.8604127 4.7324618,44.8626709 L2.2169962,45.6651306 C1.62771049,45.852356 1.30963004,46.4611816 1.50669649,47.0256042 C1.66406253,47.4765014 2.10220029,47.7616882 2.57334184,47.7616882 C2.69005102,47.7616882 2.81058673,47.7433777 2.92825249,47.7058411 L5.31887755,46.942749 C5.66183033,48.0047607 6.06887755,49.0447998 6.5294962,50.0624085 C6.18702171,50.2464294 5.945472,50.5842591 5.945472,50.9875488 C5.945472,51.5826416 6.44866065,52.0632935 7.06951531,52.0632935 C7.26466837,52.0632935 7.44021049,52.1246338 7.60092478,52.2097779 C7.78507653,52.544403 7.98214286,52.8730774 8.17968747,53.2012939 C8.14620539,53.5272217 7.86734694,53.7844849 7.51865437,53.7844849 C7.3455038,53.7844849 7.20392216,53.6489869 7.20392216,53.4832764 C7.20392216,52.8881836 6.7002551,52.4075318 6.07987886,52.4075318 C5.45950261,52.4075318 4.95583543,52.8881836 4.95583543,53.4832764 C4.95583543,54.8364258 6.10570788,55.9355163 7.51865437,55.9355163 C8.27869898,55.9355163 8.96508294,55.6494141 9.4854911,55.1934814 C9.7169962,55.5171204 9.95089286,55.8398437 10.1948341,56.1561585 L9.64620539,56.6812134 C9.20663265,57.1018982 9.20663265,57.7816772 9.64620539,58.202362 C9.8652742,58.4120179 10.1532207,58.5173034 10.4406888,58.5173034 C10.7286353,58.5173034 11.0161033,58.4120179 11.2356504,58.202362 L11.6096939,57.843933 C12.1717156,58.4742737 12.7552615,59.0917969 13.3746811,59.6846009 C13.59375,59.8942566 13.8816965,59.9995423 14.1691646,59.9995423 C14.4571109,59.9995423 14.744579,59.8942566 14.9641262,59.6846009 L58.311065,18.2006836 L58.9811863,17.7909851 C59.2428252,17.63031 59.4241071,17.3725891 59.4800701,17.0809936 C59.4858099,17.0498658 59.4748087,17.01828 59.4781569,16.9876099 C59.6881378,16.5852356 59.6297831,16.0890198 59.278699,15.7543945 L59.278699,15.7543945 Z M55.4258609,11.3035583 C55.4885204,11.8409729 55.9472258,12.2639466 56.5250319,12.2639466 C57.1444516,12.2639466 57.6490752,12.7459717 57.6490752,13.3396911 C57.6490752,13.5827637 57.5031888,13.7869263 57.2951211,13.8967896 C56.5398598,13.0632019 55.7611607,12.272644 54.9585459,11.526947 L55.4258609,11.3035583 Z M48.3281251,5.4936218 C48.6045918,5.22903445 48.9685905,5.09674078 49.3316327,5.09674078 C49.6946748,5.09674078 50.0586735,5.22903445 50.3351402,5.4936218 C50.5073341,5.65795898 50.6015625,5.87677008 50.6015625,6.10885617 C50.6015625,6.3423157 50.5073341,6.56066895 50.3351402,6.72546387 C50.1385523,6.91268918 49.8180803,6.91268918 49.6229273,6.72546387 C49.246014,6.36520383 48.6772959,6.33270258 48.243463,6.59088141 C48.0999681,6.50939941 47.9559949,6.42974859 47.8105867,6.35009766 C47.9029018,6.03790289 48.0703125,5.74081418 48.3281251,5.4936218 L48.3281251,5.4936218 Z M45.5505421,7.58926395 C45.573023,7.71194461 45.6112883,7.83004758 45.6447704,7.95043945 C44.5398598,7.63549805 43.4148598,7.38052371 42.2740752,7.1791077 L42.5046238,6.3221741 C43.5215242,6.67785645 44.5389031,7.0976257 45.5505421,7.58926395 L45.5505421,7.58926395 Z M40.0723851,6.73278809 C40.059949,6.77764898 40.0709503,6.82113645 40.0652105,6.86599734 C39.7150829,6.8275452 39.3630421,6.79504395 39.009088,6.76803586 C39.3506058,6.41189578 39.6146364,5.99349973 39.787787,5.52978516 C39.9776786,5.57510379 40.1675701,5.61630246 40.3588967,5.66574094 L40.0723851,6.73278809 Z M28.2531888,5.34301758 C28.3713329,5.31829828 28.489477,5.2935791 28.6085778,5.26977539 C28.8592156,6.06719977 29.3686224,6.75338742 30.0564414,7.23312375 C28.2431442,7.5709534 26.475287,8.0612182 24.7624362,8.68515012 L28.2531888,5.34301758 Z M36.2032844,5.8085632 C36.1057079,5.8085632 36.0181761,5.77972406 35.9292092,5.75592047 C36.0554847,5.4936218 36.1564095,5.21942133 36.2157207,4.93011469 C36.6552933,4.97314453 37.094866,5.02807617 37.536352,5.09353641 C37.2589286,5.52154547 36.7676977,5.8085632 36.2032844,5.8085632 L36.2032844,5.8085632 Z M33.0564414,5.66024777 C32.842634,5.75363156 32.6092156,5.8085632 32.3595344,5.8085632 C31.7099809,5.8085632 31.1513074,5.45196539 30.8700574,4.93515012 C31.5468749,4.86557004 32.2313456,4.82254031 32.9225128,4.80514523 C32.9225128,4.81018066 32.9215561,4.81475836 32.9215561,4.8188782 C32.9215561,5.11276242 32.9775191,5.39154047 33.0564414,5.66024777 Z M22.8850446,7.28347781 C22.8998724,7.32009891 22.9266582,7.34664914 22.9448341,7.38006586 L22.0106824,8.27499387 C21.5711096,8.69567871 21.5711096,9.37545773 22.0106824,9.79614258 C22.0197704,9.80484012 22.0317283,9.80667117 22.0412946,9.81536859 C21.6361607,10.0057983 21.2353316,10.2008057 20.8392857,10.4072571 C20.9382972,10.1083373 21.0071748,9.79522711 21.0071748,9.46517941 C21.0071748,9.01657102 20.9105548,8.59039312 20.755102,8.19351199 C21.4170918,7.80715945 22.1063456,7.4491882 22.819037,7.122345 L22.8850446,7.28347781 Z M14.9282525,14.3701172 C14.9057717,13.8624573 14.5159439,13.4632874 14.0070153,13.3763122 C14.5398598,12.8288269 15.1095344,12.3014831 15.7050382,11.786499 C16.12213,12.1907044 16.6635842,12.4736023 17.2753507,12.5674439 C16.4674745,13.1309509 15.686384,13.7324524 14.9282525,14.3701172 Z M18.7581313,9.45739746 C18.7581313,9.46060184 18.759088,9.46289062 18.759088,9.466095 C18.759088,10.0117493 18.2951211,10.45578 17.7249681,10.45578 C17.6273916,10.45578 17.5384248,10.4278564 17.4575892,10.3889466 C17.878986,10.0740052 18.307079,9.76181027 18.7581313,9.45739746 Z M15.1793687,9.14245605 C15.5309312,8.47640988 16.2393176,8.02368164 17.0586735,7.97744754 C16.6607143,8.2539368 16.2785395,8.53683469 15.9021047,8.82156375 C15.619898,8.84628293 15.3625638,8.95523074 15.1793687,9.14245605 Z M13.6640625,15.4898072 C13.5683993,15.579071 13.4693878,15.6628418 13.3751595,15.7534791 C12.111926,16.9624329 10.9720982,18.257904 9.94802302,19.6183777 C9.88966837,19.5172119 9.84231502,19.408722 9.77487245,19.3130494 C10.4674745,17.9360963 11.280134,16.675415 12.1927615,15.4888916 L13.6640625,15.4888916 L13.6640625,15.4898072 Z M4.82142857,21.4064026 C4.82142857,20.51651 5.57812506,19.7927857 6.50749359,19.7927857 C6.70886473,19.7927857 6.89971298,19.8326111 7.07955992,19.8948669 C6.66485976,20.8557129 6.29703441,21.8710327 5.96221298,22.926178 C5.30165816,22.7078248 4.82142857,22.1131897 4.82142857,21.4064026 Z M14.1844707,57.3902893 C12.7246493,55.8888245 11.4575892,54.2582702 10.377551,52.5334167 C10.2402742,51.8486023 9.87388396,51.2438965 9.36017216,50.7865905 C7.26610335,46.8388366 6.14923469,42.4530029 6.11957902,37.9019166 C6.15784433,37.6547241 6.16693237,37.4038697 6.13010204,37.1543884 C6.27933673,29.6438599 9.39843747,22.6020813 14.9646047,17.2755432 C20.6709184,11.8139648 28.257972,8.80645758 36.3271684,8.80645758 C43.0475128,8.80645758 49.4330357,10.8934021 54.6749044,14.7454834 C54.9829401,15.3533936 55.5416136,15.8148193 56.2241709,16.0166931 C56.3882334,16.2071228 56.5508609,16.3998412 56.7139668,16.5966797 L56.5365115,16.7559814 C56.4250638,16.855774 56.3427933,16.9743347 56.2834822,17.1002197 L14.1844707,57.3902893 Z" id="Shape"></path>
                        <path d="M39.665338,22.4821472 C39.665338,23.3729554 38.9105548,24.0953064 37.9792729,24.0953064 C37.0484694,24.0953064 36.2932079,23.3729554 36.2932079,22.4821472 C36.2932079,21.5908814 37.0484694,20.8685303 37.9792729,20.8685303 C38.9105548,20.8685303 39.665338,21.5908814 39.665338,22.4821472 L39.665338,22.4821472 Z" id="Path"></path>
                        <path d="M10.4416455,39.6931458 C10.4416455,40.5839538 9.68686224,41.306305 8.75558033,41.306305 C7.82429853,41.306305 7.06951531,40.5839538 7.06951531,39.6931458 C7.06951531,38.8018799 7.82429853,38.0795288 8.75558033,38.0795288 C9.68686224,38.0795288 10.4416455,38.8018799 10.4416455,39.6931458 Z" id="Path"></path>
                        <path d="M21.6816007,27.8604127 C21.6816007,29.3458557 20.4231504,30.5497741 18.8714924,30.5497741 C17.3193558,30.5497741 16.061384,29.3458557 16.061384,27.8604127 C16.061384,26.3754272 17.3193558,25.1710511 18.8714924,25.1710511 C20.4231504,25.1710511 21.6816007,26.3754272 21.6816007,27.8604127 L21.6816007,27.8604127 Z" id="Path"></path>
                        <path d="M34.0455994,35.3901673 C34.0455994,36.8756104 32.7871493,38.0795287 31.2354911,38.0795287 C29.6833545,38.0795287 28.4253827,36.8756104 28.4253827,35.3901673 C28.4253827,33.9051819 29.6833545,32.7012634 31.2354911,32.7012634 C32.7871493,32.7012634 34.0455994,33.9051819 34.0455994,35.3901673 Z" id="Path"></path>
                        <path d="M35.1696429,13.8766479 C35.1696429,15.3616334 33.9111926,16.5655518 32.3595344,16.5655518 C30.807398,16.5655518 29.549426,15.3616334 29.549426,13.8766479 C29.549426,12.3912048 30.807398,11.1872864 32.3595344,11.1872864 C33.9111926,11.1872864 35.1696429,12.3912048 35.1696429,13.8766479 Z" id="Path"></path>
                        <path d="M20.5575574,46.1471557 C20.5575574,47.0384216 19.8022959,47.7607727 18.8714924,47.7607727 C17.9402105,47.7607727 17.1854273,47.0384216 17.1854273,46.1471557 C17.1854273,45.2558899 17.9402105,44.5335388 18.8714924,44.5335388 C19.8022959,44.5335388 20.5575574,45.2558899 20.5575574,46.1471557 L20.5575574,46.1471557 Z" id="Path"></path>
                        <path d="M21.6816007,19.2549134 C21.6816007,20.1461791 20.9263393,20.8685303 19.9955357,20.8685303 C19.0642538,20.8685303 18.3094707,20.1461791 18.3094707,19.2549134 C18.3094707,18.3636475 19.0642538,17.6412963 19.9955357,17.6412963 C20.9263393,17.6412963 21.6816007,18.3636475 21.6816007,19.2549134 Z" id="Path"></path>
                        <path d="M12.6897321,28.9361572 C12.6897321,29.8274231 11.934949,30.5497741 11.0036671,30.5497741 C10.0723851,30.5497741 9.31760204,29.8274231 9.31760204,28.9361572 C9.31760204,28.0448913 10.0723851,27.3225403 11.0036671,27.3225403 C11.934949,27.3225403 12.6897321,28.0448913 12.6897321,28.9361572 L12.6897321,28.9361572 Z" id="Path"></path>
                        <path d="M27.3013393,25.1710511 C27.3013393,25.7652282 26.7981504,26.2467956 26.1772959,26.2467956 C25.5564414,26.2467956 25.0532525,25.7652282 25.0532525,25.1710511 C25.0532525,24.5773315 25.5564414,24.0953064 26.1772959,24.0953064 C26.7981504,24.0953064 27.3013393,24.5773315 27.3013393,25.1710511 Z" id="Path"></path>
                        <path d="M18.3094707,38.0795288 C18.3094707,38.6737061 17.8062819,39.1552734 17.1854273,39.1552734 C16.5645727,39.1552734 16.061384,38.6737061 16.061384,38.0795288 C16.061384,37.4853516 16.5645727,37.0037842 17.1854273,37.0037842 C17.8062819,37.0037842 18.3094707,37.4853516 18.3094707,38.0795288 Z" id="Path"></path>
                        <path d="M49.78125,17.6412963 C49.78125,18.2354736 49.2780612,18.717041 48.6572067,18.717041 C48.036352,18.717041 47.5331633,18.2354736 47.5331633,17.6412963 C47.5331633,17.0471191 48.036352,16.5655518 48.6572067,16.5655518 C49.2780612,16.5655518 49.78125,17.0471191 49.78125,17.6412963 Z" id="Path"></path>
                        <path d="M25.0532525,35.9280396 C25.0532525,36.5222168 24.5500638,37.0037842 23.9292092,37.0037842 C23.3088329,37.0037842 22.8051659,36.5222168 22.8051659,35.9280396 C22.8051659,35.3338623 23.3088329,34.8522949 23.9292092,34.8522949 C24.5500638,34.8522949 25.0532525,35.3338623 25.0532525,35.9280396 Z" id="Path"></path>
                        <path d="M13.8137755,47.7607727 C13.8137755,48.3549499 13.3105867,48.8365173 12.6897321,48.8365173 C12.0688776,48.8365173 11.5656888,48.3549499 11.5656888,47.7607727 C11.5656888,47.1665954 12.0688776,46.685028 12.6897321,46.685028 C13.3105867,46.685028 13.8137755,47.1665954 13.8137755,47.7607727 Z" id="Path"></path>
                    </g>
                </g>
            </g>
        </g>
    </g>
</svg>