<?xml version="1.0" encoding="UTF-8"?>
<svg width="60px" height="60px" viewBox="0 0 60 60" version="1.1" xmlns="http://www.w3.org/2000/svg" xmlns:xlink="http://www.w3.org/1999/xlink">
    <!-- Generator: Sketch 60 (88103) - https://sketch.com -->
    <title>tapas</title>
    <desc>Created with Sketch.</desc>
    <g id="Page-1" stroke="none" stroke-width="1" fill="none" fill-rule="evenodd">
        <g id="quote_menu" transform="translate(-256.000000, -584.000000)" fill="#212021" fill-rule="nonzero">
            <g id="buttons" transform="translate(161.000000, 364.000000)">
                <g id="button_spanish" transform="translate(0.000000, 190.000000)">
                    <g id="tapas" transform="translate(95.000000, 30.000000)">
                        <path d="M55.792766,48.0219437 L55.792766,42.5722251 C55.792766,42.1485422 55.316383,41.8049616 54.7289362,41.8049616 L41.7217021,41.8049616 C46.0431915,40.6258312 50.0070213,38.7882353 53.3719149,36.3615345 C53.5714894,36.2175959 53.6834043,36.0225575 53.6834043,35.8189258 C53.6834043,35.6154476 53.5712766,35.4202558 53.3719149,35.2763171 L44.5895745,28.9422506 C44.2704255,28.7120716 43.7842553,28.6522251 43.377234,28.7930946 C39.562766,30.1129412 35.3312766,30.8568798 31.0759574,30.9636829 L31.0759574,29.3209719 C34.4968085,28.9496164 37.1280851,26.8157033 37.1280851,24.2465985 C37.1280851,21.6774936 34.4968085,19.5435806 31.0759574,19.1722251 L31.0759574,16.9224552 L35.0568085,14.0513555 C35.256383,13.9074169 35.3682979,13.7123785 35.3682979,13.5087468 L35.3682979,0.767263427 C35.3682979,0.458209719 35.1112766,0.179232737 34.7159574,0.0596930946 C34.3210638,-0.0598465473 33.8648936,0.00322250639 33.5589362,0.219897698 L29.266383,3.26071611 C29.062766,3.40496164 28.9480851,3.60230179 28.9480851,3.80808184 L28.9480851,19.1720716 C25.5274468,19.543734 22.8968085,21.6774936 22.8968085,24.246445 C22.8968085,26.8153964 25.5276596,28.949156 28.9480851,29.3208184 L28.9480851,30.9635294 C24.6929787,30.8565729 20.4619149,30.1127877 16.6476596,28.7929412 C16.2404255,28.6520716 15.7546809,28.7120716 15.4353191,28.9420972 L6.65297872,35.2761637 C6.45340426,35.4201023 6.34148936,35.6151407 6.34148936,35.8187724 C6.34148936,36.0224041 6.45361702,36.2174425 6.65297872,36.3613811 C10.0178723,38.7882353 13.9817021,40.6256777 18.3031915,41.8048082 L5.29574468,41.8048082 C4.70829787,41.8048082 4.23191489,42.1483887 4.23191489,42.5720716 L4.23191489,48.0217903 C1.87297872,48.561023 0.158510638,50.1544757 0.158510638,52.0318159 L0.158510638,55.6583632 C0.158510638,57.9774936 2.77446809,59.8641944 5.99,59.8641944 L54.0346809,59.8641944 C57.2502128,59.8641944 59.8661702,57.9774936 59.8661702,55.6583632 L59.8661702,52.0318159 C59.8661702,50.1546292 58.1517021,48.561023 55.792766,48.0219437 Z M31.0757447,4.13002558 L33.2406383,2.59641944 L33.2406383,13.1907928 L31.0757447,14.7521739 L31.0757447,4.13002558 Z M11.0759574,47.8261381 L6.35957447,47.8261381 L6.35957447,44.4245524 L11.0759574,47.8261381 Z M14.0848936,47.8261381 L7.86404255,43.339335 L15.1257447,43.339335 L21.3465957,47.8261381 L14.0848936,47.8261381 Z M24.3557447,47.8261381 L18.1348936,43.339335 L25.3968085,43.339335 L31.6176596,47.8261381 L24.3557447,47.8261381 Z M34.6268085,47.8261381 L28.4059574,43.339335 L35.6676596,43.339335 L41.8885106,47.8261381 L34.6268085,47.8261381 Z M44.8976596,47.8261381 L38.6768085,43.339335 L45.9387234,43.339335 L52.1595745,47.8261381 L44.8976596,47.8261381 Z M53.6651064,46.7418414 L48.9476596,43.339335 L53.6651064,43.339335 L53.6651064,46.7418414 Z M25.0244681,24.246445 C25.0244681,22.2627621 27.2621277,20.6490537 30.0123404,20.6490537 C32.7625532,20.6490537 35.0002128,22.2629156 35.0002128,24.246445 C35.0002128,26.2299744 32.7625532,27.8438363 30.0123404,27.8438363 C27.2621277,27.8438363 25.0244681,26.2301279 25.0244681,24.246445 Z M16.413617,30.4068031 C20.6534043,31.7861893 25.3380851,32.5129412 30.0123404,32.5129412 C34.686383,32.5129412 39.3710638,31.7860358 43.6110638,30.4068031 L48.7287234,34.0978005 C43.5329787,37.6092583 36.9274468,39.5350895 30.0119149,39.5350895 C23.0965957,39.5350895 16.4910638,37.6092583 11.2955319,34.097954 L16.413617,30.4068031 Z M8.92234043,35.8097187 L9.79042553,35.1836317 C15.3893617,38.9845013 22.5287234,41.0696164 30.0119149,41.0696164 C37.4953191,41.0696164 44.6348936,38.9843478 50.2338298,35.1833248 L51.1023404,35.8097187 C45.3604255,39.6816368 37.9125532,41.8048082 30.0123404,41.8048082 C22.1121277,41.8048082 14.6642553,39.6816368 8.92234043,35.8097187 Z M5.99,49.360665 L54.0346809,49.360665 C56.0770213,49.360665 57.7385106,50.558977 57.7385106,52.0319693 L57.7385106,53.0779028 L2.28617021,53.0779028 L2.28617021,52.0319693 C2.28617021,50.558977 3.94765957,49.360665 5.99,49.360665 Z M54.0346809,58.329821 L5.99,58.329821 C3.94765957,58.329821 2.28617021,57.131509 2.28617021,55.6585166 L2.28617021,54.6124297 L57.7385106,54.6124297 L57.7385106,55.6585166 C57.7385106,57.131509 56.0770213,58.329821 54.0346809,58.329821 Z" id="Shape"></path>
                        <path d="M32.0857447,24.246445 C32.0857447,24.6701279 32.5621277,25.0137084 33.1495745,25.0137084 C33.7370213,25.0137084 34.2134043,24.6701279 34.2134043,24.246445 C34.2134043,22.5756522 32.3289362,21.2165217 30.0123404,21.2165217 C29.4248936,21.2165217 28.9485106,21.5601023 28.9485106,21.9837852 C28.9485106,22.407468 29.4248936,22.7510486 30.0123404,22.7510486 C31.1557447,22.7510486 32.0857447,23.4217903 32.0857447,24.246445 Z" id="Path"></path>
                    </g>
                </g>
            </g>
        </g>
    </g>
</svg>