<svg xmlns="http://www.w3.org/2000/svg" xmlns:xlink="http://www.w3.org/1999/xlink" width="31" height="31" viewBox="0 0 31 31"><defs><path id="a" d="M29.531 2.187H5.47A3.282 3.282 0 0 0 2.187 5.47v24.06a3.282 3.282 0 0 0 3.282 3.282H29.53a3.282 3.282 0 0 0 3.282-3.282V5.47a3.282 3.282 0 0 0-3.282-3.282zm-3.343 10.856c.014.191.014.39.014.581 0 5.927-4.512 12.756-12.756 12.756-2.543 0-4.901-.738-6.884-2.01.363.041.711.055 1.08.055 2.1 0 4.027-.711 5.565-1.914a4.49 4.49 0 0 1-4.19-3.11c.69.102 1.312.102 2.023-.083a4.484 4.484 0 0 1-3.589-4.402v-.055a4.48 4.48 0 0 0 2.024.568 4.474 4.474 0 0 1-1.996-3.733c0-.834.218-1.6.608-2.262a12.73 12.73 0 0 0 9.242 4.689c-.636-3.042 1.64-5.51 4.375-5.51a4.47 4.47 0 0 1 3.275 1.415 8.785 8.785 0 0 0 2.843-1.08 4.472 4.472 0 0 1-1.968 2.468 8.922 8.922 0 0 0 2.584-.697 9.437 9.437 0 0 1-2.25 2.324z"/></defs><g fill="none" fill-rule="evenodd" transform="translate(-2 -2)"><mask id="b" fill="#fff"><use xlink:href="#a"/></mask><g fill="#FFF" mask="url(#b)"><path d="M0 0h35v35H0z"/></g></g></svg>