<svg xmlns="http://www.w3.org/2000/svg" xmlns:xlink="http://www.w3.org/1999/xlink" width="30" height="34" viewBox="0 0 30 34"><defs><path id="a" d="M20 20a8.333 8.333 0 0 0 8.333-8.333A8.333 8.333 0 0 0 20 3.333a8.333 8.333 0 0 0-8.333 8.334A8.333 8.333 0 0 0 20 20zm5.833 2.083h-1.087A11.345 11.345 0 0 1 20 23.125c-1.693 0-3.294-.378-4.746-1.042h-1.087a8.753 8.753 0 0 0-8.75 8.75v2.709c0 1.725 1.4 3.125 3.125 3.125h22.916c1.726 0 3.125-1.4 3.125-3.125v-2.709c0-4.83-3.919-8.75-8.75-8.75z"/></defs><g fill="none" fill-rule="evenodd" transform="translate(-5 -3)"><mask id="b" fill="#fff"><use xlink:href="#a"/></mask><g fill="#CACACA" mask="url(#b)"><path d="M0 0h40v40H0z"/></g></g></svg>