<svg xmlns="http://www.w3.org/2000/svg" width="50" height="50" viewBox="0 0 50 50"><path fill="#C6C4C4" d="M42.678 32.322a24.904 24.904 0 0 0-9.5-5.959c3.787-2.608 6.275-6.974 6.275-11.91C39.453 6.483 32.97 0 25 0S10.547 6.484 10.547 14.453c0 4.936 2.488 9.302 6.275 11.91a24.904 24.904 0 0 0-9.5 5.96C2.6 37.043 0 43.322 0 50h3.906c0-11.631 9.463-21.094 21.094-21.094 11.631 0 21.094 9.463 21.094 21.094H50c0-6.678-2.6-12.956-7.322-17.678zM25 25c-5.816 0-10.547-4.731-10.547-10.547 0-5.816 4.731-10.547 10.547-10.547 5.816 0 10.547 4.731 10.547 10.547C35.547 20.27 30.816 25 25 25z"/></svg>