<?xml version="1.0" encoding="UTF-8"?>
<svg width="30px" height="34px" viewBox="0 0 30 34" version="1.1" xmlns="http://www.w3.org/2000/svg" xmlns:xlink="http://www.w3.org/1999/xlink">
    <!-- Generator: Sketch 59.1 (86144) - https://sketch.com -->
    <title>user</title>
    <desc>Created with Sketch.</desc>
    <defs>
        <path d="M20,20 C24.6028646,20 28.3333334,16.2695312 28.3333334,11.6666666 C28.3333334,7.06380202 24.6028646,3.33333325 20,3.33333325 C15.3971354,3.33333325 11.6666666,7.06380202 11.6666666,11.6666666 C11.6666666,16.2695312 15.3971354,20 20,20 Z M25.8333334,22.0833333 L24.7460938,22.0833333 C23.3007813,22.7473958 21.6927083,23.125 20,23.125 C18.3072917,23.125 16.7057292,22.7473958 15.2539062,22.0833333 L14.1666666,22.0833333 C9.33593745,22.0833333 5.41666659,26.0026042 5.41666659,30.8333334 L5.41666659,33.5416667 C5.41666659,35.2669272 6.81640618,36.6666668 8.54166661,36.6666668 L31.4583334,36.6666668 C33.1835938,36.6666668 34.5833334,35.2669272 34.5833334,33.5416667 L34.5833334,30.8333334 C34.5833334,26.0026042 30.6640626,22.0833333 25.8333334,22.0833333 Z" id="path-1"></path>
    </defs>
    <g id="Page-1" stroke="none" stroke-width="1" fill="none" fill-rule="evenodd">
        <g id="quote_form" transform="translate(-971.000000, -262.000000)">
            <g id="form_name" transform="translate(422.000000, 250.000000)">
                <g id="user" transform="translate(544.000000, 9.000000)">
                    <mask id="mask-2" fill="white">
                        <use xlink:href="#path-1"></use>
                    </mask>
                    <g fill-rule="nonzero"></g>
                    <g id="color/white-primary" mask="url(#mask-2)" fill="#CACACA" fill-rule="evenodd">
                        <rect id="Rectangle" x="0" y="0" width="40" height="40"></rect>
                    </g>
                </g>
            </g>
        </g>
    </g>
</svg>