<?xml version="1.0" encoding="UTF-8"?>
<svg width="60px" height="60px" viewBox="0 0 60 60" version="1.1" xmlns="http://www.w3.org/2000/svg" xmlns:xlink="http://www.w3.org/1999/xlink">
    <!-- Generator: Sketch 60 (88103) - https://sketch.com -->
    <title>vegetables</title>
    <desc>Created with Sketch.</desc>
    <g id="Page-1" stroke="none" stroke-width="1" fill="none" fill-rule="evenodd">
        <g id="quote_allergies" transform="translate(-232.000000, -392.000000)" fill="#212021" fill-rule="nonzero">
            <g id="button_vegetarian" transform="translate(162.000000, 362.000000)">
                <g id="vegetables" transform="translate(70.000000, 30.000000)">
                    <path d="M8.21800781,53.0971875 L8.20722656,53.0889844 C7.69347656,52.6955859 6.95800781,52.7928516 6.56425781,53.3067188 C6.17074219,53.8204688 6.26824219,54.5560547 6.781875,54.9496875 L6.79265625,54.9578906 C7.00523437,55.1207813 7.25578125,55.1995312 7.50445312,55.1995312 C7.85660156,55.1995312 8.20488281,55.0413281 8.43550781,54.7401562 C8.82925781,54.2262891 8.73175781,53.4908203 8.21800781,53.0971875 Z" id="Path"></path>
                    <path d="M8.21800781,43.4878125 L8.20722656,43.4796094 C7.69347656,43.0862109 6.95800781,43.1834766 6.56425781,43.6973438 C6.17074219,44.2110938 6.26824219,44.9466797 6.781875,45.3403125 L6.79265625,45.3485156 C7.00523437,45.5114063 7.25578125,45.5901562 7.50445312,45.5901562 C7.85660156,45.5901562 8.20488281,45.4319531 8.43550781,45.1307812 C8.82925781,44.6169141 8.73175781,43.8814453 8.21800781,43.4878125 Z" id="Path"></path>
                    <path d="M8.21800781,33.8784375 L8.20722656,33.8702344 C7.69347656,33.4768359 6.95800781,33.5741016 6.56425781,34.0879688 C6.17074219,34.6017188 6.26824219,35.3373047 6.781875,35.7309375 L6.79265625,35.7391406 C7.00523437,35.9020313 7.25578125,35.9807812 7.50445312,35.9807812 C7.85660156,35.9807812 8.20488281,35.8225781 8.43550781,35.5214062 C8.82925781,35.0075391 8.73175781,34.2720703 8.21800781,33.8784375 Z" id="Path"></path>
                    <path d="M53.2078125,53.0935547 L53.1969141,53.0853516 C52.6810547,52.6944141 51.9460547,52.7956641 51.5551172,53.3115234 C51.1641797,53.8272656 51.2654297,54.5623828 51.7812891,54.9533203 L51.7921875,54.9615234 C52.0039453,55.1219531 52.2525,55.1995312 52.4990625,55.1995312 C52.8533203,55.1995312 53.2034766,55.0395703 53.4339844,54.7354687 C53.8249219,54.2196094 53.7235547,53.4844922 53.2078125,53.0935547 Z" id="Path"></path>
                    <path d="M53.2078125,43.4842969 L53.1969141,43.4760937 C52.6810547,43.0851562 51.9460547,43.1864062 51.5551172,43.7022656 C51.1642969,44.2178906 51.2655469,44.9530078 51.7812891,45.3439453 L51.7921875,45.3521484 C52.0039453,45.5125781 52.2525,45.5901562 52.4990625,45.5901562 C52.8533203,45.5901562 53.2034766,45.4301953 53.4339844,45.1260938 C53.8249219,44.6103516 53.7236719,43.8752344 53.2078125,43.4842969 Z" id="Path"></path>
                    <path d="M53.2078125,33.8749219 L53.1969141,33.8667187 C52.6810547,33.4757812 51.9460547,33.5770312 51.5551172,34.0928906 C51.1641797,34.60875 51.2655469,35.3436328 51.7812891,35.7345703 L51.7921875,35.7427734 C52.0039453,35.9032031 52.2525,35.9807812 52.4990625,35.9807812 C52.8533203,35.9807812 53.2034766,35.8208203 53.4339844,35.5167188 C53.8249219,35.0009766 53.7236719,34.2658594 53.2078125,33.8749219 Z" id="Path"></path>
                    <path d="M43.2975,38.4375 L43.2822656,38.4375 C42.6351563,38.4375 42.1103906,38.9621484 42.1103906,39.609375 C42.1103906,40.2566016 42.6350391,40.78125 43.2822656,40.78125 L43.2975,40.78125 C43.9446094,40.78125 44.469375,40.2566016 44.469375,39.609375 C44.469375,38.9621484 43.9446094,38.4375 43.2975,38.4375 Z" id="Path"></path>
                    <path d="M16.7177344,48.046875 L16.7025,48.046875 C16.0553906,48.046875 15.530625,48.5715234 15.530625,49.21875 C15.530625,49.8659766 16.0553906,50.390625 16.7025,50.390625 L16.7177344,50.390625 C17.3648437,50.390625 17.8896094,49.8659766 17.8896094,49.21875 C17.8896094,48.5715234 17.3649609,48.046875 16.7177344,48.046875 Z" id="Path"></path>
                    <path d="M9.46757813,21.7019531 C9.24960938,21.4839844 8.94726562,21.3585938 8.6390625,21.3585938 C8.33085937,21.3585938 8.02851562,21.4839844 7.81054688,21.7019531 C7.59269531,21.9199219 7.4671875,22.2222656 7.4671875,22.5316406 C7.4671875,22.8398438 7.59257812,23.1410156 7.81054688,23.3589844 C8.02851562,23.578125 8.32980469,23.7023438 8.6390625,23.7023438 C8.94726562,23.7023438 9.24960937,23.578125 9.46757812,23.3589844 C9.68542969,23.1410156 9.8109375,22.8398438 9.8109375,22.5316406 C9.8109375,22.2222656 9.68554688,21.9210938 9.46757813,21.7019531 Z" id="Path"></path>
                    <path d="M58.828125,28.828125 L53.9608594,28.828125 C56.0552344,27.6234375 57.4695703,25.3645312 57.4695703,22.7799609 C57.4695703,20.0968359 55.9473047,17.7084375 53.6281641,16.5462891 C54.0282422,15.6568359 54.2357812,14.6908594 54.2357812,13.6930078 C54.2357812,9.84761719 51.1073437,6.7190625 47.2618359,6.7190625 C46.0494141,6.7190625 44.8850391,7.02492187 43.8473437,7.61027344 C42.4858594,6.65074219 40.8577734,6.13054687 39.1769531,6.13054687 C39.0629297,6.13054687 38.9498437,6.13453125 38.836875,6.13921875 C37.5987891,2.53007812 34.1464453,0.005625 30.2581641,0.005625 C26.7519141,0.005625 23.5791797,2.03636719 22.0843359,5.14804687 C21.8039062,5.12203125 21.5221875,5.10890625 21.2407031,5.10890625 C17.5557422,5.10890625 14.2829297,7.33417969 12.8855859,10.6523437 C12.6376172,10.5766406 12.3853125,10.5105469 12.1292578,10.4532422 C12.2635547,8.95546875 12.7386328,7.80726562 13.5492187,7.03523437 C14.2552734,6.36269531 14.9644922,6.22335937 14.994375,6.21773437 L14.9780859,6.22042969 L14.9778516,6.21914062 C15.2255859,6.18269531 15.4600781,6.0684375 15.6380859,5.88960937 C15.8559375,5.67164062 15.9814453,5.37046875 15.9814453,5.06226562 C15.9814453,4.75289062 15.8560547,4.45171875 15.6380859,4.23257812 C15.4201172,4.01460937 15.1177734,3.88921875 14.8095703,3.88921875 C14.7438281,3.88921875 14.6785547,3.89613281 14.6141016,3.90714844 L14.61375,3.90515625 C13.9178906,4.01472656 12.9662109,4.40472656 12.0884766,5.19714844 L12.0884766,1.171875 C12.0884766,0.524648438 11.5637109,0 10.9166016,0 L8.10410156,0 C7.45699219,0 6.93222656,0.524648438 6.93222656,1.171875 L6.93222656,5.55363281 C5.58410156,3.90140625 4.12875,2.93554688 4.01589844,2.86183594 C3.47460938,2.50875 2.750625,2.66132813 2.39660156,3.20179687 C2.04246094,3.74238281 2.19375,4.46835937 2.73351562,4.82355469 C2.77230469,4.84898437 6.3178125,7.22320313 6.84457031,10.6386328 C2.8790625,11.8298437 0,15.3151172 0,19.4196094 C0,21.1249219 0.972539062,25.2196875 1.92703125,28.828125 L1.171875,28.828125 C0.524765625,28.828125 0,29.3527734 0,30 L0,58.828125 C0,59.4753516 0.524765625,60 1.171875,60 L58.828125,60 C59.4752344,60 60,59.4753516 60,58.828125 L60,30 C60,29.3527734 59.4752344,28.828125 58.828125,28.828125 Z M21.2407031,7.45265625 C21.6915234,7.45265625 22.1429297,7.49777344 22.5827344,7.58683594 C23.1550781,7.70261719 23.7251953,7.37976562 23.9199609,6.82921875 C24.8683594,4.14972656 27.4154297,2.349375 30.2581641,2.349375 C33.0284766,2.349375 35.5007812,4.07660156 36.5042578,6.58476562 C33.3389062,7.69230469 31.0614844,10.7071875 31.0614844,14.2457813 C31.0614844,14.8930078 31.58625,15.4176563 32.2333594,15.4176563 C32.8804687,15.4176563 33.4052344,14.8930078 33.4052344,14.2457813 C33.4052344,11.0633203 35.994375,8.47429688 39.1768359,8.47429688 C40.588125,8.47429688 41.9472656,8.99027344 43.0035937,9.92730469 C43.4201953,10.2967969 44.0395312,10.3219922 44.4848437,9.98777344 C45.2907422,9.38261719 46.2509766,9.0628125 47.2616016,9.0628125 C49.8146484,9.0628125 51.8917969,11.1399609 51.8917969,13.6930078 C51.8917969,14.6967188 51.5759766,15.6516797 50.9782031,16.4544141 C50.7445312,16.7683594 50.6828906,17.1783984 50.8142578,17.5471875 C50.945625,17.9159766 51.2521875,18.1948828 51.631875,18.290625 C53.6889844,18.8092969 55.1257031,20.6553516 55.1257031,22.7799609 C55.1257031,25.3330078 53.0485547,27.4101562 50.4955078,27.4101562 C50.2046484,27.4101562 49.9093359,27.3817969 49.6176562,27.3258984 C49.0496484,27.2166797 48.4872656,27.5387109 48.2929687,28.0833984 C48.2012109,28.3408594 48.0850781,28.5901172 47.9485547,28.828125 L46.4691797,28.828125 L51.2678906,21.9492187 C51.4482422,21.6907031 51.5167969,21.3703125 51.4580859,21.0605859 C51.399375,20.7508594 51.2183203,20.4778125 50.9559375,20.3032031 L47.5393359,18.0295312 C47.2732031,17.8523437 46.9460156,17.7915234 46.6341797,17.8614844 C46.3222266,17.9313281 46.0522266,18.1255078 45.8869922,18.3992578 L44.1785156,21.2281641 L45.5770312,14.1536719 C45.7017187,13.5221484 45.2939062,12.9082031 44.6634375,12.7785938 L41.6816016,12.1653516 C41.3735156,12.1018359 41.0526562,12.1651172 40.7915625,12.3406641 C40.5304687,12.5162109 40.3509375,12.789375 40.2933984,13.0986328 L39.9107812,15.1535156 L37.1759766,15.1535156 C36.5288672,15.1535156 36.0041016,15.6781641 36.0041016,16.3253906 L36.0041016,23.0688281 C35.2252734,19.0810547 31.7064844,16.0617188 27.4942969,16.0617188 C25.5962109,16.0617188 23.7933984,16.6639453 22.2809766,17.8033594 C21.03375,18.7428516 20.0541797,20.0216016 19.4647266,21.4592578 C19.6140234,20.5791797 19.6876172,19.9041797 19.6876172,19.4197266 C19.6876172,17.8305469 19.2560156,16.3339453 18.4969922,15.0273047 C19.1126953,13.3521094 20.7133594,12.2141016 22.5239062,12.2141016 C22.8116016,12.2141016 23.0998828,12.2430469 23.3808984,12.3 C23.9535937,12.4164844 24.5245312,12.0926953 24.7189453,11.5415625 C24.9704297,10.8292969 25.4080078,10.1921484 25.9845703,9.69902344 C26.4762891,9.27832031 26.5339453,8.53851563 26.1132422,8.04667969 C25.6926562,7.55484375 24.9529687,7.49730469 24.4608984,7.91789063 C23.8170703,8.46867188 23.2855078,9.13640625 22.89375,9.88066406 C22.7705859,9.87375 22.6471875,9.87035156 22.5240234,9.87035156 C20.1915234,9.87035156 18.0844922,11.0914453 16.8957422,12.9959766 C16.3391016,12.4600781 15.7142578,11.9872266 15.0335156,11.5899609 C16.0624219,9.11472656 18.4975781,7.45265625 21.2407031,7.45265625 Z M42.8463281,27.9673828 L47.2603125,20.6589844 L48.6603516,21.5907422 L43.6116797,28.828125 L42.6761719,28.828125 L42.8463281,27.9673828 Z M41.3804297,23.2965234 L41.3804297,20.0425781 C41.3866406,20.0179687 41.3934375,19.9935937 41.398125,19.9682813 L42.3788672,14.7014062 L43.0521094,14.8399219 L41.3804297,23.2965234 Z M38.3394141,26.7952734 C38.3444531,26.7508594 38.3478516,26.7058594 38.3478516,26.6601562 L38.3478516,17.4971484 L39.0367969,17.4971484 L39.0367969,28.828125 L38.6669531,28.828125 C38.6701172,28.7547656 38.671875,28.6812891 38.671875,28.6075781 C38.671875,27.9687891 38.5532812,27.3580078 38.3394141,26.7952734 Z M22.265625,21.328125 C22.2309375,21.328125 22.1968359,21.3303516 22.1621484,21.3307031 C23.3078906,19.5517969 25.3155469,18.4053516 27.4941797,18.4053516 C30.5905078,18.4053516 33.1728516,20.6414063 33.7156641,23.5831641 C32.0941406,23.5946484 30.6571875,24.410625 29.7679687,25.6590234 C28.2655078,23.0724609 25.4663672,21.328125 22.265625,21.328125 Z M28.4832422,28.828125 L16.2324609,28.828125 L16.048125,28.828125 C16.5994922,25.8970313 19.1769141,23.671875 22.2657422,23.671875 C25.3545703,23.671875 27.931875,25.8970313 28.4832422,28.828125 Z M33.75,25.9260937 C35.1716016,25.9260937 36.328125,27.1290234 36.328125,28.6075781 C36.328125,28.6815234 36.3246094,28.755 36.3188672,28.828125 L31.1810156,28.828125 C31.1752734,28.755 31.1717578,28.6815234 31.1717578,28.6075781 C31.171875,27.1290234 32.3283984,25.9260937 33.75,25.9260937 Z M9.27597656,2.34375 L9.74472656,2.34375 L9.74472656,10.2019922 C9.58757813,10.2035156 9.43125,10.2077344 9.27597656,10.2160547 L9.27597656,2.34375 Z M2.41371094,18.4933594 C2.48683594,18.5076563 2.56230469,18.515625 2.63953125,18.515625 L8.43304688,18.515625 C9.08015625,18.515625 9.60492188,17.9909766 9.60492188,17.34375 C9.60492188,16.6965234 9.08015625,16.171875 8.43304688,16.171875 L3.23507813,16.171875 C4.501875,14.0138672 6.98871094,12.5433984 9.84375,12.5433984 C13.9792969,12.5433984 17.34375,15.6280078 17.34375,19.4196094 C17.34375,19.7253516 17.2948828,20.2894922 17.1086719,21.328125 L12.4541016,21.328125 C11.8069922,21.328125 11.2822266,21.8527734 11.2822266,22.5 C11.2822266,23.1472266 11.8069922,23.671875 12.4541016,23.671875 L16.3454297,23.671875 C14.9235938,25.0030078 13.9498828,26.8054688 13.6751953,28.828125 L4.35246094,28.828125 C3.0721875,24.0485156 2.34375,20.6428125 2.34375,19.4196094 C2.34375,19.1054297 2.36894531,18.7966406 2.41371094,18.4933594 Z M57.65625,38.4375 L47.34375,38.4375 C46.6966406,38.4375 46.171875,38.9621484 46.171875,39.609375 C46.171875,40.2566016 46.6966406,40.78125 47.34375,40.78125 L57.65625,40.78125 L57.65625,48.046875 L20.6960156,48.046875 C20.0489063,48.046875 19.5241406,48.5715234 19.5241406,49.21875 C19.5241406,49.8659766 20.0489063,50.390625 20.6960156,50.390625 L57.65625,50.390625 L57.65625,57.65625 L2.34375,57.65625 L2.34375,50.390625 L12.65625,50.390625 C13.3033594,50.390625 13.828125,49.8659766 13.828125,49.21875 C13.828125,48.5715234 13.3033594,48.046875 12.65625,48.046875 L2.34375,48.046875 L2.34375,40.78125 L39.3039844,40.78125 C39.9510937,40.78125 40.4758594,40.2566016 40.4758594,39.609375 C40.4758594,38.9621484 39.9510937,38.4375 39.3039844,38.4375 L2.34375,38.4375 L2.34375,31.171875 L3.45503906,31.171875 L57.65625,31.171875 L57.65625,38.4375 Z" id="Shape"></path>
                    <path d="M28.7654297,6.328125 L28.7499609,6.328125 C28.1028516,6.328125 27.5780859,6.85277344 27.5780859,7.5 C27.5780859,8.14722656 28.1028516,8.671875 28.7499609,8.671875 L28.7654297,8.671875 C29.4125391,8.671875 29.9373047,8.14722656 29.9373047,7.5 C29.9373047,6.85277344 29.4125391,6.328125 28.7654297,6.328125 Z" id="Path"></path>
                </g>
            </g>
        </g>
    </g>
</svg>