<svg xmlns="http://www.w3.org/2000/svg" xmlns:xlink="http://www.w3.org/1999/xlink" width="31" height="31" viewBox="0 0 31 31"><defs><path id="a" d="M28.226 6.638a15.062 15.062 0 0 0-10.733-4.45c-8.367 0-15.176 6.808-15.176 15.175 0 2.673.698 5.284 2.024 7.588l-2.154 7.862 8.046-2.113a15.13 15.13 0 0 0 7.253 1.846h.007c8.36 0 15.32-6.809 15.32-15.176 0-4.054-1.723-7.861-4.587-10.732zM17.493 29.989c-2.27 0-4.491-.608-6.426-1.757l-.458-.273-4.771 1.251 1.271-4.655-.3-.479a12.572 12.572 0 0 1-1.928-6.713c0-6.952 5.66-12.612 12.619-12.612a12.5 12.5 0 0 1 8.914 3.698c2.379 2.386 3.842 5.551 3.835 8.921 0 6.96-5.804 12.62-12.756 12.62zm6.918-9.447c-.376-.191-2.242-1.107-2.59-1.23-.35-.13-.602-.192-.855.19-.253.384-.978 1.231-1.203 1.491-.22.253-.445.287-.82.096-2.23-1.114-3.692-1.99-5.162-4.512-.39-.67.39-.622 1.115-2.071.123-.253.061-.472-.035-.663-.095-.192-.854-2.058-1.169-2.817-.307-.738-.622-.635-.854-.649-.219-.014-.472-.014-.725-.014s-.663.096-1.011.472c-.35.383-1.327 1.299-1.327 3.165s1.36 3.67 1.545 3.924c.192.253 2.673 4.08 6.48 5.728 2.407 1.04 3.35 1.128 4.554.95.731-.109 2.242-.915 2.556-1.804.315-.889.315-1.648.219-1.805-.089-.17-.342-.266-.718-.451z"/></defs><g fill="none" fill-rule="evenodd" transform="translate(-2 -2)"><mask id="b" fill="#fff"><use xlink:href="#a"/></mask><g fill="#FFF" mask="url(#b)"><path d="M0 0h35v35H0z"/></g></g></svg>